<?xml version="1.0" encoding="utf-8"?>
<!-- Generator: Adobe Illustrator 19.2.1, SVG Export Plug-In . SVG Version: 6.00 Build 0)  -->
<svg version="1.1" id="Layer_1" xmlns="http://www.w3.org/2000/svg" xmlns:xlink="http://www.w3.org/1999/xlink" x="0px" y="0px"
	 viewBox="0 0 1000 1000" style="enable-background:new 0 0 1000 1000;" xml:space="preserve">
<style type="text/css">
	.st0{fill:none;stroke:#58595B;stroke-width:3;stroke-miterlimit:10;}
	.st1{fill:#FFFFFF;stroke:#000000;stroke-width:1.5;stroke-miterlimit:10;}
	.st2{fill:none;stroke:#58595B;stroke-width:1.5;stroke-miterlimit:10;}
	.st3{fill:#58595B;}
	.st4{fill:none;stroke:#58595B;stroke-width:4.2426;stroke-miterlimit:10;}
	.st5{fill:#FFFFFF;stroke:#000000;stroke-width:1.4591;stroke-miterlimit:10;}
	.st6{fill:none;stroke:#58595B;stroke-width:1.4661;stroke-miterlimit:10;}
	.st7{fill:none;stroke:#58595B;stroke-width:1.9664;stroke-miterlimit:10;}
	.st8{fill:none;stroke:#000000;stroke-width:1.5;stroke-miterlimit:10;}
	.st9{fill:none;stroke:#000000;stroke-width:1.5886;stroke-miterlimit:10;}
	.st10{fill:none;stroke:#000000;stroke-width:1.5964;stroke-miterlimit:10;}
</style>
<rect class="st0" width="1000" height="1000"/>
<g>
	<path d="M249.3,903.7c1.4-1.5,3.3-2.2,5.7-2.2c2,0,3.5,0.5,4.6,1.5c1.1,1,1.7,2.6,1.7,5v9.9h-2.4V916c-1.7,1.4-3.6,2.1-5.7,2.1
		c-0.8,0-1.6-0.1-2.3-0.4c-0.7-0.3-1.2-0.6-1.7-1s-0.8-0.9-1.1-1.4c-0.2-0.5-0.4-1.1-0.4-1.6c0-1.6,0.7-2.9,2.1-3.8
		c1.4-0.9,3.4-1.4,6-1.5h3v-0.6c0-1.6-0.3-2.7-1-3.3c-0.7-0.6-1.7-1-3.1-1c-1.7,0-3.2,0.6-4.3,1.8L249.3,903.7z M259,910.3h-0.6
		c-0.3,0-0.6,0-0.9,0c-0.3,0-0.6,0-0.9,0c-1.3,0-2.3,0.1-3.2,0.3c-0.8,0.2-1.5,0.4-1.9,0.7c-0.5,0.3-0.8,0.6-1,1
		c-0.2,0.4-0.3,0.8-0.3,1.2c0,0.7,0.3,1.4,1,1.9c0.7,0.5,1.5,0.8,2.4,0.8c0.7,0,1.3-0.1,1.9-0.3s1-0.5,1.5-0.8c0.4-0.3,0.8-0.6,1-1
		c0.3-0.3,0.4-0.6,0.6-0.9c0.2-0.5,0.4-1.1,0.4-1.9V910.3z"/>
	<path d="M267.1,901.8h2.6l-0.1,3.1c0.5-1.1,1.3-2,2.3-2.6s2.2-0.9,3.4-0.9c1.7,0,3.2,0.6,4.3,1.8l-1.2,2.4
		c-0.3-0.3-0.5-0.6-0.7-0.9c-0.2-0.2-0.4-0.4-0.7-0.6s-0.5-0.3-0.8-0.4c-0.3-0.1-0.7-0.1-1.1-0.1c-0.8,0-1.5,0.2-2.2,0.5
		s-1.3,0.8-1.8,1.4c-0.5,0.6-0.9,1.3-1.2,2c-0.3,0.8-0.5,1.6-0.5,2.4v7.8h-2.5V901.8z"/>
	<path d="M297.1,904.4l-1.8,2.1c-0.1-0.1-0.2-0.1-0.2-0.2s0-0.2,0-0.3c0-0.1-0.1-0.3-0.3-0.5c-0.1-0.2-0.4-0.5-0.8-0.8
		c-0.8-0.7-1.9-1-3.3-1c-0.7,0-1.3,0.1-2,0.4c-0.6,0.3-1.2,0.7-1.6,1.2c-0.5,0.5-0.8,1.2-1.1,1.9c-0.3,0.7-0.4,1.6-0.4,2.5
		c0,0.9,0.1,1.7,0.4,2.5c0.3,0.8,0.7,1.4,1.2,2s1.1,1,1.8,1.3c0.7,0.3,1.4,0.5,2.3,0.5c1.6,0,3-0.6,4.2-1.9l1.5,1.7
		c-1.6,1.7-3.5,2.5-5.8,2.5c-1.1,0-2.2-0.2-3.2-0.6s-1.8-1-2.5-1.8c-0.7-0.7-1.3-1.6-1.7-2.6c-0.4-1-0.6-2.1-0.6-3.3
		c0-1.2,0.2-2.3,0.6-3.3c0.4-1,1-1.9,1.7-2.6s1.6-1.3,2.6-1.7c1-0.4,2.1-0.6,3.2-0.6c1.3,0,2.4,0.3,3.4,0.8
		C295.6,902.8,296.4,903.5,297.1,904.4z"/>
	<path d="M313.1,896.7l-0.4,0c-0.1,0-0.2,0-0.3,0.1c-2.1,1.2-3.7,2.9-4.8,5c-1.1,2.1-1.7,4.5-1.7,7.1c0,1.3,0.2,2.6,0.5,3.9
		c0.3,1.3,0.9,2.5,1.5,3.6c0.7,1.2,1.5,2.2,2.4,3.2c0.9,1,2,1.8,3.2,2.5l-1.1,1.9c-1.4-0.7-2.6-1.6-3.7-2.7c-1.1-1.1-2-2.2-2.8-3.6
		c-0.8-1.3-1.3-2.7-1.8-4.2c-0.4-1.5-0.6-3-0.6-4.6s0.2-3.1,0.6-4.6c0.4-1.5,1-2.8,1.8-4.1s1.7-2.4,2.8-3.3c1.1-1,2.3-1.7,3.7-2.3
		l1,2.1C313.2,896.6,313.1,896.7,313.1,896.7z"/>
	<path d="M319.3,903.7c1.4-1.5,3.3-2.2,5.7-2.2c2,0,3.5,0.5,4.6,1.5c1.1,1,1.7,2.6,1.7,5v9.9h-2.4V916c-1.7,1.4-3.6,2.1-5.7,2.1
		c-0.8,0-1.6-0.1-2.3-0.4c-0.7-0.3-1.2-0.6-1.7-1s-0.8-0.9-1.1-1.4c-0.2-0.5-0.4-1.1-0.4-1.6c0-1.6,0.7-2.9,2.1-3.8
		c1.4-0.9,3.4-1.4,6-1.5h3v-0.6c0-1.6-0.3-2.7-1-3.3c-0.7-0.6-1.7-1-3.1-1c-1.7,0-3.2,0.6-4.3,1.8L319.3,903.7z M329,910.3h-0.6
		c-0.3,0-0.6,0-0.9,0c-0.3,0-0.6,0-0.9,0c-1.3,0-2.3,0.1-3.2,0.3c-0.8,0.2-1.5,0.4-1.9,0.7c-0.5,0.3-0.8,0.6-1,1
		c-0.2,0.4-0.3,0.8-0.3,1.2c0,0.7,0.3,1.4,1,1.9c0.7,0.5,1.5,0.8,2.4,0.8c0.7,0,1.3-0.1,1.9-0.3s1-0.5,1.5-0.8c0.4-0.3,0.8-0.6,1-1
		c0.3-0.3,0.4-0.6,0.6-0.9c0.2-0.5,0.4-1.1,0.4-1.9V910.3z"/>
	<path d="M344.3,917.1c0,1.8-1.2,4-3.7,6.6l-1.2-1c0.7-0.6,1.2-1.3,1.6-2s0.6-1.3,0.6-1.7c0-0.2-0.1-0.4-0.3-0.6
		c-0.2-0.2-0.4-0.4-0.6-0.6c-0.2-0.2-0.4-0.4-0.6-0.6c-0.2-0.2-0.3-0.5-0.3-0.8c0-0.6,0.2-1.1,0.6-1.5c0.4-0.4,0.9-0.6,1.5-0.6
		c0.6,0,1.2,0.3,1.6,0.8C344.1,915.5,344.3,916.2,344.3,917.1z"/>
	<path d="M370.7,894.5h2.9v0.1c0,0.1-0.1,0.2-0.2,0.3c-0.1,0.1-0.2,0.2-0.2,0.4v9c0.5-0.9,1.2-1.6,2.1-2.1c0.9-0.5,1.8-0.8,2.7-0.8
		c0.9,0,1.7,0.2,2.5,0.5c0.8,0.3,1.5,0.9,2.1,1.5s1.1,1.5,1.4,2.6c0.4,1,0.5,2.2,0.5,3.6c0,1.4-0.2,2.7-0.6,3.8
		c-0.4,1.1-0.9,1.9-1.5,2.7c-0.6,0.7-1.3,1.2-2.1,1.6c-0.8,0.3-1.6,0.5-2.5,0.5c-1,0-1.9-0.2-2.7-0.7c-0.8-0.4-1.5-1.1-2-1.8
		l-0.9,2.1h-1.6V894.5z M375.1,915.2c0.4,0.2,0.8,0.4,1.2,0.5s0.7,0.1,1,0.1c0.5,0,1-0.1,1.6-0.3c0.6-0.2,1.1-0.5,1.6-0.9
		c0.5-0.4,0.9-1,1.2-1.8s0.5-1.7,0.5-2.8c0-2.1-0.4-3.7-1.3-4.8s-2.1-1.7-3.8-1.7c-0.6,0-1.2,0.2-1.9,0.6s-1.1,1-1.5,1.7
		c-0.3,0.7-0.4,1.8-0.4,3.4c0,1,0,1.8,0.1,2.5c0,0.7,0.1,1.2,0.3,1.7c0.1,0.5,0.3,0.8,0.6,1.1S374.7,915,375.1,915.2z"/>
	<path d="M396.8,917.1c0,1.8-1.2,4-3.7,6.6l-1.2-1c0.7-0.6,1.2-1.3,1.6-2s0.6-1.3,0.6-1.7c0-0.2-0.1-0.4-0.3-0.6
		c-0.2-0.2-0.4-0.4-0.6-0.6c-0.2-0.2-0.4-0.4-0.6-0.6c-0.2-0.2-0.3-0.5-0.3-0.8c0-0.6,0.2-1.1,0.6-1.5c0.4-0.4,0.9-0.6,1.5-0.6
		c0.6,0,1.2,0.3,1.6,0.8C396.6,915.5,396.8,916.2,396.8,917.1z"/>
	<path d="M437.1,904.4l-1.8,2.1c-0.1-0.1-0.2-0.1-0.2-0.2s0-0.2,0-0.3c0-0.1-0.1-0.3-0.3-0.5c-0.1-0.2-0.4-0.5-0.8-0.8
		c-0.8-0.7-1.9-1-3.3-1c-0.7,0-1.3,0.1-2,0.4c-0.6,0.3-1.2,0.7-1.6,1.2c-0.5,0.5-0.8,1.2-1.1,1.9c-0.3,0.7-0.4,1.6-0.4,2.5
		c0,0.9,0.1,1.7,0.4,2.5c0.3,0.8,0.7,1.4,1.2,2s1.1,1,1.8,1.3c0.7,0.3,1.4,0.5,2.3,0.5c1.6,0,3-0.6,4.2-1.9l1.5,1.7
		c-1.6,1.7-3.5,2.5-5.8,2.5c-1.1,0-2.2-0.2-3.2-0.6s-1.8-1-2.5-1.8c-0.7-0.7-1.3-1.6-1.7-2.6c-0.4-1-0.6-2.1-0.6-3.3
		c0-1.2,0.2-2.3,0.6-3.3c0.4-1,1-1.9,1.7-2.6s1.6-1.3,2.6-1.7c1-0.4,2.1-0.6,3.2-0.6c1.3,0,2.4,0.3,3.4,0.8
		C435.6,902.8,436.4,903.5,437.1,904.4z"/>
	<path d="M449.3,917.1c0,1.8-1.2,4-3.7,6.6l-1.2-1c0.7-0.6,1.2-1.3,1.6-2s0.6-1.3,0.6-1.7c0-0.2-0.1-0.4-0.3-0.6
		c-0.2-0.2-0.4-0.4-0.6-0.6c-0.2-0.2-0.4-0.4-0.6-0.6c-0.2-0.2-0.3-0.5-0.3-0.8c0-0.6,0.2-1.1,0.6-1.5c0.4-0.4,0.9-0.6,1.5-0.6
		c0.6,0,1.2,0.3,1.6,0.8C449.1,915.5,449.3,916.2,449.3,917.1z"/>
	<path d="M486.5,904.1v-9.6h2.7c0,0.1-0.1,0.3-0.2,0.5c-0.1,0.2-0.2,0.3-0.2,0.5l0,20.8c0,0.6,0.1,1,0.2,1.5h-2.6
		c-0.1-0.3-0.1-0.7-0.1-1.2v-1.4c-0.5,0.9-1.2,1.6-2.1,2.1c-0.9,0.5-1.8,0.8-2.7,0.8c-0.9,0-1.7-0.2-2.5-0.5s-1.5-0.9-2.1-1.6
		c-0.6-0.7-1.1-1.6-1.4-2.6c-0.3-1.1-0.5-2.3-0.5-3.8c0-1.5,0.2-2.7,0.6-3.8c0.4-1,0.9-1.9,1.6-2.6c0.6-0.7,1.4-1.2,2.1-1.5
		c0.8-0.3,1.6-0.5,2.4-0.5c1.1,0,2.1,0.3,2.9,0.8C485.5,902.6,486.1,903.3,486.5,904.1z M479.2,904.6c-1,0.9-1.5,2.5-1.5,4.6
		c0,2,0.4,3.6,1.1,4.9s1.9,1.8,3.4,1.8c0.3,0,0.7-0.1,1.1-0.2c0.4-0.1,0.8-0.3,1.1-0.6c0.3-0.3,0.7-0.6,0.9-0.9
		c0.3-0.4,0.5-0.7,0.6-1.2c0.3-0.8,0.4-2,0.4-3.4c0-0.9,0-1.6-0.1-2.2s-0.2-1.1-0.3-1.5s-0.3-0.8-0.6-1c-0.2-0.3-0.5-0.5-0.9-0.7
		c-0.4-0.3-0.8-0.5-1.2-0.6c-0.4-0.1-0.7-0.2-1-0.2c-0.7,0-1.2,0.1-1.7,0.3C480.1,903.8,479.6,904.1,479.2,904.6z"/>
	<path d="M501.8,917.1c0,1.8-1.2,4-3.7,6.6l-1.2-1c0.7-0.6,1.2-1.3,1.6-2s0.6-1.3,0.6-1.7c0-0.2-0.1-0.4-0.3-0.6s-0.4-0.4-0.6-0.6
		s-0.4-0.4-0.6-0.6c-0.2-0.2-0.3-0.5-0.3-0.8c0-0.6,0.2-1.1,0.6-1.5c0.4-0.4,0.9-0.6,1.5-0.6c0.6,0,1.2,0.3,1.6,0.8
		C501.6,915.5,501.8,916.2,501.8,917.1z"/>
	<path d="M541.2,903.9l-1.5,2.2c-0.1,0-0.2-0.1-0.2-0.3s0-0.3-0.1-0.4c-0.4-0.5-1-1-1.8-1.5c-0.8-0.5-1.7-0.7-2.6-0.7
		c-0.4,0-0.9,0.1-1.3,0.2c-0.4,0.1-0.8,0.3-1.1,0.4s-0.6,0.4-0.8,0.7c-0.2,0.3-0.3,0.6-0.3,1c0,0.3,0.1,0.5,0.2,0.8
		c0.1,0.2,0.4,0.4,0.7,0.6c0.3,0.2,0.7,0.4,1.3,0.6c0.6,0.2,1.3,0.4,2.2,0.7c2,0.5,3.4,1.2,4.3,1.9c0.8,0.7,1.3,1.6,1.3,2.7
		c0,0.7-0.2,1.4-0.5,2c-0.3,0.6-0.7,1.2-1.3,1.6c-0.6,0.5-1.3,0.8-2.1,1.1c-0.8,0.3-1.7,0.4-2.8,0.4c-2.7,0-4.9-0.8-6.8-2.5l1.4-2.5
		c0.1,0.1,0.1,0.2,0.1,0.3s0.1,0.3,0.2,0.6c0.1,0.2,0.4,0.5,0.8,0.7c0.4,0.3,1,0.6,1.7,0.9c0.4,0.2,0.8,0.3,1.2,0.4
		c0.4,0.1,0.9,0.1,1.3,0.1c0.5,0,0.9-0.1,1.4-0.2s0.9-0.3,1.3-0.5c0.4-0.2,0.7-0.5,0.9-0.8s0.4-0.7,0.4-1.1c0-0.6-0.3-1.1-0.8-1.5
		c-0.6-0.4-1.6-0.9-3.1-1.3c-1-0.3-1.7-0.5-2-0.6c-0.8-0.3-1.5-0.6-1.8-0.9c-0.4-0.2-0.7-0.5-1-0.9c-0.3-0.3-0.6-0.7-0.7-1.2
		c-0.2-0.4-0.3-0.9-0.3-1.4c0-0.6,0.2-1.1,0.5-1.6c0.3-0.5,0.7-1,1.3-1.4s1.2-0.7,2-1c0.8-0.2,1.6-0.4,2.5-0.4
		C537.7,901.4,539.7,902.2,541.2,903.9z"/>
	<path d="M550.2,897.5l2.7-0.5c0,0.2,0,0.4-0.1,0.6c-0.1,0.2-0.1,0.3-0.1,0.4l-0.4,3.8h5.2v2h-5.2c-0.2,2.1-0.3,4-0.3,5.9
		c0,1.1,0,2.1,0.1,2.9c0,0.8,0.2,1.4,0.4,1.8c0.2,0.4,0.5,0.8,0.9,1c0.4,0.2,0.9,0.4,1.5,0.4c1.1,0,2.3-0.5,3.6-1.5l0.8,2
		c-1.6,1.2-3.3,1.8-5,1.8c-1.7,0-2.9-0.5-3.7-1.5c-0.8-1-1.1-2.7-1-5c0-0.8,0-1.9,0.1-3.2s0.1-2.8,0.3-4.6H546v-2h3.8L550.2,897.5z"
		/>
	<path d="M564.3,903.7c1.4-1.5,3.3-2.2,5.7-2.2c2,0,3.5,0.5,4.6,1.5c1.1,1,1.7,2.6,1.7,5v9.9h-2.4V916c-1.7,1.4-3.6,2.1-5.7,2.1
		c-0.8,0-1.6-0.1-2.3-0.4c-0.7-0.3-1.2-0.6-1.7-1c-0.5-0.4-0.8-0.9-1.1-1.4c-0.2-0.5-0.4-1.1-0.4-1.6c0-1.6,0.7-2.9,2.1-3.8
		c1.4-0.9,3.4-1.4,6-1.5h3v-0.6c0-1.6-0.3-2.7-1-3.3c-0.7-0.6-1.7-1-3.1-1c-1.7,0-3.2,0.6-4.3,1.8L564.3,903.7z M574,910.3h-0.6
		c-0.3,0-0.6,0-0.9,0c-0.3,0-0.6,0-0.9,0c-1.3,0-2.3,0.1-3.2,0.3c-0.8,0.2-1.5,0.4-1.9,0.7c-0.5,0.3-0.8,0.6-1,1
		c-0.2,0.4-0.3,0.8-0.3,1.2c0,0.7,0.3,1.4,1,1.9c0.7,0.5,1.5,0.8,2.4,0.8c0.7,0,1.3-0.1,1.9-0.3c0.6-0.2,1.1-0.5,1.5-0.8
		c0.4-0.3,0.8-0.6,1-1c0.3-0.3,0.4-0.6,0.6-0.9c0.2-0.5,0.3-1.1,0.3-1.9V910.3z"/>
	<path d="M582.1,901.8h2.6l-0.1,3.1c0.5-1.1,1.3-2,2.3-2.6c1.1-0.6,2.2-0.9,3.4-0.9c1.7,0,3.2,0.6,4.3,1.8l-1.2,2.4
		c-0.3-0.3-0.5-0.6-0.7-0.9c-0.2-0.2-0.4-0.4-0.7-0.6s-0.5-0.3-0.8-0.4c-0.3-0.1-0.7-0.1-1.1-0.1c-0.8,0-1.5,0.2-2.2,0.5
		c-0.7,0.4-1.3,0.8-1.8,1.4c-0.5,0.6-0.9,1.3-1.2,2c-0.3,0.8-0.5,1.6-0.5,2.4v7.8h-2.5V901.8z"/>
	<path d="M602.7,897.5l2.7-0.5c0,0.2,0,0.4-0.1,0.6c-0.1,0.2-0.1,0.3-0.1,0.4l-0.4,3.8h5.2v2h-5.2c-0.2,2.1-0.3,4-0.3,5.9
		c0,1.1,0,2.1,0.1,2.9c0,0.8,0.2,1.4,0.4,1.8c0.2,0.4,0.5,0.8,0.9,1c0.4,0.2,0.9,0.4,1.5,0.4c1.1,0,2.3-0.5,3.6-1.5l0.8,2
		c-1.6,1.2-3.3,1.8-5,1.8c-1.7,0-2.9-0.5-3.7-1.5c-0.8-1-1.1-2.7-1-5c0-0.8,0-1.9,0.1-3.2s0.1-2.8,0.3-4.6h-3.7v-2h3.8L602.7,897.5z
		"/>
	<path d="M624.3,917.1c0,1.8-1.2,4-3.7,6.6l-1.2-1c0.7-0.6,1.2-1.3,1.6-2s0.6-1.3,0.6-1.7c0-0.2-0.1-0.4-0.3-0.6s-0.4-0.4-0.6-0.6
		s-0.4-0.4-0.6-0.6c-0.2-0.2-0.3-0.5-0.3-0.8c0-0.6,0.2-1.1,0.6-1.5c0.4-0.4,0.9-0.6,1.5-0.6c0.6,0,1.2,0.3,1.6,0.8
		C624.1,915.5,624.3,916.2,624.3,917.1z"/>
	<path d="M663.7,903.9l-1.5,2.2c-0.1,0-0.2-0.1-0.2-0.3s0-0.3-0.1-0.4c-0.4-0.5-1-1-1.8-1.5c-0.8-0.5-1.7-0.7-2.6-0.7
		c-0.4,0-0.9,0.1-1.3,0.2c-0.4,0.1-0.8,0.3-1.1,0.4s-0.6,0.4-0.8,0.7c-0.2,0.3-0.3,0.6-0.3,1c0,0.3,0.1,0.5,0.2,0.8
		c0.1,0.2,0.4,0.4,0.7,0.6c0.3,0.2,0.7,0.4,1.3,0.6c0.6,0.2,1.3,0.4,2.2,0.7c2,0.5,3.4,1.2,4.3,1.9c0.8,0.7,1.3,1.6,1.3,2.7
		c0,0.7-0.2,1.4-0.5,2c-0.3,0.6-0.7,1.2-1.3,1.6c-0.6,0.5-1.3,0.8-2.1,1.1c-0.8,0.3-1.7,0.4-2.8,0.4c-2.7,0-4.9-0.8-6.8-2.5l1.4-2.5
		c0.1,0.1,0.1,0.2,0.1,0.3s0.1,0.3,0.2,0.6c0.1,0.2,0.4,0.5,0.8,0.7c0.4,0.3,1,0.6,1.7,0.9c0.4,0.2,0.8,0.3,1.2,0.4
		c0.4,0.1,0.9,0.1,1.3,0.1c0.5,0,0.9-0.1,1.4-0.2s0.9-0.3,1.3-0.5c0.4-0.2,0.7-0.5,0.9-0.8s0.4-0.7,0.4-1.1c0-0.6-0.3-1.1-0.8-1.5
		c-0.6-0.4-1.6-0.9-3.1-1.3c-1-0.3-1.7-0.5-2-0.6c-0.8-0.3-1.5-0.6-1.8-0.9c-0.4-0.2-0.7-0.5-1-0.9c-0.3-0.3-0.6-0.7-0.7-1.2
		c-0.2-0.4-0.3-0.9-0.3-1.4c0-0.6,0.2-1.1,0.5-1.6c0.3-0.5,0.7-1,1.3-1.4s1.2-0.7,2-1c0.8-0.2,1.6-0.4,2.5-0.4
		C660.2,901.4,662.2,902.2,663.7,903.9z"/>
	<path d="M672.7,897.5l2.7-0.5c0,0.2,0,0.4-0.1,0.6c-0.1,0.2-0.1,0.3-0.1,0.4l-0.4,3.8h5.2v2h-5.2c-0.2,2.1-0.3,4-0.3,5.9
		c0,1.1,0,2.1,0.1,2.9c0,0.8,0.2,1.4,0.4,1.8c0.2,0.4,0.5,0.8,0.9,1c0.4,0.2,0.9,0.4,1.5,0.4c1.1,0,2.3-0.5,3.6-1.5l0.8,2
		c-1.6,1.2-3.3,1.8-5,1.8c-1.7,0-2.9-0.5-3.7-1.5c-0.8-1-1.1-2.7-1-5c0-0.8,0-1.9,0.1-3.2s0.1-2.8,0.3-4.6h-3.7v-2h3.8L672.7,897.5z
		"/>
	<path d="M692.5,901.4c1,0,1.9,0.2,2.8,0.6c0.9,0.4,1.6,0.9,2.3,1.7s1.2,1.6,1.6,2.6s0.6,2.2,0.6,3.5c0,1.3-0.2,2.5-0.6,3.5
		c-0.4,1-0.9,1.9-1.5,2.6c-0.7,0.7-1.4,1.3-2.3,1.7c-0.9,0.4-1.8,0.6-2.8,0.6c-1,0-2-0.2-2.9-0.6c-0.9-0.4-1.7-1-2.4-1.7
		c-0.7-0.7-1.2-1.6-1.6-2.6c-0.4-1-0.6-2.1-0.6-3.3c0-1.2,0.2-2.3,0.6-3.4c0.4-1,1-1.9,1.6-2.7s1.5-1.3,2.4-1.8
		S691.5,901.4,692.5,901.4z M697.2,909.8c0-1-0.1-1.9-0.4-2.7c-0.3-0.8-0.6-1.4-1.1-2c-0.4-0.5-1-0.9-1.5-1.2
		c-0.6-0.3-1.2-0.4-1.8-0.4s-1.2,0.1-1.8,0.4c-0.6,0.3-1.1,0.7-1.5,1.2s-0.8,1.2-1,1.9c-0.3,0.8-0.4,1.6-0.4,2.6
		c0,0.9,0.1,1.8,0.4,2.6c0.3,0.8,0.6,1.4,1,2c0.4,0.6,0.9,1,1.5,1.3c0.6,0.3,1.2,0.5,1.9,0.5c0.7,0,1.3-0.1,1.8-0.4
		c0.6-0.3,1.1-0.7,1.5-1.2c0.4-0.5,0.8-1.2,1-1.9C697,911.7,697.2,910.8,697.2,909.8z"/>
	<path d="M703.2,901.8h2.5v2.5c0.5-0.9,1.3-1.5,2.2-2c0.9-0.5,1.8-0.8,2.7-0.8c0.9,0,1.7,0.2,2.6,0.5s1.5,0.8,2.1,1.5
		c0.6,0.7,1.1,1.5,1.5,2.6c0.4,1,0.5,2.2,0.5,3.6c0,1.4-0.2,2.6-0.6,3.7c-0.4,1.1-0.9,2-1.5,2.7c-0.6,0.7-1.4,1.2-2.2,1.6
		c-0.8,0.4-1.6,0.5-2.5,0.5c-1,0-1.9-0.2-2.7-0.7c-0.8-0.4-1.5-1.1-2.1-1.9v7.9h-2.5V901.8z M705.7,911.1c0,1.7,0.4,2.9,1.2,3.7
		c0.8,0.7,1.7,1.1,2.8,1.1c0.6,0,1.2-0.1,1.8-0.3s1.1-0.5,1.6-1c0.5-0.5,0.9-1,1.2-1.8c0.3-0.7,0.4-1.7,0.4-2.8c0-2-0.4-3.6-1.3-4.8
		c-0.9-1.1-2.1-1.7-3.6-1.8c-0.5,0-1,0.1-1.4,0.2c-0.5,0.2-0.9,0.4-1.3,0.8c-0.4,0.4-0.7,0.9-1,1.6s-0.4,1.5-0.4,2.5V911.1z"/>
	<path d="M721.3,896.7l0.7-2.2c1.4,0.7,2.7,1.5,3.9,2.5c1.2,1,2.2,2.2,3,3.4c0.8,1.3,1.4,2.6,1.9,4.1c0.4,1.5,0.7,3,0.7,4.5
		c0,1.6-0.2,3.1-0.7,4.6c-0.5,1.5-1.1,2.9-1.9,4.2c-0.8,1.3-1.8,2.5-3,3.5c-1.2,1-2.5,1.9-3.9,2.6l-0.7-2.1c1.2-0.6,2.2-1.4,3.2-2.3
		s1.7-1.9,2.4-3c0.7-1.1,1.2-2.3,1.6-3.5c0.4-1.2,0.5-2.5,0.5-3.8s-0.2-2.6-0.5-3.8c-0.4-1.2-0.9-2.4-1.5-3.5s-1.4-2.1-2.4-2.9
		C723.5,898,722.4,897.3,721.3,896.7z"/>
	<path d="M746.8,917.1c0,1.8-1.2,4-3.7,6.6l-1.2-1c0.7-0.6,1.2-1.3,1.6-2s0.6-1.3,0.6-1.7c0-0.2-0.1-0.4-0.3-0.6s-0.4-0.4-0.6-0.6
		s-0.4-0.4-0.6-0.6c-0.2-0.2-0.3-0.5-0.3-0.8c0-0.6,0.2-1.1,0.6-1.5c0.4-0.4,0.9-0.6,1.5-0.6c0.6,0,1.2,0.3,1.6,0.8
		C746.6,915.5,746.8,916.2,746.8,917.1z M745.9,903.5c0.4,0.4,0.6,0.9,0.6,1.4s-0.2,1-0.6,1.4c-0.4,0.4-0.9,0.6-1.5,0.6
		c-0.5,0-1-0.2-1.4-0.6c-0.4-0.4-0.6-0.9-0.6-1.4c0-0.6,0.2-1,0.6-1.4c0.4-0.4,0.9-0.6,1.4-0.6C745,903,745.4,903.1,745.9,903.5z"/>
</g>
<path class="st1" d="M480.6,412.4V90c-178.1,0-322.4,144.4-322.4,322.4s144.4,322.4,322.4,322.4c119.2,0,223.3-64.7,279.1-160.9
	L480.6,412.4z"/>
<g>
	<path d="M605.4,447.6l-2.4,1.2c-0.1-0.1-0.1-0.2,0-0.3c0.1-0.1,0.1-0.3,0.1-0.3c-0.1-0.7-0.4-1.4-0.8-2.2c-0.4-0.8-1.1-1.4-2-1.9
		c-0.4-0.2-0.8-0.4-1.2-0.5c-0.4-0.1-0.8-0.2-1.2-0.2c-0.4,0-0.7,0.1-1,0.2s-0.6,0.4-0.7,0.7c-0.1,0.2-0.2,0.5-0.2,0.8
		c0,0.3,0.1,0.6,0.3,0.9s0.4,0.7,0.8,1.2c0.4,0.5,0.9,1,1.5,1.7c1.5,1.5,2.4,2.7,2.8,3.8c0.4,1.1,0.3,2-0.3,3
		c-0.3,0.6-0.8,1.1-1.4,1.5c-0.6,0.4-1.2,0.7-2,0.8c-0.7,0.1-1.5,0.1-2.4-0.1c-0.8-0.2-1.7-0.5-2.6-1c-2.3-1.3-3.9-3.2-4.6-5.5
		l2.5-1.5c0,0.1,0,0.2,0,0.4c-0.1,0.1-0.1,0.3-0.1,0.6c0,0.3,0.1,0.6,0.3,1c0.2,0.4,0.5,1,1,1.7c0.2,0.3,0.5,0.6,0.9,0.9
		c0.4,0.3,0.7,0.5,1.1,0.8c0.4,0.2,0.8,0.4,1.3,0.6c0.5,0.1,0.9,0.2,1.4,0.2s0.9-0.1,1.2-0.2c0.4-0.2,0.6-0.4,0.8-0.8
		c0.3-0.5,0.3-1.1,0-1.8c-0.3-0.6-1-1.5-2-2.7c-0.7-0.8-1.2-1.3-1.5-1.6c-0.6-0.7-1-1.3-1.2-1.7s-0.4-0.8-0.5-1.3
		c-0.1-0.4-0.1-0.9-0.1-1.4c0.1-0.5,0.2-0.9,0.5-1.4c0.3-0.5,0.7-0.9,1.2-1.2s1.1-0.5,1.8-0.6c0.7-0.1,1.4,0,2.2,0.1
		c0.8,0.2,1.6,0.5,2.3,0.9C603.7,443.7,605,445.4,605.4,447.6z"/>
	<path d="M616.4,446.5l2.6,1c-0.1,0.2-0.2,0.3-0.4,0.4c-0.1,0.1-0.2,0.2-0.3,0.3l-2.2,3.1l4.6,2.6l-1,1.8l-4.6-2.6
		c-1.2,1.7-2.3,3.4-3.2,4.9c-0.6,1-1,1.8-1.4,2.5s-0.5,1.3-0.6,1.8c0,0.5,0,0.9,0.2,1.3c0.2,0.4,0.6,0.8,1.1,1.1
		c0.9,0.5,2.2,0.7,3.8,0.5l-0.3,2.1c-2,0.2-3.7-0.1-5.2-0.9c-1.5-0.8-2.3-1.9-2.4-3.2c-0.2-1.3,0.4-2.9,1.6-4.8
		c0.4-0.7,1-1.7,1.7-2.8c0.7-1.1,1.5-2.4,2.5-3.8l-3.2-1.9l1-1.8l3.3,1.9L616.4,446.5z"/>
	<path d="M625.6,458.8c2-0.6,4-0.3,6.1,0.9c1.7,1,2.8,2.2,3.3,3.6c0.5,1.4,0.2,3.1-1,5.1l-4.9,8.6l-2.1-1.2l0.9-1.5
		c-2.2,0.4-4.2,0.1-6-1c-0.7-0.4-1.3-0.9-1.8-1.5c-0.4-0.6-0.8-1.1-1-1.7s-0.3-1.2-0.2-1.8c0.1-0.6,0.2-1.1,0.5-1.6
		c0.8-1.4,2-2.2,3.7-2.3c1.7-0.1,3.7,0.4,6,1.6l2.6,1.5l0.3-0.5c0.8-1.4,1.1-2.5,0.8-3.4c-0.3-0.9-1-1.7-2.2-2.4
		c-1.5-0.9-3-1-4.6-0.6L625.6,458.8z M630.7,469.4l-0.5-0.3c-0.3-0.2-0.5-0.3-0.8-0.5c-0.2-0.2-0.5-0.3-0.7-0.4
		c-1.1-0.6-2.1-1.1-2.9-1.3c-0.8-0.3-1.5-0.4-2-0.3c-0.6,0-1,0.2-1.3,0.4c-0.3,0.2-0.6,0.6-0.8,0.9c-0.4,0.6-0.4,1.4-0.1,2.2
		c0.3,0.8,0.9,1.4,1.7,1.9c0.6,0.3,1.2,0.6,1.8,0.7c0.6,0.1,1.2,0.1,1.7,0c0.5-0.1,1-0.2,1.4-0.3c0.4-0.2,0.7-0.3,0.9-0.5
		c0.4-0.3,0.8-0.8,1.2-1.5L630.7,469.4z"/>
	<path d="M641.9,466l2.2,1.3l-1.6,2.6c1-0.7,2.1-1.1,3.3-1.1s2.4,0.3,3.4,0.9c1.5,0.9,2.5,2.1,2.8,3.6L650,475
		c0-0.4-0.1-0.8-0.2-1.1c-0.1-0.3-0.2-0.6-0.3-0.9c-0.1-0.3-0.3-0.5-0.5-0.7s-0.5-0.4-0.9-0.7c-0.7-0.4-1.4-0.6-2.2-0.6
		c-0.8,0-1.5,0.1-2.3,0.4c-0.7,0.3-1.4,0.7-2.1,1.2c-0.6,0.5-1.2,1.1-1.6,1.9l-3.9,6.8L634,480L641.9,466z"/>
	<path d="M661.9,472.6l2.6,1c-0.1,0.2-0.2,0.3-0.4,0.4c-0.1,0.1-0.2,0.2-0.3,0.3l-2.2,3.1l4.6,2.6l-1,1.8l-4.6-2.6
		c-1.2,1.7-2.3,3.4-3.2,4.9c-0.6,1-1,1.8-1.4,2.5s-0.5,1.3-0.6,1.8c0,0.5,0,0.9,0.2,1.3c0.2,0.4,0.6,0.8,1.1,1.1
		c0.9,0.5,2.2,0.7,3.8,0.5l-0.3,2.1c-2,0.2-3.7-0.1-5.2-0.9c-1.5-0.8-2.3-1.9-2.4-3.2c-0.2-1.3,0.4-2.9,1.6-4.8
		c0.4-0.7,1-1.7,1.7-2.8c0.7-1.1,1.5-2.4,2.5-3.8l-3.2-1.9l1-1.8l3.3,1.9L661.9,472.6z"/>
</g>
<g>
	<path d="M501,288.6l2.2,1.5c0,0.1-0.1,0.2-0.3,0.2c-0.2,0-0.3,0-0.4,0.1c-0.5,0.4-1,1-1.5,1.8c-0.5,0.8-0.7,1.7-0.7,2.6
		c0,0.4,0.1,0.9,0.2,1.3s0.3,0.8,0.4,1.1c0.2,0.3,0.4,0.6,0.7,0.8c0.3,0.2,0.6,0.3,1,0.3c0.3,0,0.5-0.1,0.8-0.2
		c0.2-0.1,0.4-0.4,0.6-0.7c0.2-0.3,0.4-0.7,0.6-1.3c0.2-0.6,0.4-1.3,0.7-2.2c0.5-2,1.2-3.4,1.9-4.3c0.7-0.8,1.6-1.3,2.7-1.3
		c0.7,0,1.4,0.2,2,0.5c0.6,0.3,1.2,0.7,1.6,1.3c0.5,0.6,0.8,1.3,1.1,2.1c0.3,0.8,0.4,1.7,0.4,2.8c0,2.7-0.8,4.9-2.5,6.8l-2.5-1.4
		c0.1-0.1,0.2-0.1,0.3-0.1c0.2,0,0.3-0.1,0.6-0.2c0.2-0.1,0.5-0.4,0.7-0.8c0.3-0.4,0.6-1,0.9-1.7c0.2-0.4,0.3-0.8,0.4-1.2
		c0.1-0.4,0.1-0.9,0.1-1.3c0-0.5-0.1-0.9-0.2-1.4c-0.1-0.5-0.3-0.9-0.5-1.3s-0.5-0.7-0.8-0.9c-0.3-0.2-0.7-0.4-1.1-0.4
		c-0.6,0-1.1,0.3-1.5,0.8c-0.4,0.6-0.9,1.6-1.3,3.1c-0.3,1-0.5,1.7-0.6,2c-0.3,0.8-0.6,1.5-0.9,1.8s-0.5,0.7-0.9,1
		c-0.3,0.3-0.7,0.6-1.2,0.7c-0.4,0.2-0.9,0.3-1.4,0.3c-0.6,0-1.1-0.2-1.6-0.5s-1-0.7-1.4-1.3c-0.4-0.5-0.7-1.2-1-2
		c-0.2-0.8-0.4-1.6-0.4-2.5C498.5,292.1,499.3,290.1,501,288.6z"/>
	<path d="M494.6,279.6l-0.5-2.7c0.2,0,0.4,0,0.6,0.1c0.2,0.1,0.3,0.1,0.4,0.1l3.8,0.4v-5.2h2v5.2c2.1,0.2,4,0.3,5.9,0.3
		c1.1,0,2.1,0,2.9-0.1s1.4-0.2,1.8-0.4c0.4-0.2,0.8-0.5,1-0.9c0.2-0.4,0.4-0.9,0.4-1.5c0-1.1-0.5-2.3-1.5-3.6l2-0.8
		c1.2,1.6,1.8,3.3,1.8,5c0,1.7-0.5,2.9-1.5,3.7c-1,0.8-2.7,1.1-5,1c-0.8,0-1.9,0-3.2-0.1c-1.3,0-2.8-0.1-4.6-0.3v3.7h-2v-3.8
		L494.6,279.6z"/>
	<path d="M498.5,259.8c0-1,0.2-1.9,0.6-2.8c0.4-0.9,0.9-1.6,1.7-2.3c0.7-0.7,1.6-1.2,2.6-1.6c1-0.4,2.2-0.6,3.5-0.6
		c1.3,0,2.5,0.2,3.5,0.6c1,0.4,1.9,0.9,2.6,1.5c0.7,0.7,1.3,1.4,1.7,2.3c0.4,0.9,0.6,1.8,0.6,2.8c0,1-0.2,2-0.6,2.9
		c-0.4,0.9-1,1.7-1.7,2.4c-0.7,0.7-1.6,1.2-2.6,1.6c-1,0.4-2.1,0.6-3.3,0.6s-2.3-0.2-3.4-0.6c-1-0.4-1.9-1-2.7-1.6
		c-0.7-0.7-1.3-1.5-1.8-2.4C498.8,261.8,498.5,260.8,498.5,259.8z M507,255.1c-1,0-1.9,0.1-2.7,0.4c-0.8,0.3-1.4,0.6-2,1.1
		c-0.5,0.4-0.9,1-1.2,1.5c-0.3,0.6-0.4,1.2-0.4,1.8c0,0.6,0.1,1.2,0.4,1.8c0.3,0.6,0.7,1.1,1.2,1.5c0.5,0.4,1.2,0.8,1.9,1
		c0.8,0.3,1.6,0.4,2.6,0.4c0.9,0,1.8-0.1,2.6-0.4s1.4-0.6,2-1c0.6-0.4,1-0.9,1.3-1.5c0.3-0.6,0.5-1.2,0.5-1.9c0-0.7-0.1-1.3-0.4-1.8
		c-0.3-0.6-0.7-1.1-1.2-1.5c-0.5-0.4-1.2-0.8-1.9-1S508,255.1,507,255.1z"/>
	<path d="M498.9,249.1v-2.5h2.5c-0.9-0.5-1.5-1.3-2-2.2c-0.5-0.9-0.8-1.8-0.8-2.7c0-0.9,0.2-1.7,0.5-2.6c0.3-0.8,0.8-1.5,1.5-2.1
		c0.7-0.6,1.5-1.1,2.6-1.5c1-0.4,2.2-0.5,3.6-0.5s2.6,0.2,3.7,0.6c1.1,0.4,2,0.9,2.7,1.5c0.7,0.6,1.2,1.4,1.6,2.2s0.5,1.6,0.5,2.5
		c0,1-0.2,1.9-0.7,2.7c-0.4,0.8-1.1,1.5-1.9,2.1h7.9v2.5H498.9z M508.2,246.6c1.7,0,2.9-0.4,3.7-1.2s1.1-1.7,1.1-2.8
		c0-0.6-0.1-1.2-0.3-1.8c-0.2-0.6-0.5-1.1-1-1.6c-0.5-0.5-1-0.9-1.8-1.2s-1.7-0.4-2.8-0.4c-2,0-3.6,0.4-4.8,1.3
		c-1.1,0.9-1.7,2.1-1.8,3.6c0,0.5,0.1,1,0.2,1.4c0.2,0.5,0.4,0.9,0.8,1.3c0.4,0.4,0.9,0.7,1.6,1c0.7,0.2,1.5,0.4,2.5,0.4H508.2z"/>
</g>
<g>
	<g>
		<line class="st6" x1="816.2" y1="100.5" x2="816.2" y2="724.3"/>
		<g>
			<polygon class="st3" points="808.9,102.7 816.2,90 823.5,102.7 			"/>
		</g>
		<g>
			<polygon class="st3" points="808.9,722.2 816.2,734.8 823.5,722.2 			"/>
		</g>
	</g>
</g>
<g>
	<g>
		<line class="st7" x1="745.6" y1="775.9" x2="172.3" y2="775.9"/>
		<g>
			<polygon class="st3" points="742.7,766.1 759.7,775.9 742.7,785.7 			"/>
		</g>
		<g>
			<polygon class="st3" points="175.1,766.1 158.2,775.9 175.1,785.7 			"/>
		</g>
	</g>
</g>
<circle cx="480.8" cy="412.4" r="5"/>
<g>
	<path d="M419.6,435.1l-0.4,0c-0.1,0-0.2,0-0.3,0.1c-2.1,1.2-3.7,2.9-4.8,5c-1.1,2.1-1.7,4.5-1.7,7.1c0,1.3,0.2,2.6,0.5,3.9
		c0.3,1.3,0.9,2.5,1.5,3.6c0.7,1.2,1.5,2.2,2.4,3.2s2,1.8,3.2,2.5l-1.1,1.9c-1.4-0.7-2.6-1.6-3.7-2.7c-1.1-1.1-2-2.2-2.8-3.6
		c-0.8-1.3-1.3-2.7-1.8-4.2c-0.4-1.5-0.6-3.1-0.6-4.6s0.2-3.1,0.6-4.6c0.4-1.5,1-2.8,1.8-4.1c0.8-1.2,1.7-2.4,2.8-3.3
		c1.1-1,2.3-1.7,3.7-2.3l1,2.1C419.7,435,419.6,435.1,419.6,435.1z"/>
	<path d="M425.8,442.1c1.4-1.5,3.3-2.2,5.7-2.2c2,0,3.5,0.5,4.6,1.5c1.1,1,1.7,2.6,1.7,5v9.9h-2.4v-1.8c-1.7,1.4-3.6,2.1-5.7,2.1
		c-0.8,0-1.6-0.1-2.3-0.4s-1.2-0.6-1.7-1s-0.8-0.9-1.1-1.4c-0.2-0.5-0.4-1.1-0.4-1.6c0-1.6,0.7-2.9,2.1-3.8c1.4-0.9,3.4-1.4,6-1.5h3
		v-0.6c0-1.6-0.3-2.7-1-3.3s-1.7-1-3.1-1c-1.7,0-3.2,0.6-4.3,1.8L425.8,442.1z M435.5,448.7h-0.6c-0.3,0-0.6,0-0.9,0
		c-0.3,0-0.6,0-0.9,0c-1.3,0-2.3,0.1-3.2,0.3c-0.8,0.2-1.5,0.4-1.9,0.7c-0.5,0.3-0.8,0.6-1,1c-0.2,0.4-0.3,0.8-0.3,1.2
		c0,0.7,0.3,1.4,1,1.9c0.7,0.5,1.5,0.8,2.4,0.8c0.7,0,1.3-0.1,1.9-0.3c0.6-0.2,1-0.5,1.5-0.8c0.4-0.3,0.8-0.6,1-1
		c0.3-0.3,0.4-0.6,0.6-0.9c0.2-0.5,0.4-1.1,0.4-1.9V448.7z"/>
	<path d="M450.8,455.5c0,1.8-1.2,4-3.7,6.6l-1.2-1c0.7-0.6,1.2-1.3,1.6-2c0.4-0.7,0.6-1.3,0.6-1.7c0-0.2-0.1-0.4-0.3-0.6
		c-0.2-0.2-0.4-0.4-0.6-0.6c-0.2-0.2-0.4-0.4-0.6-0.6c-0.2-0.2-0.3-0.5-0.3-0.8c0-0.6,0.2-1.1,0.6-1.5c0.4-0.4,0.9-0.6,1.5-0.6
		c0.6,0,1.2,0.3,1.6,0.8C450.5,453.9,450.8,454.6,450.8,455.5z"/>
	<path d="M477.2,432.9h2.9v0.1c0,0.1-0.1,0.2-0.2,0.3c-0.1,0.1-0.2,0.2-0.2,0.4v9c0.5-0.9,1.2-1.6,2.1-2.1s1.8-0.8,2.7-0.8
		c0.9,0,1.7,0.2,2.5,0.5c0.8,0.3,1.5,0.9,2.1,1.5c0.6,0.7,1.1,1.5,1.4,2.6s0.5,2.2,0.5,3.6c0,1.4-0.2,2.7-0.6,3.8
		c-0.4,1.1-0.9,1.9-1.5,2.7c-0.6,0.7-1.3,1.2-2.1,1.6c-0.8,0.4-1.6,0.5-2.5,0.5c-1,0-1.9-0.2-2.7-0.7c-0.8-0.4-1.5-1.1-2-1.8
		l-0.9,2.1h-1.6V432.9z M481.5,453.7c0.4,0.2,0.8,0.4,1.2,0.5s0.7,0.1,1,0.1c0.5,0,1-0.1,1.6-0.3c0.6-0.2,1.1-0.5,1.6-0.9
		c0.5-0.4,0.9-1,1.2-1.8c0.3-0.7,0.5-1.7,0.5-2.8c0-2.1-0.4-3.7-1.3-4.8c-0.9-1.1-2.1-1.7-3.8-1.7c-0.6,0-1.2,0.2-1.9,0.6
		c-0.7,0.4-1.1,1-1.5,1.7c-0.3,0.7-0.4,1.8-0.4,3.4c0,1,0,1.8,0.1,2.5c0,0.7,0.1,1.2,0.3,1.7c0.1,0.5,0.3,0.8,0.6,1.1
		C480.9,453.2,481.2,453.4,481.5,453.7z"/>
	<path d="M495.3,435.1l0.7-2.2c1.4,0.7,2.7,1.5,3.9,2.5c1.2,1,2.2,2.2,3,3.4c0.8,1.3,1.4,2.6,1.9,4.1c0.4,1.5,0.7,3,0.7,4.5
		c0,1.6-0.2,3.1-0.7,4.6c-0.5,1.5-1.1,2.9-1.9,4.2s-1.8,2.5-3,3.5c-1.2,1-2.5,1.9-3.9,2.6l-0.7-2.1c1.2-0.6,2.2-1.4,3.2-2.3
		c0.9-0.9,1.7-1.9,2.4-3c0.7-1.1,1.2-2.3,1.6-3.5c0.4-1.2,0.5-2.5,0.5-3.8c0-1.3-0.2-2.6-0.5-3.8c-0.4-1.2-0.9-2.4-1.5-3.5
		c-0.6-1.1-1.4-2.1-2.4-2.9C497.4,436.4,496.4,435.7,495.3,435.1z"/>
</g>
<g>
	<path d="M842.8,409.3v-9.6h2.7c0,0.1-0.1,0.3-0.2,0.5c-0.1,0.2-0.2,0.3-0.2,0.5l0,20.8c0,0.6,0.1,1.1,0.2,1.5h-2.6
		c-0.1-0.3-0.1-0.7-0.1-1.2v-1.4c-0.5,0.9-1.2,1.6-2.1,2.1s-1.8,0.8-2.7,0.8c-0.9,0-1.7-0.2-2.5-0.5c-0.8-0.4-1.5-0.9-2.1-1.6
		c-0.6-0.7-1.1-1.6-1.4-2.6c-0.3-1.1-0.5-2.3-0.5-3.8c0-1.5,0.2-2.7,0.6-3.8c0.4-1,0.9-1.9,1.6-2.6s1.4-1.2,2.1-1.5
		c0.8-0.3,1.6-0.5,2.4-0.5c1.1,0,2.1,0.3,2.9,0.8C841.8,407.8,842.4,408.5,842.8,409.3z M835.4,409.8c-1,0.9-1.5,2.5-1.5,4.6
		c0,2,0.4,3.6,1.1,4.9c0.8,1.2,1.9,1.8,3.4,1.8c0.3,0,0.7-0.1,1.1-0.2s0.8-0.3,1.1-0.6s0.7-0.6,0.9-0.9c0.3-0.4,0.5-0.7,0.6-1.2
		c0.3-0.8,0.4-2,0.4-3.4c0-0.9,0-1.6-0.1-2.2c-0.1-0.6-0.2-1.1-0.3-1.5c-0.1-0.4-0.3-0.8-0.6-1s-0.5-0.5-0.9-0.7
		c-0.4-0.3-0.8-0.5-1.2-0.6c-0.4-0.1-0.7-0.2-1-0.2c-0.7,0-1.2,0.1-1.7,0.3S835.9,409.3,835.4,409.8z"/>
</g>
<g>
	<path d="M465.2,795.9l-1.8,2.1c-0.1-0.1-0.2-0.1-0.2-0.2s0-0.2,0-0.3c0-0.1-0.1-0.3-0.3-0.5c-0.1-0.2-0.4-0.5-0.8-0.8
		c-0.8-0.7-1.9-1-3.3-1c-0.7,0-1.3,0.1-2,0.4c-0.6,0.3-1.2,0.7-1.6,1.2c-0.5,0.5-0.8,1.2-1.1,1.9c-0.3,0.7-0.4,1.6-0.4,2.5
		c0,0.9,0.1,1.7,0.4,2.5c0.3,0.8,0.7,1.4,1.2,2s1.1,1,1.8,1.3c0.7,0.3,1.4,0.5,2.3,0.5c1.6,0,3-0.6,4.2-1.9l1.5,1.7
		c-1.6,1.7-3.5,2.5-5.8,2.5c-1.1,0-2.2-0.2-3.2-0.6s-1.8-1-2.5-1.8c-0.7-0.7-1.3-1.6-1.7-2.6c-0.4-1-0.6-2.1-0.6-3.3
		c0-1.2,0.2-2.3,0.6-3.3c0.4-1,1-1.9,1.7-2.6s1.6-1.3,2.6-1.7c1-0.4,2.1-0.6,3.2-0.6c1.3,0,2.4,0.3,3.4,0.8
		C463.7,794.2,464.5,794.9,465.2,795.9z"/>
</g>
</svg>
