<?xml version="1.0" encoding="utf-8"?>
<!-- Generator: Adobe Illustrator 19.2.1, SVG Export Plug-In . SVG Version: 6.00 Build 0)  -->
<svg version="1.1" id="Layer_1" xmlns="http://www.w3.org/2000/svg" xmlns:xlink="http://www.w3.org/1999/xlink" x="0px" y="0px"
	 viewBox="0 0 1000 1000" style="enable-background:new 0 0 1000 1000;" xml:space="preserve">
<style type="text/css">
	.st0{fill:none;stroke:#58595B;stroke-width:3;stroke-miterlimit:10;}
	.st1{fill:#FFFFFF;stroke:#000000;stroke-width:1.5;stroke-miterlimit:10;}
	.st2{fill:none;stroke:#58595B;stroke-width:1.5;stroke-miterlimit:10;}
	.st3{fill:#58595B;}
	.st4{fill:none;stroke:#58595B;stroke-width:4.2426;stroke-miterlimit:10;}
	.st5{fill:#FFFFFF;stroke:#000000;stroke-width:1.4591;stroke-miterlimit:10;}
	.st6{fill:none;stroke:#58595B;stroke-width:1.4661;stroke-miterlimit:10;}
	.st7{fill:none;stroke:#58595B;stroke-width:1.9664;stroke-miterlimit:10;}
	.st8{fill:none;stroke:#000000;stroke-width:1.5;stroke-miterlimit:10;}
	.st9{fill:none;stroke:#000000;stroke-width:1.5886;stroke-miterlimit:10;}
	.st10{fill:none;stroke:#000000;stroke-width:1.5964;stroke-miterlimit:10;}
</style>
<rect class="st0" width="1000" height="1000"/>
<g>
	<path d="M332.8,901.4c0.8,0,1.7,0.2,2.5,0.5c0.8,0.3,1.5,0.8,2.1,1.4c0.6,0.6,1.1,1.4,1.4,2.4c0.4,1,0.5,2.1,0.5,3.4
		c0,0.2,0,0.4,0,0.6c0,0.2,0,0.4-0.1,0.6h-11.4c0,1.1,0.2,2.1,0.6,2.8c0.3,0.8,0.8,1.4,1.3,1.8c0.5,0.5,1.1,0.8,1.7,1
		c0.6,0.2,1.3,0.3,1.9,0.3c1.7,0,3-0.6,4.1-1.8l1.4,1.4c-1.4,1.6-3.2,2.5-5.6,2.5c-1.2,0-2.2-0.2-3.2-0.5c-1-0.4-1.8-0.9-2.5-1.6
		c-0.7-0.7-1.2-1.6-1.6-2.6c-0.4-1-0.6-2.2-0.6-3.6c0-1.4,0.2-2.6,0.6-3.6c0.4-1.1,0.9-1.9,1.6-2.6c0.7-0.7,1.4-1.3,2.3-1.6
		C330.8,901.6,331.8,901.4,332.8,901.4z M328,908.1h8.8c0-0.1,0-0.2,0-0.3c0-0.1,0-0.2,0-0.3c0-0.6-0.1-1.1-0.3-1.6
		c-0.2-0.5-0.5-1-0.9-1.3c-0.4-0.4-0.8-0.7-1.3-0.9s-1-0.3-1.6-0.3c-1.1,0-2.1,0.4-3,1.2C328.8,905.2,328.2,906.4,328,908.1z"/>
	<path d="M344.2,894.5h7v21.2h4.7v2H344v-2h4.7v-19.2h-4.5V894.5z"/>
	<path d="M361.7,894.5h7v21.2h4.7v2h-11.9v-2h4.7v-19.2h-4.5V894.5z"/>
	<path d="M380,901.8h6.4v14h3.7v2h-10.4v-2h4.1v-11.9H380V901.8z M383.9,895.3c0.4-0.4,0.8-0.5,1.3-0.5c0.5,0,0.9,0.2,1.3,0.5
		c0.4,0.4,0.5,0.8,0.5,1.3c0,0.5-0.2,0.9-0.5,1.3c-0.4,0.4-0.8,0.5-1.3,0.5c-0.5,0-0.9-0.2-1.3-0.5c-0.3-0.4-0.5-0.8-0.5-1.3
		C383.4,896.1,383.5,895.7,383.9,895.3z"/>
	<path d="M395.9,901.8h2.5v2.5c0.5-0.9,1.3-1.5,2.2-2c0.9-0.5,1.8-0.8,2.7-0.8c0.9,0,1.7,0.2,2.6,0.5c0.8,0.3,1.5,0.8,2.1,1.5
		c0.6,0.7,1.1,1.5,1.5,2.6s0.5,2.2,0.5,3.6s-0.2,2.6-0.6,3.7c-0.4,1.1-0.9,2-1.5,2.7c-0.6,0.7-1.4,1.2-2.2,1.6
		c-0.8,0.4-1.6,0.5-2.5,0.5c-1,0-1.9-0.2-2.7-0.7c-0.8-0.4-1.5-1.1-2.1-1.9v7.9h-2.5V901.8z M398.3,911.1c0,1.7,0.4,2.9,1.2,3.7
		c0.8,0.7,1.7,1.1,2.8,1.1c0.6,0,1.2-0.1,1.8-0.3c0.6-0.2,1.1-0.5,1.6-1c0.5-0.5,0.9-1,1.2-1.8c0.3-0.7,0.4-1.7,0.4-2.8
		c0-2-0.4-3.6-1.3-4.8c-0.9-1.1-2.1-1.7-3.6-1.8c-0.5,0-1,0.1-1.4,0.2c-0.5,0.2-0.9,0.4-1.3,0.8c-0.4,0.4-0.7,0.9-1,1.6
		c-0.2,0.7-0.4,1.5-0.4,2.5V911.1z"/>
	<path d="M426.4,903.9l-1.5,2.2c-0.1,0-0.2-0.1-0.2-0.3c0-0.2,0-0.3-0.1-0.4c-0.4-0.5-1-1-1.8-1.5c-0.8-0.5-1.7-0.7-2.6-0.7
		c-0.4,0-0.9,0.1-1.3,0.2c-0.4,0.1-0.8,0.3-1.1,0.4c-0.3,0.2-0.6,0.4-0.8,0.7c-0.2,0.3-0.3,0.6-0.3,1c0,0.3,0.1,0.5,0.2,0.8
		c0.1,0.2,0.4,0.4,0.7,0.6s0.7,0.4,1.3,0.6c0.6,0.2,1.3,0.4,2.2,0.7c2,0.5,3.4,1.2,4.3,1.9c0.8,0.7,1.3,1.6,1.3,2.7
		c0,0.7-0.2,1.4-0.5,2c-0.3,0.6-0.7,1.2-1.3,1.6c-0.6,0.5-1.3,0.8-2.1,1.1c-0.8,0.3-1.7,0.4-2.8,0.4c-2.7,0-4.9-0.8-6.8-2.5l1.4-2.5
		c0.1,0.1,0.1,0.2,0.1,0.3c0,0.2,0.1,0.3,0.2,0.6c0.1,0.2,0.4,0.5,0.8,0.7c0.4,0.3,1,0.6,1.7,0.9c0.4,0.2,0.8,0.3,1.2,0.4
		c0.4,0.1,0.9,0.1,1.3,0.1c0.5,0,0.9-0.1,1.4-0.2c0.5-0.1,0.9-0.3,1.3-0.5s0.7-0.5,0.9-0.8s0.4-0.7,0.4-1.1c0-0.6-0.3-1.1-0.8-1.5
		c-0.6-0.4-1.6-0.9-3.1-1.3c-1-0.3-1.7-0.5-2-0.6c-0.8-0.3-1.5-0.6-1.8-0.9c-0.4-0.2-0.7-0.5-1-0.9c-0.3-0.3-0.6-0.7-0.7-1.2
		s-0.3-0.9-0.3-1.4c0-0.6,0.2-1.1,0.5-1.6c0.3-0.5,0.7-1,1.3-1.4c0.5-0.4,1.2-0.7,2-1c0.8-0.2,1.6-0.4,2.5-0.4
		C422.9,901.4,424.9,902.2,426.4,903.9z"/>
	<path d="M437.8,901.4c0.8,0,1.7,0.2,2.5,0.5c0.8,0.3,1.5,0.8,2.1,1.4c0.6,0.6,1.1,1.4,1.4,2.4c0.4,1,0.5,2.1,0.5,3.4
		c0,0.2,0,0.4,0,0.6c0,0.2,0,0.4-0.1,0.6h-11.4c0,1.1,0.2,2.1,0.6,2.8c0.3,0.8,0.8,1.4,1.3,1.8c0.5,0.5,1.1,0.8,1.7,1
		c0.6,0.2,1.3,0.3,1.9,0.3c1.7,0,3-0.6,4.1-1.8l1.4,1.4c-1.4,1.6-3.2,2.5-5.6,2.5c-1.2,0-2.2-0.2-3.2-0.5c-1-0.4-1.8-0.9-2.5-1.6
		c-0.7-0.7-1.2-1.6-1.6-2.6c-0.4-1-0.6-2.2-0.6-3.6c0-1.4,0.2-2.6,0.6-3.6c0.4-1.1,0.9-1.9,1.6-2.6c0.7-0.7,1.4-1.3,2.3-1.6
		C435.8,901.6,436.8,901.4,437.8,901.4z M433,908.1h8.8c0-0.1,0-0.2,0-0.3c0-0.1,0-0.2,0-0.3c0-0.6-0.1-1.1-0.3-1.6
		c-0.2-0.5-0.5-1-0.9-1.3c-0.4-0.4-0.8-0.7-1.3-0.9s-1-0.3-1.6-0.3c-1.1,0-2.1,0.4-3,1.2C433.8,905.2,433.2,906.4,433,908.1z"/>
	<path d="M460.7,896.7l-0.4,0c-0.1,0-0.2,0-0.3,0.1c-2.1,1.2-3.7,2.9-4.8,5c-1.1,2.1-1.7,4.5-1.7,7.1c0,1.3,0.2,2.6,0.5,3.9
		c0.3,1.3,0.9,2.5,1.5,3.6c0.7,1.2,1.5,2.2,2.4,3.2c0.9,1,2,1.8,3.2,2.5l-1.1,1.9c-1.4-0.7-2.6-1.6-3.7-2.7c-1.1-1.1-2-2.2-2.8-3.6
		c-0.8-1.3-1.3-2.7-1.8-4.2s-0.6-3.1-0.6-4.6s0.2-3.1,0.6-4.6c0.4-1.5,1-2.8,1.8-4.1c0.8-1.2,1.7-2.4,2.8-3.3c1.1-1,2.3-1.7,3.7-2.3
		l1,2.1C460.9,896.6,460.8,896.7,460.7,896.7z"/>
	<path d="M466.9,903.7c1.4-1.5,3.3-2.2,5.7-2.2c2,0,3.5,0.5,4.6,1.5c1.1,1,1.7,2.6,1.7,5v9.9h-2.4V916c-1.7,1.4-3.6,2.1-5.7,2.1
		c-0.8,0-1.6-0.1-2.3-0.4s-1.2-0.6-1.7-1s-0.8-0.9-1.1-1.4c-0.2-0.5-0.4-1.1-0.4-1.6c0-1.6,0.7-2.9,2.1-3.8c1.4-0.9,3.4-1.4,6-1.5h3
		v-0.6c0-1.6-0.3-2.7-1-3.3s-1.7-1-3.1-1c-1.7,0-3.2,0.6-4.3,1.8L466.9,903.7z M476.7,910.3h-0.6c-0.3,0-0.6,0-0.9,0s-0.6,0-0.9,0
		c-1.3,0-2.3,0.1-3.2,0.3c-0.8,0.2-1.5,0.4-1.9,0.7s-0.8,0.6-1,1c-0.2,0.4-0.3,0.8-0.3,1.2c0,0.7,0.3,1.4,1,1.9
		c0.7,0.5,1.5,0.8,2.4,0.8c0.7,0,1.3-0.1,1.9-0.3c0.6-0.2,1-0.5,1.5-0.8c0.4-0.3,0.8-0.6,1-1c0.3-0.3,0.4-0.6,0.6-0.9
		c0.2-0.5,0.3-1.1,0.3-1.9V910.3z"/>
	<path d="M492,917.1c0,1.8-1.2,4-3.7,6.6l-1.2-1c0.7-0.6,1.2-1.3,1.6-2c0.4-0.7,0.6-1.3,0.6-1.7c0-0.2-0.1-0.4-0.3-0.6
		c-0.2-0.2-0.4-0.4-0.6-0.6c-0.2-0.2-0.4-0.4-0.6-0.6c-0.2-0.2-0.3-0.5-0.3-0.8c0-0.6,0.2-1.1,0.6-1.5c0.4-0.4,0.9-0.6,1.5-0.6
		s1.2,0.3,1.6,0.8C491.7,915.5,492,916.2,492,917.1z"/>
	<path d="M518.4,894.5h2.9v0.1c0,0.1-0.1,0.2-0.2,0.3s-0.2,0.2-0.2,0.4v9c0.5-0.9,1.2-1.6,2.1-2.1s1.8-0.8,2.7-0.8
		c0.9,0,1.7,0.2,2.5,0.5c0.8,0.3,1.5,0.9,2.1,1.5c0.6,0.7,1.1,1.5,1.4,2.6c0.4,1,0.5,2.2,0.5,3.6c0,1.4-0.2,2.7-0.6,3.8
		c-0.4,1.1-0.9,1.9-1.5,2.7c-0.6,0.7-1.3,1.2-2.1,1.6c-0.8,0.4-1.6,0.5-2.5,0.5c-1,0-1.9-0.2-2.7-0.7c-0.8-0.4-1.5-1.1-2-1.8
		l-0.9,2.1h-1.6V894.5z M522.7,915.2c0.4,0.2,0.8,0.4,1.2,0.5s0.7,0.1,1,0.1c0.5,0,1-0.1,1.6-0.3c0.6-0.2,1.1-0.5,1.6-0.9
		c0.5-0.4,0.9-1,1.2-1.8c0.3-0.7,0.5-1.7,0.5-2.8c0-2.1-0.4-3.7-1.3-4.8c-0.9-1.1-2.1-1.7-3.8-1.7c-0.6,0-1.2,0.2-1.9,0.6
		c-0.7,0.4-1.1,1-1.5,1.7c-0.3,0.7-0.4,1.8-0.4,3.4c0,1,0,1.8,0.1,2.5c0,0.7,0.1,1.2,0.3,1.7c0.1,0.5,0.3,0.8,0.6,1.1
		C522,914.8,522.3,915,522.7,915.2z"/>
	<path d="M544.5,917.1c0,1.8-1.2,4-3.7,6.6l-1.2-1c0.7-0.6,1.2-1.3,1.6-2c0.4-0.7,0.6-1.3,0.6-1.7c0-0.2-0.1-0.4-0.3-0.6
		c-0.2-0.2-0.4-0.4-0.6-0.6c-0.2-0.2-0.4-0.4-0.6-0.6c-0.2-0.2-0.3-0.5-0.3-0.8c0-0.6,0.2-1.1,0.6-1.5c0.4-0.4,0.9-0.6,1.5-0.6
		s1.2,0.3,1.6,0.8C544.2,915.5,544.5,916.2,544.5,917.1z"/>
	<path d="M584.8,904.4l-1.8,2.1c-0.1-0.1-0.2-0.1-0.2-0.2c0-0.1,0-0.2,0-0.3s-0.1-0.3-0.3-0.5c-0.1-0.2-0.4-0.5-0.8-0.8
		c-0.8-0.7-1.9-1-3.3-1c-0.7,0-1.3,0.1-2,0.4c-0.6,0.3-1.2,0.7-1.6,1.2c-0.5,0.5-0.8,1.2-1.1,1.9s-0.4,1.6-0.4,2.5
		c0,0.9,0.1,1.7,0.4,2.5c0.3,0.8,0.7,1.4,1.2,2c0.5,0.6,1.1,1,1.8,1.3c0.7,0.3,1.4,0.5,2.3,0.5c1.6,0,3-0.6,4.2-1.9l1.5,1.7
		c-1.6,1.7-3.5,2.5-5.8,2.5c-1.1,0-2.2-0.2-3.2-0.6c-1-0.4-1.8-1-2.5-1.8c-0.7-0.7-1.3-1.6-1.7-2.6c-0.4-1-0.6-2.1-0.6-3.3
		c0-1.2,0.2-2.3,0.6-3.3c0.4-1,1-1.9,1.7-2.6c0.7-0.7,1.6-1.3,2.6-1.7c1-0.4,2.1-0.6,3.2-0.6c1.3,0,2.4,0.3,3.4,0.8
		S584.1,903.5,584.8,904.4z"/>
	<path d="M597,917.1c0,1.8-1.2,4-3.7,6.6l-1.2-1c0.7-0.6,1.2-1.3,1.6-2c0.4-0.7,0.6-1.3,0.6-1.7c0-0.2-0.1-0.4-0.3-0.6
		s-0.4-0.4-0.6-0.6s-0.4-0.4-0.6-0.6c-0.2-0.2-0.3-0.5-0.3-0.8c0-0.6,0.2-1.1,0.6-1.5c0.4-0.4,0.9-0.6,1.5-0.6
		c0.6,0,1.2,0.3,1.6,0.8C596.7,915.5,597,916.2,597,917.1z"/>
	<path d="M634.2,904.1v-9.6h2.7c0,0.1-0.1,0.3-0.2,0.5c-0.1,0.2-0.2,0.3-0.2,0.5l0,20.8c0,0.6,0.1,1.1,0.2,1.5h-2.6
		c-0.1-0.3-0.1-0.7-0.1-1.2v-1.4c-0.5,0.9-1.2,1.6-2.1,2.1s-1.8,0.8-2.7,0.8c-0.9,0-1.7-0.2-2.5-0.5c-0.8-0.4-1.5-0.9-2.1-1.6
		c-0.6-0.7-1.1-1.6-1.4-2.6c-0.3-1.1-0.5-2.3-0.5-3.8c0-1.5,0.2-2.7,0.6-3.8c0.4-1,0.9-1.9,1.6-2.6s1.4-1.2,2.1-1.5
		c0.8-0.3,1.6-0.5,2.4-0.5c1.1,0,2.1,0.3,2.9,0.8C633.2,902.6,633.8,903.3,634.2,904.1z M626.8,904.6c-1,0.9-1.5,2.5-1.5,4.6
		c0,2,0.4,3.6,1.1,4.9c0.8,1.2,1.9,1.8,3.4,1.8c0.3,0,0.7-0.1,1.1-0.2c0.4-0.1,0.8-0.3,1.1-0.6s0.7-0.6,0.9-0.9
		c0.3-0.4,0.5-0.7,0.6-1.2c0.3-0.8,0.4-2,0.4-3.4c0-0.9,0-1.6-0.1-2.2c-0.1-0.6-0.2-1.1-0.3-1.5c-0.1-0.4-0.3-0.8-0.6-1
		c-0.2-0.3-0.5-0.5-0.9-0.7c-0.4-0.3-0.8-0.5-1.2-0.6c-0.4-0.1-0.7-0.2-1-0.2c-0.7,0-1.2,0.1-1.7,0.3S627.3,904.1,626.8,904.6z"/>
	<path d="M641.5,896.7l0.7-2.2c1.4,0.7,2.7,1.5,3.9,2.5c1.2,1,2.2,2.2,3,3.4c0.8,1.3,1.4,2.6,1.9,4.1c0.4,1.5,0.7,3,0.7,4.5
		c0,1.6-0.2,3.1-0.7,4.6c-0.5,1.5-1.1,2.9-1.9,4.2c-0.8,1.3-1.8,2.5-3,3.5c-1.2,1-2.5,1.9-3.9,2.6l-0.7-2.1c1.2-0.6,2.2-1.4,3.2-2.3
		s1.7-1.9,2.4-3c0.7-1.1,1.2-2.3,1.6-3.5c0.4-1.2,0.5-2.5,0.5-3.8c0-1.3-0.2-2.6-0.5-3.8c-0.4-1.2-0.9-2.4-1.5-3.5s-1.4-2.1-2.4-2.9
		C643.6,898,642.6,897.3,641.5,896.7z"/>
	<path d="M667,917.1c0,1.8-1.2,4-3.7,6.6l-1.2-1c0.7-0.6,1.2-1.3,1.6-2c0.4-0.7,0.6-1.3,0.6-1.7c0-0.2-0.1-0.4-0.3-0.6
		s-0.4-0.4-0.6-0.6s-0.4-0.4-0.6-0.6c-0.2-0.2-0.3-0.5-0.3-0.8c0-0.6,0.2-1.1,0.6-1.5c0.4-0.4,0.9-0.6,1.5-0.6
		c0.6,0,1.2,0.3,1.6,0.8C666.7,915.5,667,916.2,667,917.1z M666.1,903.5c0.4,0.4,0.6,0.9,0.6,1.4c0,0.5-0.2,1-0.6,1.4
		c-0.4,0.4-0.9,0.6-1.5,0.6c-0.5,0-1-0.2-1.4-0.6c-0.4-0.4-0.6-0.9-0.6-1.4c0-0.6,0.2-1,0.6-1.4c0.4-0.4,0.9-0.6,1.4-0.6
		C665.1,903,665.6,903.1,666.1,903.5z"/>
</g>
<ellipse class="st5" cx="467.8" cy="457.2" rx="175" ry="337.5"/>
<g>
	<g>
		<line class="st2" x1="675.6" y1="126.7" x2="675.6" y2="780.1"/>
		<g>
			<polygon class="st3" points="668.1,128.9 675.6,115.9 683.1,128.9 			"/>
		</g>
		<g>
			<polygon class="st3" points="668.1,778 675.6,790.9 683.1,778 			"/>
		</g>
	</g>
</g>
<g>
	<g>
		<line class="st2" x1="635.6" y1="819.4" x2="307.1" y2="819.4"/>
		<g>
			<polygon class="st3" points="633.4,811.9 646.3,819.4 633.4,826.9 			"/>
		</g>
		<g>
			<polygon class="st3" points="309.3,811.9 296.3,819.4 309.3,826.9 			"/>
		</g>
	</g>
</g>
<g>
	<circle cx="470.2" cy="455.9" r="5"/>
	<g>
		<path d="M430.4,412.1l-0.4,0c-0.1,0-0.2,0-0.3,0.1c-2.1,1.2-3.7,2.9-4.8,5c-1.1,2.1-1.7,4.5-1.7,7.1c0,1.3,0.2,2.6,0.5,3.9
			c0.3,1.3,0.9,2.5,1.5,3.6c0.7,1.2,1.5,2.2,2.4,3.2c0.9,1,2,1.8,3.2,2.5l-1.1,1.9c-1.4-0.7-2.6-1.6-3.7-2.7c-1.1-1.1-2-2.2-2.8-3.6
			c-0.8-1.3-1.3-2.7-1.8-4.2c-0.4-1.5-0.6-3.1-0.6-4.6s0.2-3.1,0.6-4.6c0.4-1.5,1-2.8,1.8-4.1c0.8-1.2,1.7-2.3,2.8-3.3
			c1.1-1,2.3-1.7,3.7-2.3l1,2.1C430.6,412,430.5,412.1,430.4,412.1z"/>
		<path d="M436.6,419.1c1.4-1.5,3.3-2.2,5.7-2.2c2,0,3.5,0.5,4.6,1.5c1.1,1,1.7,2.6,1.7,5v9.9h-2.4v-1.8c-1.7,1.4-3.6,2.1-5.7,2.1
			c-0.8,0-1.6-0.1-2.3-0.4c-0.7-0.3-1.2-0.6-1.7-1s-0.8-0.9-1.1-1.4c-0.2-0.5-0.4-1.1-0.4-1.6c0-1.6,0.7-2.9,2.1-3.8s3.4-1.4,6-1.5
			h3v-0.6c0-1.6-0.3-2.7-1-3.3c-0.7-0.6-1.7-1-3.1-1c-1.7,0-3.2,0.6-4.3,1.8L436.6,419.1z M446.4,425.7h-0.6c-0.3,0-0.6,0-0.9,0
			c-0.3,0-0.6,0-0.9,0c-1.3,0-2.3,0.1-3.2,0.3c-0.8,0.2-1.5,0.4-1.9,0.7c-0.5,0.3-0.8,0.6-1,1c-0.2,0.4-0.3,0.8-0.3,1.2
			c0,0.7,0.3,1.4,1,1.9c0.7,0.5,1.5,0.8,2.4,0.8c0.7,0,1.3-0.1,1.9-0.3c0.6-0.2,1-0.5,1.5-0.8s0.8-0.6,1-1c0.3-0.3,0.4-0.6,0.6-0.9
			c0.2-0.5,0.4-1.1,0.4-1.9V425.7z"/>
		<path d="M461.7,432.5c0,1.8-1.2,4-3.7,6.6l-1.2-1c0.7-0.6,1.2-1.3,1.6-2c0.4-0.7,0.6-1.3,0.6-1.7c0-0.2-0.1-0.4-0.3-0.6
			s-0.4-0.4-0.6-0.6c-0.2-0.2-0.4-0.4-0.6-0.6c-0.2-0.2-0.3-0.5-0.3-0.8c0-0.6,0.2-1.1,0.6-1.5c0.4-0.4,0.9-0.6,1.5-0.6
			c0.6,0,1.2,0.3,1.6,0.8C461.4,430.9,461.7,431.6,461.7,432.5z"/>
		<path d="M488,409.9h2.9v0.1c0,0.1-0.1,0.2-0.2,0.3c-0.1,0.1-0.2,0.2-0.2,0.4v9c0.5-0.9,1.2-1.6,2.1-2.1c0.9-0.5,1.8-0.8,2.7-0.8
			c0.9,0,1.7,0.2,2.5,0.5c0.8,0.3,1.5,0.9,2.1,1.5c0.6,0.7,1.1,1.5,1.4,2.6c0.4,1,0.5,2.2,0.5,3.6c0,1.4-0.2,2.7-0.6,3.8
			c-0.4,1.1-0.9,1.9-1.5,2.7c-0.6,0.7-1.3,1.2-2.1,1.6c-0.8,0.4-1.6,0.5-2.5,0.5c-1,0-1.9-0.2-2.7-0.7c-0.8-0.4-1.5-1-2-1.8
			l-0.9,2.1H488V409.9z M492.4,430.7c0.4,0.2,0.8,0.4,1.2,0.5c0.4,0.1,0.7,0.1,1,0.1c0.5,0,1-0.1,1.6-0.3c0.6-0.2,1.1-0.5,1.6-0.9
			c0.5-0.4,0.9-1,1.2-1.8c0.3-0.7,0.5-1.7,0.5-2.8c0-2.1-0.4-3.7-1.3-4.8c-0.9-1.1-2.1-1.7-3.8-1.7c-0.6,0-1.2,0.2-1.9,0.6
			c-0.7,0.4-1.1,1-1.5,1.7c-0.3,0.7-0.4,1.8-0.4,3.4c0,1,0,1.8,0.1,2.5c0,0.7,0.1,1.2,0.3,1.7c0.1,0.5,0.3,0.8,0.6,1.1
			C491.7,430.2,492,430.4,492.4,430.7z"/>
		<path d="M506.2,412.1l0.7-2.2c1.4,0.7,2.7,1.5,3.9,2.5c1.2,1,2.2,2.2,3,3.4c0.8,1.3,1.4,2.6,1.9,4.1c0.4,1.5,0.7,3,0.7,4.5
			c0,1.6-0.2,3.1-0.7,4.6s-1.1,2.9-1.9,4.2s-1.8,2.5-3,3.5c-1.2,1-2.5,1.9-3.9,2.6l-0.7-2.1c1.2-0.6,2.2-1.4,3.2-2.3s1.7-1.9,2.4-3
			s1.2-2.3,1.5-3.5c0.4-1.2,0.5-2.5,0.5-3.8c0-1.3-0.2-2.6-0.5-3.8c-0.4-1.2-0.9-2.4-1.5-3.5c-0.6-1.1-1.4-2.1-2.4-2.9
			C508.3,413.4,507.3,412.7,506.2,412.1z"/>
	</g>
</g>
<g>
	<path d="M702.2,450.3v-9.6h2.7c0,0.1-0.1,0.3-0.2,0.5c-0.1,0.2-0.2,0.3-0.2,0.5l0,20.8c0,0.6,0.1,1.1,0.2,1.5h-2.6
		c-0.1-0.3-0.1-0.7-0.1-1.2v-1.4c-0.5,0.9-1.2,1.6-2.1,2.1s-1.8,0.8-2.7,0.8c-0.9,0-1.7-0.2-2.5-0.5c-0.8-0.4-1.5-0.9-2.1-1.6
		c-0.6-0.7-1.1-1.6-1.4-2.6c-0.3-1.1-0.5-2.3-0.5-3.8c0-1.5,0.2-2.7,0.6-3.8c0.4-1,0.9-1.9,1.6-2.6c0.6-0.7,1.4-1.2,2.1-1.5
		s1.6-0.5,2.4-0.5c1.1,0,2.1,0.3,2.9,0.8C701.2,448.8,701.8,449.4,702.2,450.3z M694.8,450.7c-1,0.9-1.5,2.5-1.5,4.6
		c0,2,0.4,3.6,1.1,4.9c0.8,1.2,1.9,1.8,3.4,1.8c0.3,0,0.7-0.1,1.1-0.2s0.8-0.3,1.1-0.6s0.7-0.6,0.9-0.9s0.5-0.7,0.6-1.2
		c0.3-0.8,0.4-2,0.4-3.4c0-0.9,0-1.6-0.1-2.2c-0.1-0.6-0.2-1.1-0.3-1.5c-0.2-0.4-0.3-0.8-0.6-1s-0.5-0.5-0.9-0.7
		c-0.4-0.3-0.8-0.5-1.2-0.6c-0.4-0.1-0.7-0.2-1-0.2c-0.7,0-1.2,0.1-1.7,0.3S695.3,450.3,694.8,450.7z"/>
</g>
<g>
	<path d="M477.6,839.4l-1.8,2.1c-0.1-0.1-0.2-0.1-0.2-0.2c0-0.1,0-0.2,0-0.3s-0.1-0.3-0.3-0.5s-0.4-0.5-0.8-0.8
		c-0.8-0.7-1.9-1-3.3-1c-0.7,0-1.3,0.1-2,0.4s-1.2,0.7-1.6,1.2s-0.8,1.2-1.1,1.9c-0.3,0.7-0.4,1.6-0.4,2.5c0,0.9,0.1,1.7,0.4,2.5
		c0.3,0.8,0.7,1.4,1.2,2c0.5,0.6,1.1,1,1.8,1.3s1.4,0.5,2.3,0.5c1.6,0,3-0.6,4.2-1.9l1.5,1.7c-1.6,1.7-3.5,2.5-5.8,2.5
		c-1.1,0-2.2-0.2-3.2-0.6s-1.8-1-2.5-1.8c-0.7-0.7-1.3-1.6-1.7-2.6c-0.4-1-0.6-2.1-0.6-3.3c0-1.2,0.2-2.3,0.6-3.3
		c0.4-1,1-1.9,1.7-2.6c0.7-0.7,1.6-1.3,2.6-1.7c1-0.4,2.1-0.6,3.2-0.6c1.3,0,2.4,0.3,3.4,0.8C476.1,837.7,476.9,838.4,477.6,839.4z"
		/>
</g>
</svg>
