<?xml version="1.0" encoding="utf-8"?>
<!-- Generator: Adobe Illustrator 19.2.1, SVG Export Plug-In . SVG Version: 6.00 Build 0)  -->
<svg version="1.1" id="Layer_1" xmlns="http://www.w3.org/2000/svg" xmlns:xlink="http://www.w3.org/1999/xlink" x="0px" y="0px"
	 viewBox="0 0 1000 1000" style="enable-background:new 0 0 1000 1000;" xml:space="preserve">
<style type="text/css">
	.st0{fill:none;stroke:#58595B;stroke-width:3;stroke-miterlimit:10;}
	.st1{fill:#FFFFFF;stroke:#000000;stroke-width:1.5;stroke-miterlimit:10;}
	.st2{fill:none;stroke:#58595B;stroke-width:1.5;stroke-miterlimit:10;}
	.st3{fill:#58595B;}
	.st4{fill:none;stroke:#58595B;stroke-width:4.2426;stroke-miterlimit:10;}
	.st5{fill:#FFFFFF;stroke:#000000;stroke-width:1.4591;stroke-miterlimit:10;}
	.st6{fill:none;stroke:#58595B;stroke-width:1.4661;stroke-miterlimit:10;}
	.st7{fill:none;stroke:#58595B;stroke-width:1.9664;stroke-miterlimit:10;}
	.st8{fill:none;stroke:#000000;stroke-width:1.5;stroke-miterlimit:10;}
	.st9{fill:none;stroke:#000000;stroke-width:1.5886;stroke-miterlimit:10;}
	.st10{fill:none;stroke:#000000;stroke-width:1.5964;stroke-miterlimit:10;}
</style>
<rect class="st0" width="1000" height="1000"/>
<g>
	<path d="M318.7,894.5h7v21.2h4.7v2h-11.9v-2h4.7v-19.2h-4.5V894.5z"/>
	<path d="M337,901.8h6.4v14h3.7v2h-10.4v-2h4.1v-11.9H337V901.8z M340.9,895.3c0.4-0.4,0.8-0.5,1.3-0.5c0.5,0,0.9,0.2,1.3,0.5
		c0.4,0.4,0.5,0.8,0.5,1.3c0,0.5-0.2,0.9-0.5,1.3c-0.4,0.4-0.8,0.5-1.3,0.5c-0.5,0-0.9-0.2-1.3-0.5s-0.5-0.8-0.5-1.3
		C340.4,896.1,340.5,895.7,340.9,895.3z"/>
	<path d="M353.1,917.8v-16h2.5v2.8c0.6-1,1.4-1.8,2.3-2.3c1-0.6,1.9-0.9,2.9-0.9c0.7,0,1.4,0.1,2,0.4c0.6,0.2,1.1,0.6,1.6,1.2
		c0.4,0.5,0.8,1.2,1,2.1c0.2,0.8,0.4,1.9,0.4,3.1v9.7h-2.5v-9.6c0-1.7-0.3-2.9-0.9-3.5c-0.6-0.7-1.3-1-2.1-1c-0.5,0-1.1,0.1-1.7,0.3
		c-0.6,0.2-1.1,0.6-1.5,1c-0.5,0.4-0.8,1-1.1,1.6c-0.3,0.6-0.4,1.3-0.4,2.1v9.2H353.1z"/>
	<path d="M377.3,901.4c0.8,0,1.7,0.2,2.5,0.5c0.8,0.3,1.5,0.8,2.1,1.4c0.6,0.6,1.1,1.4,1.4,2.4c0.4,1,0.5,2.1,0.5,3.4
		c0,0.2,0,0.4,0,0.6c0,0.2,0,0.4-0.1,0.6h-11.4c0,1.1,0.2,2.1,0.6,2.8c0.3,0.8,0.8,1.4,1.3,1.8c0.5,0.5,1.1,0.8,1.7,1
		c0.6,0.2,1.3,0.3,1.9,0.3c1.7,0,3-0.6,4.1-1.8l1.4,1.4c-1.4,1.6-3.2,2.5-5.6,2.5c-1.2,0-2.2-0.2-3.2-0.5c-1-0.4-1.8-0.9-2.5-1.6
		c-0.7-0.7-1.2-1.6-1.6-2.6c-0.4-1-0.6-2.2-0.6-3.6c0-1.4,0.2-2.6,0.6-3.6c0.4-1.1,0.9-1.9,1.6-2.6c0.7-0.7,1.4-1.3,2.3-1.6
		C375.3,901.6,376.3,901.4,377.3,901.4z M372.5,908.1h8.8c0-0.1,0-0.2,0-0.3c0-0.1,0-0.2,0-0.3c0-0.6-0.1-1.1-0.3-1.6
		c-0.2-0.5-0.5-1-0.9-1.3c-0.4-0.4-0.8-0.7-1.3-0.9c-0.5-0.2-1-0.3-1.6-0.3c-1.1,0-2.1,0.4-3,1.2
		C373.3,905.2,372.7,906.4,372.5,908.1z"/>
	<path d="M400.2,896.7l-0.4,0c-0.1,0-0.2,0-0.3,0.1c-2.1,1.2-3.7,2.9-4.8,5c-1.1,2.1-1.7,4.5-1.7,7.1c0,1.3,0.2,2.6,0.5,3.9
		c0.3,1.3,0.9,2.5,1.5,3.6c0.7,1.2,1.5,2.2,2.4,3.2s2,1.8,3.2,2.5l-1.1,1.9c-1.4-0.7-2.6-1.6-3.7-2.7c-1.1-1.1-2-2.2-2.8-3.6
		c-0.8-1.3-1.3-2.7-1.8-4.2c-0.4-1.5-0.6-3.1-0.6-4.6s0.2-3.1,0.6-4.6c0.4-1.5,1-2.8,1.8-4.1c0.8-1.2,1.7-2.4,2.8-3.3
		c1.1-1,2.3-1.7,3.7-2.3l1,2.1C400.4,896.6,400.3,896.7,400.2,896.7z"/>
	<path d="M415.9,901.8h2.6l-5.2,7.8l5.9,8.2h-2.9l-4.4-6.2l-4.2,6.2h-2.9l5.6-8.1l-5.5-7.9h2.8l4.2,5.9L415.9,901.8z"/>
	<path d="M431.2,895.9v21.8h-2.4V899l-4.4,1.3l-0.6-1.4l5.7-3H431.2z"/>
	<path d="M449,917.1c0,1.8-1.2,4-3.7,6.6l-1.2-1c0.7-0.6,1.2-1.3,1.6-2c0.4-0.7,0.6-1.3,0.6-1.7c0-0.2-0.1-0.4-0.3-0.6
		c-0.2-0.2-0.4-0.4-0.6-0.6c-0.2-0.2-0.4-0.4-0.6-0.6c-0.2-0.2-0.3-0.5-0.3-0.8c0-0.6,0.2-1.1,0.6-1.5c0.4-0.4,0.9-0.6,1.5-0.6
		c0.6,0,1.2,0.3,1.6,0.8C448.7,915.5,449,916.2,449,917.1z"/>
	<path d="M475.3,902.9l-0.5-1.1h3c0,0.2,0,0.3-0.1,0.5c0,0.1-0.1,0.3-0.1,0.4c0,0.1,0,0.2,0.1,0.2l4.8,11.8l3-8.6
		c0.3-0.8,0.5-1.6,0.7-2.3c0.2-0.7,0.3-1.4,0.5-1.9h2.6c-0.2,0.6-0.4,1.3-0.7,2.1s-0.5,1.6-0.9,2.6l-4.3,11.4l-0.7,1.8
		c-0.6,1.6-1.3,2.7-2.2,3.3c-0.9,0.6-1.9,1-3,1c-1.5,0-2.7-0.5-3.7-1.4l1.3-2.2c0.1,0.1,0.1,0.2,0.2,0.3c0,0.2,0.1,0.3,0.1,0.3
		c0.2,0.2,0.4,0.4,0.5,0.5c0.2,0.1,0.3,0.2,0.6,0.3c0.2,0.1,0.5,0.1,0.8,0.1c0.7,0,1.3-0.2,1.8-0.6c0.5-0.4,1-1.2,1.6-2.3l0.5-1.2
		L475.3,902.9z"/>
	<path d="M493.5,899.3c0.6-1.1,1.5-2,2.6-2.6c1.1-0.6,2.3-0.9,3.5-0.9c0.9,0,1.7,0.2,2.5,0.5s1.4,0.8,2,1.3c0.6,0.6,1,1.2,1.4,2
		c0.3,0.7,0.5,1.5,0.5,2.4c0,0.7-0.1,1.3-0.3,1.9c-0.2,0.6-0.5,1.2-0.8,1.7c-0.3,0.5-0.7,1.1-1.1,1.6c-0.4,0.5-0.9,1-1.3,1.4l-2.1,2
		c-0.3,0.3-0.6,0.6-1,1c-0.4,0.4-0.7,0.8-1.1,1.2c-0.4,0.4-0.7,0.9-1.1,1.4c-0.3,0.5-0.7,1-0.9,1.5h9.1c0.1,0,0.2-0.1,0.4-0.2
		c0.1-0.1,0.3-0.2,0.4-0.2h0.1v2.5h-12.8v-1.5c0.9-1.7,1.8-3.2,2.8-4.4c1-1.2,2-2.3,2.9-3.1l1.7-1.5c0.6-0.5,1.1-1,1.4-1.5
		c0.4-0.5,0.6-0.9,0.9-1.3c0.2-0.4,0.4-0.8,0.4-1.2c0.1-0.4,0.1-0.8,0.1-1.2c0-0.5-0.1-1-0.3-1.5c-0.2-0.5-0.5-0.9-0.9-1.3
		c-0.4-0.4-0.8-0.7-1.3-0.9c-0.5-0.2-1-0.3-1.5-0.3c-0.6,0-1.1,0.1-1.6,0.3c-0.5,0.2-0.9,0.4-1.3,0.6s-0.6,0.5-0.9,0.8
		c-0.2,0.3-0.3,0.5-0.4,0.7c0,0.2-0.1,0.4-0.1,0.4L493.5,899.3z"/>
	<path d="M519,917.1c0,1.8-1.2,4-3.7,6.6l-1.2-1c0.7-0.6,1.2-1.3,1.6-2c0.4-0.7,0.6-1.3,0.6-1.7c0-0.2-0.1-0.4-0.3-0.6
		c-0.2-0.2-0.4-0.4-0.6-0.6c-0.2-0.2-0.4-0.4-0.6-0.6c-0.2-0.2-0.3-0.5-0.3-0.8c0-0.6,0.2-1.1,0.6-1.5c0.4-0.4,0.9-0.6,1.5-0.6
		c0.6,0,1.2,0.3,1.6,0.8C518.7,915.5,519,916.2,519,917.1z"/>
	<path d="M555.9,901.8h2.6l-5.2,7.8l5.9,8.2h-2.9l-4.4-6.2l-4.2,6.2h-2.9l5.6-8.1l-5.5-7.9h2.8l4.2,5.9L555.9,901.8z"/>
	<path d="M563.5,899.3c0.6-1.1,1.5-2,2.6-2.6c1.1-0.6,2.3-0.9,3.5-0.9c0.9,0,1.7,0.2,2.4,0.5s1.4,0.8,2,1.3c0.6,0.6,1,1.2,1.4,2
		c0.3,0.7,0.5,1.5,0.5,2.4c0,0.7-0.1,1.3-0.3,1.9c-0.2,0.6-0.5,1.2-0.8,1.7c-0.3,0.5-0.7,1.1-1.1,1.6c-0.4,0.5-0.9,1-1.3,1.4l-2.1,2
		c-0.3,0.3-0.6,0.6-1,1c-0.4,0.4-0.7,0.8-1.1,1.2c-0.4,0.4-0.7,0.9-1.1,1.4c-0.3,0.5-0.7,1-0.9,1.5h9.1c0.1,0,0.2-0.1,0.4-0.2
		c0.1-0.1,0.2-0.2,0.4-0.2h0.1v2.5h-12.8v-1.5c0.9-1.7,1.8-3.2,2.8-4.4c1-1.2,2-2.3,2.9-3.1l1.7-1.5c0.6-0.5,1.1-1,1.4-1.5
		c0.4-0.5,0.6-0.9,0.9-1.3c0.2-0.4,0.3-0.8,0.4-1.2c0.1-0.4,0.1-0.8,0.1-1.2c0-0.5-0.1-1-0.3-1.5c-0.2-0.5-0.5-0.9-0.9-1.3
		c-0.4-0.4-0.8-0.7-1.3-0.9c-0.5-0.2-1-0.3-1.5-0.3c-0.6,0-1.2,0.1-1.6,0.3c-0.5,0.2-0.9,0.4-1.3,0.6s-0.6,0.5-0.9,0.8
		c-0.2,0.3-0.3,0.5-0.3,0.7c0,0.2-0.1,0.4-0.1,0.4L563.5,899.3z"/>
	<path d="M589,917.1c0,1.8-1.2,4-3.7,6.6l-1.2-1c0.7-0.6,1.2-1.3,1.6-2c0.4-0.7,0.6-1.3,0.6-1.7c0-0.2-0.1-0.4-0.3-0.6
		s-0.4-0.4-0.6-0.6s-0.4-0.4-0.6-0.6c-0.2-0.2-0.3-0.5-0.3-0.8c0-0.6,0.2-1.1,0.6-1.5c0.4-0.4,0.9-0.6,1.5-0.6
		c0.6,0,1.2,0.3,1.6,0.8C588.7,915.5,589,916.2,589,917.1z"/>
	<path d="M615.3,902.9l-0.5-1.1h3c0,0.2,0,0.3-0.1,0.5c0,0.1-0.1,0.3-0.1,0.4c0,0.1,0,0.2,0.1,0.2l4.8,11.8l3-8.6
		c0.3-0.8,0.5-1.6,0.7-2.3c0.2-0.7,0.3-1.4,0.5-1.9h2.6c-0.2,0.6-0.4,1.3-0.7,2.1s-0.5,1.6-0.9,2.6l-4.3,11.4l-0.7,1.8
		c-0.6,1.6-1.3,2.7-2.2,3.3c-0.9,0.6-1.9,1-3,1c-1.5,0-2.7-0.5-3.7-1.4l1.3-2.2c0.1,0.1,0.1,0.2,0.2,0.3c0,0.2,0.1,0.3,0.1,0.3
		c0.2,0.2,0.4,0.4,0.5,0.5c0.2,0.1,0.3,0.2,0.6,0.3c0.2,0.1,0.5,0.1,0.8,0.1c0.7,0,1.3-0.2,1.8-0.6c0.5-0.4,1-1.2,1.6-2.3l0.5-1.2
		L615.3,902.9z"/>
	<path d="M633.5,899.3c0.6-1.1,1.5-2,2.6-2.6c1.1-0.6,2.3-0.9,3.5-0.9c0.9,0,1.7,0.2,2.4,0.5c0.8,0.3,1.4,0.8,2,1.3s1,1.2,1.4,2
		c0.3,0.7,0.5,1.5,0.5,2.4c0,0.7-0.1,1.3-0.3,1.9c-0.2,0.6-0.5,1.2-0.8,1.7c-0.3,0.5-0.7,1.1-1.1,1.6c-0.4,0.5-0.9,1-1.3,1.4l-2.1,2
		c-0.3,0.3-0.6,0.6-1,1c-0.4,0.4-0.7,0.8-1.1,1.2c-0.4,0.4-0.7,0.9-1.1,1.4c-0.3,0.5-0.7,1-0.9,1.5h9.1c0.1,0,0.2-0.1,0.4-0.2
		c0.1-0.1,0.2-0.2,0.4-0.2h0.1v2.5h-12.8v-1.5c0.9-1.7,1.8-3.2,2.8-4.4c1-1.2,2-2.3,2.9-3.1l1.7-1.5c0.6-0.5,1.1-1,1.4-1.5
		c0.4-0.5,0.6-0.9,0.9-1.3c0.2-0.4,0.4-0.8,0.4-1.2c0.1-0.4,0.1-0.8,0.1-1.2c0-0.5-0.1-1-0.3-1.5c-0.2-0.5-0.5-0.9-0.9-1.3
		c-0.4-0.4-0.8-0.7-1.3-0.9c-0.5-0.2-1-0.3-1.5-0.3c-0.6,0-1.1,0.1-1.6,0.3c-0.5,0.2-0.9,0.4-1.3,0.6c-0.4,0.2-0.6,0.5-0.9,0.8
		c-0.2,0.3-0.3,0.5-0.3,0.7c0,0.2-0.1,0.4-0.1,0.4L633.5,899.3z"/>
	<path d="M651,896.7l0.7-2.2c1.4,0.7,2.7,1.5,3.9,2.5c1.2,1,2.2,2.2,3,3.4c0.8,1.3,1.4,2.6,1.9,4.1c0.4,1.5,0.7,3,0.7,4.5
		c0,1.6-0.2,3.1-0.7,4.6c-0.5,1.5-1.1,2.9-1.9,4.2c-0.8,1.3-1.8,2.5-3,3.5c-1.2,1-2.5,1.9-3.9,2.6l-0.7-2.1c1.2-0.6,2.2-1.4,3.2-2.3
		s1.7-1.9,2.4-3c0.7-1.1,1.2-2.3,1.6-3.5c0.4-1.2,0.5-2.5,0.5-3.8c0-1.3-0.2-2.6-0.5-3.8c-0.4-1.2-0.9-2.4-1.5-3.5s-1.4-2.1-2.4-2.9
		C653.1,898,652.1,897.3,651,896.7z"/>
	<path d="M676.5,917.1c0,1.8-1.2,4-3.7,6.6l-1.2-1c0.7-0.6,1.2-1.3,1.6-2c0.4-0.7,0.6-1.3,0.6-1.7c0-0.2-0.1-0.4-0.3-0.6
		s-0.4-0.4-0.6-0.6s-0.4-0.4-0.6-0.6c-0.2-0.2-0.3-0.5-0.3-0.8c0-0.6,0.2-1.1,0.6-1.5c0.4-0.4,0.9-0.6,1.5-0.6
		c0.6,0,1.2,0.3,1.6,0.8C676.2,915.5,676.5,916.2,676.5,917.1z M675.6,903.5c0.4,0.4,0.6,0.9,0.6,1.4c0,0.5-0.2,1-0.6,1.4
		c-0.4,0.4-0.9,0.6-1.5,0.6c-0.5,0-1-0.2-1.4-0.6c-0.4-0.4-0.6-0.9-0.6-1.4c0-0.6,0.2-1,0.6-1.4c0.4-0.4,0.9-0.6,1.4-0.6
		C674.6,903,675.1,903.1,675.6,903.5z"/>
</g>
<circle cx="230.9" cy="160.9" r="5"/>
<g>
	<path d="M182.3,124.4l-0.4,0c-0.1,0-0.2,0-0.3,0.1c-2.1,1.2-3.7,2.9-4.8,5c-1.1,2.1-1.7,4.5-1.7,7.1c0,1.3,0.2,2.6,0.5,3.9
		c0.3,1.3,0.9,2.5,1.5,3.6c0.7,1.2,1.5,2.2,2.4,3.2s2,1.8,3.2,2.5l-1.1,1.9c-1.4-0.7-2.6-1.6-3.7-2.7c-1.1-1.1-2-2.2-2.8-3.6
		c-0.8-1.3-1.3-2.7-1.8-4.2c-0.4-1.5-0.6-3.1-0.6-4.6s0.2-3.1,0.6-4.6c0.4-1.5,1-2.8,1.8-4.1c0.8-1.2,1.7-2.4,2.8-3.3
		c1.1-1,2.3-1.7,3.7-2.3l1,2.1C182.5,124.4,182.4,124.4,182.3,124.4z"/>
	<path d="M198,129.6h2.6l-5.2,7.8l5.9,8.2h-2.9l-4.4-6.2l-4.2,6.2H187l5.6-8.1l-5.5-7.9h2.8l4.2,5.9L198,129.6z"/>
	<path d="M213.3,123.7v21.8h-2.4v-18.8l-4.4,1.3l-0.6-1.4l5.7-3H213.3z"/>
	<path d="M231,144.8c0,1.8-1.2,4-3.7,6.6l-1.2-1c0.7-0.6,1.2-1.3,1.6-2c0.4-0.7,0.6-1.3,0.6-1.7c0-0.2-0.1-0.4-0.3-0.6
		c-0.2-0.2-0.4-0.4-0.6-0.6c-0.2-0.2-0.4-0.4-0.6-0.6c-0.2-0.2-0.3-0.5-0.3-0.8c0-0.6,0.2-1.1,0.6-1.5c0.4-0.4,0.9-0.6,1.5-0.6
		c0.6,0,1.2,0.3,1.6,0.8C230.8,143.3,231,144,231,144.8z"/>
	<path d="M257.4,130.7l-0.5-1.1h3c0,0.2,0,0.3-0.1,0.5c0,0.1-0.1,0.3-0.1,0.4c0,0.1,0,0.2,0.1,0.2l4.8,11.8l3-8.6
		c0.3-0.8,0.5-1.6,0.7-2.3c0.2-0.7,0.3-1.4,0.5-1.9h2.6c-0.2,0.6-0.4,1.3-0.7,2.1s-0.5,1.6-0.9,2.6l-4.3,11.4l-0.7,1.8
		c-0.6,1.6-1.3,2.7-2.2,3.3c-0.9,0.6-1.9,1-3,1c-1.5,0-2.7-0.5-3.7-1.4l1.3-2.2c0.1,0.1,0.1,0.2,0.2,0.3c0,0.2,0.1,0.3,0.1,0.3
		c0.2,0.2,0.4,0.4,0.5,0.5c0.2,0.1,0.3,0.2,0.6,0.3c0.2,0.1,0.5,0.1,0.8,0.1c0.7,0,1.3-0.2,1.8-0.6c0.5-0.4,1-1.2,1.6-2.3l0.5-1.2
		L257.4,130.7z"/>
	<path d="M283.3,123.7v21.8h-2.4v-18.8l-4.4,1.3l-0.6-1.4l5.7-3H283.3z"/>
	<path d="M293.1,124.4l0.7-2.2c1.4,0.7,2.7,1.5,3.9,2.5c1.2,1,2.2,2.2,3,3.4c0.8,1.3,1.4,2.6,1.9,4.1c0.4,1.5,0.7,3,0.7,4.5
		c0,1.6-0.2,3.1-0.7,4.6c-0.5,1.5-1.1,2.9-1.9,4.2s-1.8,2.5-3,3.5c-1.2,1-2.5,1.9-3.9,2.6l-0.7-2.1c1.2-0.6,2.2-1.4,3.2-2.3
		c0.9-0.9,1.7-1.9,2.4-3c0.7-1.1,1.2-2.3,1.6-3.5c0.4-1.2,0.5-2.5,0.5-3.8c0-1.3-0.2-2.6-0.5-3.8c-0.4-1.2-0.9-2.4-1.5-3.5
		c-0.6-1.1-1.4-2.1-2.4-2.9C295.2,125.8,294.2,125,293.1,124.4z"/>
</g>
<circle cx="712.6" cy="760.7" r="5"/>
<g>
	<path d="M705,773.3l-0.4,0c-0.1,0-0.2,0-0.3,0.1c-2.1,1.2-3.7,2.9-4.8,5c-1.1,2.1-1.7,4.5-1.7,7.1c0,1.3,0.2,2.6,0.5,3.9
		c0.3,1.3,0.9,2.5,1.5,3.6c0.7,1.2,1.5,2.2,2.4,3.2c0.9,1,2,1.8,3.2,2.5l-1.1,1.9c-1.4-0.7-2.6-1.6-3.7-2.7c-1.1-1.1-2-2.2-2.8-3.6
		c-0.8-1.3-1.3-2.7-1.8-4.2c-0.4-1.5-0.6-3.1-0.6-4.6s0.2-3.1,0.6-4.6c0.4-1.5,1-2.8,1.8-4.1c0.8-1.2,1.7-2.4,2.8-3.3
		c1.1-1,2.3-1.7,3.7-2.3l1,2.1C705.2,773.2,705.1,773.3,705,773.3z"/>
	<path d="M720.7,778.4h2.6l-5.2,7.8l5.9,8.2h-2.9l-4.4-6.2l-4.2,6.2h-2.9l5.6-8.1l-5.5-7.9h2.8l4.2,5.9L720.7,778.4z"/>
	<path d="M728.3,776c0.6-1.1,1.5-2,2.6-2.6c1.1-0.6,2.3-0.9,3.5-0.9c0.9,0,1.7,0.2,2.5,0.5c0.8,0.3,1.4,0.8,2,1.3
		c0.6,0.6,1,1.2,1.4,2c0.3,0.7,0.5,1.5,0.5,2.4c0,0.7-0.1,1.3-0.3,1.9c-0.2,0.6-0.5,1.2-0.8,1.7c-0.3,0.5-0.7,1.1-1.1,1.6
		c-0.4,0.5-0.9,1-1.3,1.4l-2.1,2c-0.3,0.3-0.6,0.6-1,1c-0.4,0.4-0.7,0.8-1.1,1.2c-0.4,0.4-0.7,0.9-1.1,1.4c-0.3,0.5-0.7,1-0.9,1.5
		h9.1c0.1,0,0.2-0.1,0.4-0.2c0.1-0.1,0.2-0.2,0.4-0.2h0.1v2.5h-12.8v-1.5c0.9-1.7,1.8-3.2,2.8-4.4c1-1.2,2-2.3,2.9-3.1l1.7-1.5
		c0.6-0.5,1.1-1,1.4-1.5c0.4-0.5,0.6-0.9,0.9-1.3c0.2-0.4,0.3-0.8,0.4-1.2c0.1-0.4,0.1-0.8,0.1-1.2c0-0.5-0.1-1-0.3-1.5
		c-0.2-0.5-0.5-0.9-0.9-1.3c-0.4-0.4-0.8-0.7-1.3-0.9c-0.5-0.2-1-0.3-1.5-0.3c-0.6,0-1.1,0.1-1.6,0.3c-0.5,0.2-0.9,0.4-1.3,0.6
		c-0.4,0.2-0.6,0.5-0.9,0.8c-0.2,0.3-0.3,0.5-0.4,0.7c0,0.2-0.1,0.4-0.1,0.4L728.3,776z"/>
	<path d="M753.7,793.7c0,1.8-1.2,4-3.7,6.6l-1.2-1c0.7-0.6,1.2-1.3,1.6-2c0.4-0.7,0.6-1.3,0.6-1.7c0-0.2-0.1-0.4-0.3-0.6
		s-0.4-0.4-0.6-0.6s-0.4-0.4-0.6-0.6c-0.2-0.2-0.3-0.5-0.3-0.8c0-0.6,0.2-1.1,0.6-1.5c0.4-0.4,0.9-0.6,1.5-0.6
		c0.6,0,1.2,0.3,1.6,0.8S753.7,792.8,753.7,793.7z"/>
	<path d="M780.1,779.5l-0.5-1.1h3c0,0.2,0,0.3-0.1,0.5c0,0.1-0.1,0.3-0.1,0.4c0,0.1,0,0.2,0.1,0.2l4.8,11.8l3-8.6
		c0.3-0.8,0.5-1.6,0.7-2.3c0.2-0.7,0.3-1.4,0.5-1.9h2.6c-0.2,0.6-0.4,1.3-0.7,2.1s-0.5,1.6-0.9,2.6l-4.3,11.4l-0.7,1.8
		c-0.6,1.6-1.3,2.7-2.2,3.3c-0.9,0.6-1.9,1-3,1c-1.5,0-2.7-0.5-3.7-1.4l1.3-2.2c0.1,0.1,0.1,0.2,0.2,0.3c0,0.2,0.1,0.3,0.1,0.3
		c0.2,0.2,0.4,0.4,0.5,0.5c0.2,0.1,0.3,0.2,0.6,0.3c0.2,0.1,0.5,0.1,0.8,0.1c0.7,0,1.3-0.2,1.8-0.6c0.5-0.4,1-1.2,1.6-2.3l0.5-1.2
		L780.1,779.5z"/>
	<path d="M798.3,776c0.6-1.1,1.5-2,2.6-2.6c1.1-0.6,2.3-0.9,3.5-0.9c0.9,0,1.7,0.2,2.5,0.5c0.8,0.3,1.4,0.8,2,1.3
		c0.6,0.6,1,1.2,1.4,2c0.3,0.7,0.5,1.5,0.5,2.4c0,0.7-0.1,1.3-0.3,1.9c-0.2,0.6-0.5,1.2-0.8,1.7c-0.3,0.5-0.7,1.1-1.1,1.6
		c-0.4,0.5-0.9,1-1.3,1.4l-2.1,2c-0.3,0.3-0.6,0.6-1,1c-0.4,0.4-0.7,0.8-1.1,1.2c-0.4,0.4-0.7,0.9-1.1,1.4c-0.3,0.5-0.7,1-0.9,1.5
		h9.1c0.1,0,0.2-0.1,0.4-0.2c0.1-0.1,0.2-0.2,0.4-0.2h0.1v2.5h-12.8v-1.5c0.9-1.7,1.8-3.2,2.8-4.4c1-1.2,2-2.3,2.9-3.1l1.7-1.5
		c0.6-0.5,1.1-1,1.4-1.5c0.4-0.5,0.6-0.9,0.9-1.3c0.2-0.4,0.3-0.8,0.4-1.2c0.1-0.4,0.1-0.8,0.1-1.2c0-0.5-0.1-1-0.3-1.5
		c-0.2-0.5-0.5-0.9-0.9-1.3c-0.4-0.4-0.8-0.7-1.3-0.9c-0.5-0.2-1-0.3-1.5-0.3c-0.6,0-1.1,0.1-1.6,0.3c-0.5,0.2-0.9,0.4-1.3,0.6
		c-0.4,0.2-0.6,0.5-0.9,0.8c-0.2,0.3-0.3,0.5-0.4,0.7c0,0.2-0.1,0.4-0.1,0.4L798.3,776z"/>
	<path d="M815.8,773.3l0.7-2.2c1.4,0.7,2.7,1.5,3.9,2.5c1.2,1,2.2,2.2,3,3.4c0.8,1.3,1.4,2.6,1.9,4.1c0.4,1.5,0.7,3,0.7,4.5
		c0,1.6-0.2,3.1-0.7,4.6c-0.5,1.5-1.1,2.9-1.9,4.2s-1.8,2.5-3,3.5c-1.2,1-2.5,1.9-3.9,2.6l-0.7-2.1c1.2-0.6,2.2-1.4,3.2-2.3
		c0.9-0.9,1.7-1.9,2.4-3c0.7-1.1,1.2-2.3,1.6-3.5c0.4-1.2,0.5-2.5,0.5-3.8c0-1.3-0.2-2.6-0.5-3.8c-0.4-1.2-0.9-2.4-1.5-3.5
		s-1.4-2.1-2.4-2.9C817.9,774.6,816.9,773.9,815.8,773.3z"/>
</g>
<line class="st8" x1="231.1" y1="161.4" x2="712.8" y2="760.9"/>
</svg>
