<?xml version="1.0" encoding="utf-8"?>
<!-- Generator: Adobe Illustrator 19.2.1, SVG Export Plug-In . SVG Version: 6.00 Build 0)  -->
<svg version="1.1" id="Layer_1" xmlns="http://www.w3.org/2000/svg" xmlns:xlink="http://www.w3.org/1999/xlink" x="0px" y="0px"
	 viewBox="0 0 1000 1000" style="enable-background:new 0 0 1000 1000;" xml:space="preserve">
<style type="text/css">
	.st0{fill:none;stroke:#58595B;stroke-width:3;stroke-miterlimit:10;}
	.st1{fill:#FFFFFF;stroke:#000000;stroke-width:1.5;stroke-miterlimit:10;}
	.st2{fill:none;stroke:#58595B;stroke-width:1.5;stroke-miterlimit:10;}
	.st3{fill:#58595B;}
	.st4{fill:none;stroke:#58595B;stroke-width:4.2426;stroke-miterlimit:10;}
	.st5{fill:#FFFFFF;stroke:#000000;stroke-width:1.4591;stroke-miterlimit:10;}
	.st6{fill:none;stroke:#58595B;stroke-width:1.4661;stroke-miterlimit:10;}
	.st7{fill:none;stroke:#58595B;stroke-width:1.9664;stroke-miterlimit:10;}
	.st8{fill:none;stroke:#000000;stroke-width:1.5;stroke-miterlimit:10;}
	.st9{fill:none;stroke:#000000;stroke-width:1.5886;stroke-miterlimit:10;}
	.st10{fill:none;stroke:#000000;stroke-width:1.5964;stroke-miterlimit:10;}
</style>
<rect class="st0" width="1000" height="1000"/>
<g>
	<path d="M354.2,901.8h2.6l-0.1,3.1c0.5-1.1,1.3-2,2.3-2.6c1.1-0.6,2.2-0.9,3.4-0.9c1.7,0,3.2,0.6,4.3,1.8l-1.2,2.4
		c-0.3-0.4-0.5-0.6-0.7-0.9c-0.2-0.2-0.4-0.4-0.7-0.6c-0.2-0.2-0.5-0.3-0.8-0.4c-0.3-0.1-0.7-0.1-1.1-0.1c-0.8,0-1.5,0.2-2.2,0.5
		c-0.7,0.4-1.3,0.8-1.8,1.4c-0.5,0.6-0.9,1.3-1.2,2c-0.3,0.8-0.5,1.6-0.5,2.4v7.8h-2.5V901.8z"/>
	<path d="M377.3,901.4c0.8,0,1.7,0.2,2.5,0.5c0.8,0.3,1.5,0.8,2.1,1.4c0.6,0.6,1.1,1.4,1.4,2.4c0.4,1,0.5,2.1,0.5,3.4
		c0,0.2,0,0.4,0,0.6c0,0.2,0,0.4-0.1,0.6h-11.4c0,1.1,0.2,2.1,0.6,2.8c0.3,0.8,0.8,1.4,1.3,1.8c0.5,0.5,1.1,0.8,1.7,1
		c0.6,0.2,1.3,0.3,1.9,0.3c1.7,0,3-0.6,4.1-1.8l1.4,1.4c-1.4,1.6-3.2,2.5-5.6,2.5c-1.2,0-2.2-0.2-3.2-0.5c-1-0.4-1.8-0.9-2.5-1.6
		c-0.7-0.7-1.2-1.6-1.6-2.6c-0.4-1-0.6-2.2-0.6-3.6c0-1.4,0.2-2.6,0.6-3.6c0.4-1.1,0.9-1.9,1.6-2.6c0.7-0.7,1.4-1.3,2.3-1.6
		C375.3,901.6,376.3,901.4,377.3,901.4z M372.5,908.1h8.8c0-0.1,0-0.2,0-0.3c0-0.1,0-0.2,0-0.3c0-0.6-0.1-1.1-0.3-1.6
		c-0.2-0.5-0.5-1-0.9-1.3c-0.4-0.4-0.8-0.7-1.3-0.9c-0.5-0.2-1-0.3-1.6-0.3c-1.1,0-2.1,0.4-3,1.2
		C373.3,905.2,372.7,906.4,372.5,908.1z"/>
	<path d="M401.8,904.4l-1.8,2.1c-0.1-0.1-0.2-0.1-0.2-0.2c0-0.1,0-0.2,0-0.3c0-0.1-0.1-0.3-0.3-0.5c-0.1-0.2-0.4-0.5-0.8-0.8
		c-0.8-0.7-1.9-1-3.3-1c-0.7,0-1.3,0.1-2,0.4c-0.6,0.3-1.2,0.7-1.6,1.2c-0.5,0.5-0.8,1.2-1.1,1.9s-0.4,1.6-0.4,2.5
		c0,0.9,0.1,1.7,0.4,2.5c0.3,0.8,0.7,1.4,1.2,2c0.5,0.6,1.1,1,1.8,1.3c0.7,0.3,1.4,0.5,2.3,0.5c1.6,0,3-0.6,4.2-1.9l1.5,1.7
		c-1.6,1.7-3.5,2.5-5.8,2.5c-1.1,0-2.2-0.2-3.2-0.6s-1.8-1-2.5-1.8c-0.7-0.7-1.3-1.6-1.7-2.6c-0.4-1-0.6-2.1-0.6-3.3
		c0-1.2,0.2-2.3,0.6-3.3c0.4-1,1-1.9,1.7-2.6c0.7-0.7,1.6-1.3,2.6-1.7c1-0.4,2.1-0.6,3.2-0.6c1.3,0,2.4,0.3,3.4,0.8
		C400.3,902.8,401.1,903.5,401.8,904.4z"/>
	<path d="M409.8,897.5l2.7-0.5c0,0.2,0,0.4-0.1,0.6c-0.1,0.2-0.1,0.3-0.1,0.4l-0.4,3.8h5.2v2h-5.2c-0.2,2.1-0.3,4-0.3,5.9
		c0,1.1,0,2.1,0.1,2.9s0.2,1.4,0.4,1.8c0.2,0.4,0.5,0.8,0.9,1c0.4,0.2,0.9,0.4,1.5,0.4c1.1,0,2.3-0.5,3.6-1.5l0.8,2
		c-1.6,1.2-3.3,1.8-5,1.8c-1.7,0-2.9-0.5-3.7-1.5c-0.8-1-1.1-2.7-1-5c0-0.8,0-1.9,0.1-3.2c0-1.3,0.1-2.8,0.3-4.6h-3.7v-2h3.8
		L409.8,897.5z"/>
	<path d="M435.2,896.7l-0.4,0c-0.1,0-0.2,0-0.3,0.1c-2.1,1.2-3.7,2.9-4.8,5c-1.1,2.1-1.7,4.5-1.7,7.1c0,1.3,0.2,2.6,0.5,3.9
		c0.3,1.3,0.9,2.5,1.5,3.6c0.7,1.2,1.5,2.2,2.4,3.2s2,1.8,3.2,2.5l-1.1,1.9c-1.4-0.7-2.6-1.6-3.7-2.7c-1.1-1.1-2-2.2-2.8-3.6
		c-0.8-1.3-1.3-2.7-1.8-4.2c-0.4-1.5-0.6-3.1-0.6-4.6s0.2-3.1,0.6-4.6c0.4-1.5,1-2.8,1.8-4.1c0.8-1.2,1.7-2.4,2.8-3.3
		c1.1-1,2.3-1.7,3.7-2.3l1,2.1C435.4,896.6,435.3,896.7,435.2,896.7z"/>
	<path d="M441.4,903.7c1.4-1.5,3.3-2.2,5.7-2.2c2,0,3.5,0.5,4.6,1.5c1.1,1,1.7,2.6,1.7,5v9.9h-2.4V916c-1.7,1.4-3.6,2.1-5.7,2.1
		c-0.8,0-1.6-0.1-2.3-0.4s-1.2-0.6-1.7-1s-0.8-0.9-1.1-1.4c-0.2-0.5-0.4-1.1-0.4-1.6c0-1.6,0.7-2.9,2.1-3.8c1.4-0.9,3.4-1.4,6-1.5h3
		v-0.6c0-1.6-0.3-2.7-1-3.3s-1.7-1-3.1-1c-1.7,0-3.2,0.6-4.3,1.8L441.4,903.7z M451.2,910.3h-0.6c-0.3,0-0.6,0-0.9,0
		c-0.3,0-0.6,0-0.9,0c-1.3,0-2.3,0.1-3.2,0.3c-0.8,0.2-1.5,0.4-1.9,0.7c-0.5,0.3-0.8,0.6-1,1c-0.2,0.4-0.3,0.8-0.3,1.2
		c0,0.7,0.3,1.4,1,1.9c0.7,0.5,1.5,0.8,2.4,0.8c0.7,0,1.3-0.1,1.9-0.3c0.6-0.2,1-0.5,1.5-0.8c0.4-0.3,0.8-0.6,1-1
		c0.3-0.3,0.4-0.6,0.6-0.9c0.2-0.5,0.4-1.1,0.4-1.9V910.3z"/>
	<path d="M466.5,917.1c0,1.8-1.2,4-3.7,6.6l-1.2-1c0.7-0.6,1.2-1.3,1.6-2c0.4-0.7,0.6-1.3,0.6-1.7c0-0.2-0.1-0.4-0.3-0.6
		c-0.2-0.2-0.4-0.4-0.6-0.6c-0.2-0.2-0.4-0.4-0.6-0.6c-0.2-0.2-0.3-0.5-0.3-0.8c0-0.6,0.2-1.1,0.6-1.5c0.4-0.4,0.9-0.6,1.5-0.6
		c0.6,0,1.2,0.3,1.6,0.8C466.2,915.5,466.5,916.2,466.5,917.1z"/>
	<path d="M492.9,894.5h2.9v0.1c0,0.1-0.1,0.2-0.2,0.3c-0.1,0.1-0.2,0.2-0.2,0.4v9c0.5-0.9,1.2-1.6,2.1-2.1s1.8-0.8,2.7-0.8
		c0.9,0,1.7,0.2,2.5,0.5c0.8,0.3,1.5,0.9,2.1,1.5c0.6,0.7,1.1,1.5,1.4,2.6s0.5,2.2,0.5,3.6c0,1.4-0.2,2.7-0.6,3.8
		c-0.4,1.1-0.9,1.9-1.5,2.7c-0.6,0.7-1.3,1.2-2.1,1.6c-0.8,0.4-1.6,0.5-2.5,0.5c-1,0-1.9-0.2-2.7-0.7c-0.8-0.4-1.5-1.1-2-1.8
		l-0.9,2.1h-1.6V894.5z M497.2,915.2c0.4,0.2,0.8,0.4,1.2,0.5s0.7,0.1,1,0.1c0.5,0,1-0.1,1.6-0.3c0.6-0.2,1.1-0.5,1.6-0.9
		c0.5-0.4,0.9-1,1.2-1.8c0.3-0.7,0.5-1.7,0.5-2.8c0-2.1-0.4-3.7-1.3-4.8c-0.9-1.1-2.1-1.7-3.8-1.7c-0.6,0-1.2,0.2-1.9,0.6
		c-0.7,0.4-1.1,1-1.5,1.7c-0.3,0.7-0.4,1.8-0.4,3.4c0,1,0,1.8,0.1,2.5c0,0.7,0.1,1.2,0.3,1.7c0.1,0.5,0.3,0.8,0.6,1.1
		C496.5,914.8,496.8,915,497.2,915.2z"/>
	<path d="M519,917.1c0,1.8-1.2,4-3.7,6.6l-1.2-1c0.7-0.6,1.2-1.3,1.6-2c0.4-0.7,0.6-1.3,0.6-1.7c0-0.2-0.1-0.4-0.3-0.6
		c-0.2-0.2-0.4-0.4-0.6-0.6c-0.2-0.2-0.4-0.4-0.6-0.6c-0.2-0.2-0.3-0.5-0.3-0.8c0-0.6,0.2-1.1,0.6-1.5c0.4-0.4,0.9-0.6,1.5-0.6
		c0.6,0,1.2,0.3,1.6,0.8C518.7,915.5,519,916.2,519,917.1z"/>
	<path d="M559.3,904.4l-1.8,2.1c-0.1-0.1-0.2-0.1-0.2-0.2c0-0.1,0-0.2,0-0.3c0-0.1-0.1-0.3-0.3-0.5c-0.1-0.2-0.4-0.5-0.8-0.8
		c-0.8-0.7-1.9-1-3.3-1c-0.7,0-1.3,0.1-2,0.4c-0.6,0.3-1.2,0.7-1.6,1.2c-0.5,0.5-0.8,1.2-1.1,1.9s-0.4,1.6-0.4,2.5
		c0,0.9,0.1,1.7,0.4,2.5c0.3,0.8,0.7,1.4,1.2,2c0.5,0.6,1.1,1,1.8,1.3c0.7,0.3,1.4,0.5,2.3,0.5c1.6,0,3-0.6,4.2-1.9l1.5,1.7
		c-1.6,1.7-3.5,2.5-5.8,2.5c-1.1,0-2.2-0.2-3.2-0.6s-1.8-1-2.5-1.8c-0.7-0.7-1.3-1.6-1.7-2.6c-0.4-1-0.6-2.1-0.6-3.3
		c0-1.2,0.2-2.3,0.6-3.3c0.4-1,1-1.9,1.7-2.6c0.7-0.7,1.6-1.3,2.6-1.7c1-0.4,2.1-0.6,3.2-0.6c1.3,0,2.4,0.3,3.4,0.8
		C557.8,902.8,558.6,903.5,559.3,904.4z"/>
	<path d="M571.5,917.1c0,1.8-1.2,4-3.7,6.6l-1.2-1c0.7-0.6,1.2-1.3,1.6-2c0.4-0.7,0.6-1.3,0.6-1.7c0-0.2-0.1-0.4-0.3-0.6
		c-0.2-0.2-0.4-0.4-0.6-0.6c-0.2-0.2-0.4-0.4-0.6-0.6c-0.2-0.2-0.3-0.5-0.3-0.8c0-0.6,0.2-1.1,0.6-1.5c0.4-0.4,0.9-0.6,1.5-0.6
		c0.6,0,1.2,0.3,1.6,0.8C571.2,915.5,571.5,916.2,571.5,917.1z"/>
	<path d="M608.7,904.1v-9.6h2.7c0,0.1-0.1,0.3-0.2,0.5c-0.1,0.2-0.2,0.3-0.2,0.5l0,20.8c0,0.6,0.1,1.1,0.2,1.5h-2.6
		c-0.1-0.3-0.1-0.7-0.1-1.2v-1.4c-0.5,0.9-1.2,1.6-2.1,2.1c-0.9,0.5-1.8,0.8-2.7,0.8c-0.9,0-1.7-0.2-2.5-0.5
		c-0.8-0.4-1.5-0.9-2.1-1.6c-0.6-0.7-1.1-1.6-1.4-2.6c-0.3-1.1-0.5-2.3-0.5-3.8c0-1.5,0.2-2.7,0.6-3.8c0.4-1,0.9-1.9,1.6-2.6
		c0.6-0.7,1.4-1.2,2.1-1.5c0.8-0.3,1.6-0.5,2.4-0.5c1.1,0,2.1,0.3,2.9,0.8C607.7,902.6,608.3,903.3,608.7,904.1z M601.3,904.6
		c-1,0.9-1.5,2.5-1.5,4.6c0,2,0.4,3.6,1.1,4.9c0.8,1.2,1.9,1.8,3.4,1.8c0.3,0,0.7-0.1,1.1-0.2c0.4-0.1,0.8-0.3,1.1-0.6
		s0.7-0.6,0.9-0.9s0.5-0.7,0.6-1.2c0.3-0.8,0.4-2,0.4-3.4c0-0.9,0-1.6-0.1-2.2c-0.1-0.6-0.2-1.1-0.3-1.5c-0.1-0.4-0.3-0.8-0.6-1
		s-0.5-0.5-0.9-0.7c-0.4-0.3-0.8-0.5-1.2-0.6c-0.4-0.1-0.7-0.2-1-0.2c-0.7,0-1.2,0.1-1.7,0.3S601.8,904.1,601.3,904.6z"/>
	<path d="M616,896.7l0.7-2.2c1.4,0.7,2.7,1.5,3.9,2.5c1.2,1,2.2,2.2,3,3.4c0.8,1.3,1.4,2.6,1.9,4.1c0.4,1.5,0.7,3,0.7,4.5
		c0,1.6-0.2,3.1-0.7,4.6c-0.5,1.5-1.1,2.9-1.9,4.2c-0.8,1.3-1.8,2.5-3,3.5c-1.2,1-2.5,1.9-3.9,2.6l-0.7-2.1c1.2-0.6,2.2-1.4,3.2-2.3
		s1.7-1.9,2.4-3c0.7-1.1,1.2-2.3,1.6-3.5c0.4-1.2,0.5-2.5,0.5-3.8c0-1.3-0.2-2.6-0.5-3.8c-0.4-1.2-0.9-2.4-1.5-3.5s-1.4-2.1-2.4-2.9
		C618.1,898,617.1,897.3,616,896.7z"/>
	<path d="M641.5,917.1c0,1.8-1.2,4-3.7,6.6l-1.2-1c0.7-0.6,1.2-1.3,1.6-2c0.4-0.7,0.6-1.3,0.6-1.7c0-0.2-0.1-0.4-0.3-0.6
		s-0.4-0.4-0.6-0.6s-0.4-0.4-0.6-0.6c-0.2-0.2-0.3-0.5-0.3-0.8c0-0.6,0.2-1.1,0.6-1.5c0.4-0.4,0.9-0.6,1.5-0.6
		c0.6,0,1.2,0.3,1.6,0.8C641.2,915.5,641.5,916.2,641.5,917.1z M640.6,903.5c0.4,0.4,0.6,0.9,0.6,1.4c0,0.5-0.2,1-0.6,1.4
		c-0.4,0.4-0.9,0.6-1.5,0.6c-0.5,0-1-0.2-1.4-0.6c-0.4-0.4-0.6-0.9-0.6-1.4c0-0.6,0.2-1,0.6-1.4c0.4-0.4,0.9-0.6,1.4-0.6
		C639.6,903,640.1,903.1,640.6,903.5z"/>
</g>
<rect x="322.8" y="115.9" class="st1" width="350" height="675"/>
<circle cx="322.9" cy="115.9" r="5"/>
<g>
	<g>
		<line class="st2" x1="702.1" y1="126.7" x2="702.1" y2="780.1"/>
		<g>
			<polygon class="st3" points="694.6,128.9 702.1,115.9 709.6,128.9 			"/>
		</g>
		<g>
			<polygon class="st3" points="694.6,778 702.1,790.9 709.6,778 			"/>
		</g>
	</g>
</g>
<g>
	<g>
		<line class="st2" x1="662.1" y1="819.4" x2="333.6" y2="819.4"/>
		<g>
			<polygon class="st3" points="659.9,811.9 672.8,819.4 659.9,826.9 			"/>
		</g>
		<g>
			<polygon class="st3" points="335.8,811.9 322.8,819.4 335.8,826.9 			"/>
		</g>
	</g>
</g>
<g>
	<path d="M280.7,71.7l-0.4,0c-0.1,0-0.2,0-0.3,0.1c-2.1,1.2-3.7,2.9-4.8,5c-1.1,2.1-1.7,4.5-1.7,7.1c0,1.3,0.2,2.6,0.5,3.9
		c0.3,1.3,0.9,2.5,1.5,3.6c0.7,1.2,1.5,2.2,2.4,3.2c0.9,1,2,1.8,3.2,2.5l-1.1,1.9c-1.4-0.7-2.6-1.6-3.7-2.7c-1.1-1.1-2-2.2-2.8-3.6
		c-0.8-1.3-1.3-2.7-1.8-4.2c-0.4-1.5-0.6-3.1-0.6-4.6s0.2-3.1,0.6-4.6c0.4-1.5,1-2.8,1.8-4.1c0.8-1.2,1.7-2.4,2.8-3.3
		c1.1-1,2.3-1.7,3.7-2.3l1,2.1C280.9,71.7,280.8,71.7,280.7,71.7z"/>
	<path d="M286.9,78.7c1.4-1.5,3.3-2.2,5.7-2.2c2,0,3.5,0.5,4.6,1.5c1.1,1,1.7,2.6,1.7,5v9.9h-2.4V91c-1.7,1.4-3.6,2.1-5.7,2.1
		c-0.8,0-1.6-0.1-2.3-0.4s-1.2-0.6-1.7-1s-0.8-0.9-1.1-1.4c-0.2-0.5-0.4-1.1-0.4-1.6c0-1.6,0.7-2.9,2.1-3.8c1.4-0.9,3.4-1.4,6-1.5h3
		v-0.6c0-1.6-0.3-2.7-1-3.3s-1.7-1-3.1-1c-1.7,0-3.2,0.6-4.3,1.8L286.9,78.7z M296.7,85.3h-0.6c-0.3,0-0.6,0-0.9,0
		c-0.3,0-0.6,0-0.9,0c-1.3,0-2.3,0.1-3.2,0.3c-0.8,0.2-1.5,0.4-1.9,0.7c-0.5,0.3-0.8,0.6-1,1c-0.2,0.4-0.3,0.8-0.3,1.2
		c0,0.7,0.3,1.4,1,1.9c0.7,0.5,1.5,0.8,2.4,0.8c0.7,0,1.3-0.1,1.9-0.3c0.6-0.2,1-0.5,1.5-0.8c0.4-0.3,0.8-0.6,1-1
		c0.3-0.3,0.4-0.6,0.6-0.9c0.2-0.5,0.4-1.1,0.4-1.9V85.3z"/>
	<path d="M312,92.1c0,1.8-1.2,4-3.7,6.6l-1.2-1c0.7-0.6,1.2-1.3,1.6-2c0.4-0.7,0.6-1.3,0.6-1.7c0-0.2-0.1-0.4-0.3-0.6
		s-0.4-0.4-0.6-0.6s-0.4-0.4-0.6-0.6c-0.2-0.2-0.3-0.5-0.3-0.8c0-0.6,0.2-1.1,0.6-1.5c0.4-0.4,0.9-0.6,1.5-0.6
		c0.6,0,1.2,0.3,1.6,0.8S312,91.2,312,92.1z"/>
	<path d="M341.3,69.5h2.9v0.1c0,0.1-0.1,0.2-0.2,0.3c-0.1,0.1-0.2,0.2-0.2,0.4v9c0.5-0.9,1.2-1.6,2.1-2.1s1.8-0.8,2.7-0.8
		c0.9,0,1.7,0.2,2.5,0.5c0.8,0.3,1.5,0.9,2.1,1.5c0.6,0.7,1.1,1.5,1.4,2.6c0.4,1,0.5,2.2,0.5,3.6c0,1.4-0.2,2.7-0.6,3.8
		c-0.4,1.1-0.9,1.9-1.5,2.7c-0.6,0.7-1.3,1.2-2.1,1.6c-0.8,0.4-1.6,0.5-2.5,0.5c-1,0-1.9-0.2-2.7-0.7c-0.8-0.4-1.5-1.1-2-1.8
		l-0.9,2.1h-1.6V69.5z M345.7,90.3c0.4,0.2,0.8,0.4,1.2,0.5s0.7,0.1,1,0.1c0.5,0,1-0.1,1.6-0.3c0.6-0.2,1.1-0.5,1.6-0.9
		s0.9-1,1.2-1.8c0.3-0.7,0.5-1.7,0.5-2.8c0-2.1-0.4-3.7-1.3-4.8c-0.9-1.1-2.1-1.7-3.8-1.7c-0.6,0-1.2,0.2-1.9,0.6
		c-0.7,0.4-1.1,1-1.5,1.7c-0.3,0.7-0.4,1.8-0.4,3.4c0,1,0,1.8,0.1,2.5c0,0.7,0.1,1.2,0.3,1.7c0.1,0.5,0.3,0.8,0.6,1.1
		C345,89.8,345.3,90.1,345.7,90.3z"/>
	<path d="M359.5,71.7l0.7-2.2c1.4,0.7,2.7,1.5,3.9,2.5c1.2,1,2.2,2.2,3,3.4c0.8,1.3,1.4,2.6,1.9,4.1c0.4,1.5,0.7,3,0.7,4.5
		c0,1.6-0.2,3.1-0.7,4.6c-0.5,1.5-1.1,2.9-1.9,4.2s-1.8,2.5-3,3.5c-1.2,1-2.5,1.9-3.9,2.6l-0.7-2.1c1.2-0.6,2.2-1.4,3.2-2.3
		c0.9-0.9,1.7-1.9,2.4-3c0.7-1.1,1.2-2.3,1.6-3.5c0.4-1.2,0.5-2.5,0.5-3.8c0-1.3-0.2-2.6-0.5-3.8c-0.4-1.2-0.9-2.4-1.5-3.5
		s-1.4-2.1-2.4-2.9C361.6,73,360.6,72.3,359.5,71.7z"/>
</g>
<g>
	<path d="M728.7,450.3v-9.6h2.7c0,0.1-0.1,0.3-0.2,0.5c-0.1,0.2-0.2,0.3-0.2,0.5l0,20.8c0,0.6,0.1,1.1,0.2,1.5h-2.6
		c-0.1-0.3-0.1-0.7-0.1-1.2v-1.4c-0.5,0.9-1.2,1.6-2.1,2.1s-1.8,0.8-2.7,0.8c-0.9,0-1.7-0.2-2.5-0.5c-0.8-0.4-1.5-0.9-2.1-1.6
		c-0.6-0.7-1.1-1.6-1.4-2.6c-0.3-1.1-0.5-2.3-0.5-3.8c0-1.5,0.2-2.7,0.6-3.8c0.4-1,0.9-1.9,1.6-2.6c0.6-0.7,1.4-1.2,2.1-1.5
		c0.8-0.3,1.6-0.5,2.4-0.5c1.1,0,2.1,0.3,2.9,0.8C727.7,448.8,728.3,449.4,728.7,450.3z M721.3,450.7c-1,0.9-1.5,2.5-1.5,4.6
		c0,2,0.4,3.6,1.1,4.9c0.8,1.2,1.9,1.8,3.4,1.8c0.3,0,0.7-0.1,1.1-0.2c0.4-0.1,0.8-0.3,1.1-0.6c0.3-0.3,0.7-0.6,0.9-0.9
		c0.3-0.4,0.5-0.7,0.6-1.2c0.3-0.8,0.4-2,0.4-3.4c0-0.9,0-1.6-0.1-2.2s-0.2-1.1-0.3-1.5s-0.3-0.8-0.6-1c-0.2-0.3-0.5-0.5-0.9-0.7
		c-0.4-0.3-0.8-0.5-1.2-0.6c-0.4-0.1-0.7-0.2-1-0.2c-0.7,0-1.2,0.1-1.7,0.3S721.8,450.3,721.3,450.7z"/>
</g>
<g>
	<path d="M504.1,839.4l-1.8,2.1c-0.1-0.1-0.2-0.1-0.2-0.2c0-0.1,0-0.2,0-0.3c0-0.1-0.1-0.3-0.3-0.5s-0.4-0.5-0.8-0.8
		c-0.8-0.7-1.9-1-3.3-1c-0.7,0-1.3,0.1-2,0.4c-0.6,0.3-1.2,0.7-1.6,1.2s-0.8,1.2-1.1,1.9s-0.4,1.6-0.4,2.5c0,0.9,0.1,1.7,0.4,2.5
		c0.3,0.8,0.7,1.4,1.2,2c0.5,0.6,1.1,1,1.8,1.3c0.7,0.3,1.4,0.5,2.3,0.5c1.6,0,3-0.6,4.2-1.9l1.5,1.7c-1.6,1.7-3.5,2.5-5.8,2.5
		c-1.1,0-2.2-0.2-3.2-0.6c-1-0.4-1.8-1-2.5-1.8c-0.7-0.7-1.3-1.6-1.7-2.6c-0.4-1-0.6-2.1-0.6-3.3c0-1.2,0.2-2.3,0.6-3.3
		c0.4-1,1-1.9,1.7-2.6c0.7-0.7,1.6-1.3,2.6-1.7c1-0.4,2.1-0.6,3.2-0.6c1.3,0,2.4,0.3,3.4,0.8C502.6,837.7,503.4,838.4,504.1,839.4z"
		/>
</g>
</svg>
