<?xml version="1.0" encoding="utf-8"?>
<!-- Generator: Adobe Illustrator 19.2.1, SVG Export Plug-In . SVG Version: 6.00 Build 0)  -->
<svg version="1.1" id="Layer_1" xmlns="http://www.w3.org/2000/svg" xmlns:xlink="http://www.w3.org/1999/xlink" x="0px" y="0px"
	 viewBox="0 0 2000 1000" style="enable-background:new 0 0 2000 1000;" xml:space="preserve">
<style type="text/css">
	.st0{fill:none;stroke:#58595B;stroke-width:3;stroke-miterlimit:10;}
	.st1{fill:#FFFFFF;stroke:#000000;stroke-width:1.5;stroke-miterlimit:10;}
	.st2{fill:none;stroke:#58595B;stroke-width:1.5;stroke-miterlimit:10;}
	.st3{fill:#58595B;}
	.st4{fill:none;stroke:#58595B;stroke-width:4.2426;stroke-miterlimit:10;}
	.st5{fill:#FFFFFF;stroke:#000000;stroke-width:1.4591;stroke-miterlimit:10;}
	.st6{fill:none;stroke:#58595B;stroke-width:1.4661;stroke-miterlimit:10;}
	.st7{fill:none;stroke:#58595B;stroke-width:1.9664;stroke-miterlimit:10;}
	.st8{fill:none;stroke:#000000;stroke-width:1.5;stroke-miterlimit:10;}
	.st9{fill:none;stroke:#000000;stroke-width:1.5886;stroke-miterlimit:10;}
	.st10{fill:none;stroke:#000000;stroke-width:1.5964;stroke-miterlimit:10;}
</style>
<rect class="st4" width="2000" height="1000"/>
<g>
	<path d="M359.2,897.9h5.1c1.9,0,3.3,0.3,4.4,0.8c1,0.5,1.9,1.2,2.6,2.2c0.7,1,1.3,2.1,1.6,3.5c0.3,1.4,0.5,2.9,0.5,4.6
		c0,1.7-0.2,3.2-0.6,4.5c-0.4,1.3-1,2.5-1.7,3.4c-0.7,0.9-1.7,1.7-2.9,2.2s-2.6,0.7-4.3,0.7h-4.7V897.9z M361.5,900v17.9h2.2
		c2.5,0,4.3-0.8,5.4-2.3c1.1-1.5,1.7-3.7,1.7-6.5c0-2.9-0.6-5.1-1.6-6.7s-2.8-2.4-5.2-2.4H361.5z"/>
	<path d="M383.9,903.4c0.8,0,1.7,0.2,2.5,0.5c0.8,0.3,1.5,0.8,2.1,1.4s1.1,1.4,1.4,2.4c0.4,1,0.5,2.1,0.5,3.4c0,0.2,0,0.4,0,0.6
		c0,0.2,0,0.4-0.1,0.6H379c0,1.1,0.2,2.1,0.6,2.8c0.3,0.8,0.8,1.4,1.3,1.8c0.5,0.5,1.1,0.8,1.7,1s1.3,0.3,1.9,0.3
		c1.7,0,3-0.6,4.1-1.8l1.4,1.4c-1.4,1.6-3.2,2.5-5.6,2.5c-1.2,0-2.2-0.2-3.2-0.5c-1-0.4-1.8-0.9-2.5-1.6c-0.7-0.7-1.2-1.6-1.6-2.6
		c-0.4-1-0.6-2.2-0.6-3.6c0-1.4,0.2-2.6,0.6-3.6c0.4-1.1,0.9-1.9,1.6-2.6c0.7-0.7,1.4-1.3,2.3-1.6
		C381.9,903.5,382.9,903.4,383.9,903.4z M379.1,910.1h8.8c0-0.1,0-0.2,0-0.3c0-0.1,0-0.2,0-0.3c0-0.6-0.1-1.1-0.3-1.6
		s-0.5-1-0.9-1.3c-0.4-0.4-0.8-0.7-1.3-0.9s-1-0.3-1.6-0.3c-1.1,0-2.1,0.4-3,1.2C379.9,907.2,379.3,908.4,379.1,910.1z"/>
	<path d="M404.2,904.8c1.1-1,2.5-1.4,4-1.4h0.5l0.3,2.1c-0.2,0-0.3,0-0.5-0.1c-0.2,0-0.3,0-0.5,0c-1,0-1.9,0.2-2.8,0.7
		c0.5,0.8,0.8,1.7,0.8,2.7c0,0.7-0.2,1.5-0.5,2.1c-0.3,0.7-0.7,1.2-1.2,1.8c-0.5,0.5-1.1,0.9-1.8,1.2c-0.7,0.3-1.4,0.4-2.2,0.4
		c-0.7,0-1.3-0.1-2-0.4c-0.7,0.7-1.1,1.3-1.1,1.8c0,0.4,0.2,0.7,0.7,0.9c0.5,0.2,1.1,0.3,1.9,0.3c0.4,0,0.9,0,1.3-0.1
		c0.5,0,0.9-0.1,1.3-0.1c1,0,2,0.1,2.7,0.3c0.8,0.2,1.4,0.5,1.8,0.8c0.5,0.4,0.8,0.8,1,1.3c0.2,0.5,0.3,1,0.3,1.6
		c0,0.6-0.2,1.2-0.5,1.8c-0.3,0.6-0.8,1.1-1.4,1.6c-0.6,0.5-1.4,0.8-2.3,1.1c-0.9,0.3-2,0.4-3.2,0.4c-1.3,0-2.4-0.1-3.3-0.3
		s-1.7-0.5-2.2-0.8c-0.6-0.3-1-0.8-1.3-1.2s-0.4-0.9-0.4-1.5c0-1.3,0.9-2.4,2.6-3.5c-0.9-0.4-1.3-1.2-1.3-2.2c0-1,0.6-2,1.8-3
		c-0.7-0.5-1.3-1.1-1.8-1.9s-0.6-1.6-0.6-2.5c0-0.8,0.2-1.5,0.5-2.2c0.3-0.7,0.8-1.3,1.3-1.8c0.5-0.5,1.2-0.9,1.9-1.2
		c0.7-0.3,1.4-0.4,2.2-0.4C401.9,903.2,403.2,903.7,404.2,904.8z M398,918.9c-1.3,0.7-2,1.6-2,2.5c0,0.5,0.1,0.9,0.4,1.2
		c0.3,0.3,0.6,0.6,1.1,0.8s1,0.3,1.6,0.4s1.3,0.1,1.9,0.1c1.4,0,2.6-0.3,3.5-0.8s1.4-1.2,1.4-2.1c0-0.6-0.3-1.1-0.8-1.5
		c-0.5-0.4-1.2-0.5-2.3-0.5c-0.1,0-0.2,0-0.3,0c-0.1,0-0.2,0-0.4,0c-0.9,0-1.7,0-2.4-0.1S398.5,918.9,398,918.9z M397.8,906.3
		c-0.3,0.3-0.6,0.7-0.8,1.2s-0.2,0.9-0.2,1.3c0,0.5,0.1,0.9,0.3,1.3c0.2,0.4,0.4,0.8,0.8,1.1c0.3,0.3,0.7,0.6,1.1,0.7
		s0.9,0.3,1.3,0.3c0.5,0,0.9-0.1,1.4-0.3s0.8-0.4,1.1-0.8c0.3-0.3,0.6-0.7,0.8-1.1s0.3-0.9,0.3-1.3c0-0.5-0.1-0.9-0.3-1.3
		s-0.4-0.8-0.8-1.1c-0.3-0.3-0.7-0.6-1.1-0.8s-0.9-0.3-1.3-0.3C399.3,905.2,398.5,905.6,397.8,906.3z"/>
	<path d="M413.3,903.7h2.6l-0.1,3.1c0.5-1.1,1.3-2,2.3-2.6c1.1-0.6,2.2-0.9,3.4-0.9c1.7,0,3.2,0.6,4.3,1.8l-1.2,2.4
		c-0.3-0.3-0.5-0.6-0.7-0.9c-0.2-0.2-0.4-0.4-0.7-0.6s-0.5-0.3-0.8-0.4s-0.7-0.1-1.1-0.1c-0.8,0-1.5,0.2-2.2,0.5
		c-0.7,0.4-1.3,0.8-1.8,1.4c-0.5,0.6-0.9,1.3-1.2,2c-0.3,0.8-0.5,1.6-0.5,2.4v7.8h-2.5V903.7z"/>
	<path d="M436.4,903.4c0.8,0,1.7,0.2,2.5,0.5c0.8,0.3,1.5,0.8,2.1,1.4s1.1,1.4,1.4,2.4c0.4,1,0.5,2.1,0.5,3.4c0,0.2,0,0.4,0,0.6
		c0,0.2,0,0.4-0.1,0.6h-11.4c0,1.1,0.2,2.1,0.6,2.8c0.3,0.8,0.8,1.4,1.3,1.8c0.5,0.5,1.1,0.8,1.7,1s1.3,0.3,1.9,0.3
		c1.7,0,3-0.6,4.1-1.8l1.4,1.4c-1.4,1.6-3.2,2.5-5.6,2.5c-1.2,0-2.2-0.2-3.2-0.5c-1-0.4-1.8-0.9-2.5-1.6c-0.7-0.7-1.2-1.6-1.6-2.6
		c-0.4-1-0.6-2.2-0.6-3.6c0-1.4,0.2-2.6,0.6-3.6c0.4-1.1,0.9-1.9,1.6-2.6c0.7-0.7,1.4-1.3,2.3-1.6
		C434.4,903.5,435.4,903.4,436.4,903.4z M431.6,910.1h8.8c0-0.1,0-0.2,0-0.3c0-0.1,0-0.2,0-0.3c0-0.6-0.1-1.1-0.3-1.6
		s-0.5-1-0.9-1.3c-0.4-0.4-0.8-0.7-1.3-0.9s-1-0.3-1.6-0.3c-1.1,0-2.1,0.4-3,1.2C432.4,907.2,431.8,908.4,431.6,910.1z"/>
	<path d="M453.9,903.4c0.8,0,1.7,0.2,2.5,0.5c0.8,0.3,1.5,0.8,2.1,1.4s1.1,1.4,1.4,2.4c0.4,1,0.5,2.1,0.5,3.4c0,0.2,0,0.4,0,0.6
		c0,0.2,0,0.4-0.1,0.6H449c0,1.1,0.2,2.1,0.6,2.8c0.3,0.8,0.8,1.4,1.3,1.8c0.5,0.5,1.1,0.8,1.7,1s1.3,0.3,1.9,0.3
		c1.7,0,3-0.6,4.1-1.8l1.4,1.4c-1.4,1.6-3.2,2.5-5.6,2.5c-1.2,0-2.2-0.2-3.2-0.5c-1-0.4-1.8-0.9-2.5-1.6c-0.7-0.7-1.2-1.6-1.6-2.6
		c-0.4-1-0.6-2.2-0.6-3.6c0-1.4,0.2-2.6,0.6-3.6c0.4-1.1,0.9-1.9,1.6-2.6c0.7-0.7,1.4-1.3,2.3-1.6
		C451.9,903.5,452.9,903.4,453.9,903.4z M449.1,910.1h8.8c0-0.1,0-0.2,0-0.3c0-0.1,0-0.2,0-0.3c0-0.6-0.1-1.1-0.3-1.6
		s-0.5-1-0.9-1.3c-0.4-0.4-0.8-0.7-1.3-0.9s-1-0.3-1.6-0.3c-1.1,0-2.1,0.4-3,1.2C449.9,907.2,449.3,908.4,449.1,910.1z"/>
	<path d="M481.6,904.6l-0.3-0.9h3c0,0.2,0,0.3-0.1,0.4c0,0.1-0.1,0.2-0.1,0.3c0,0,0,0.1,0,0.1l4.7,11.7l2.6-5.9
		c0.6-1.3,1-2.5,1.4-3.6c0.4-1.1,0.6-2.1,0.8-3h2.3c-0.5,2-1.3,4.3-2.4,7l-3.9,9.1h-2L481.6,904.6z"/>
	<path d="M500.5,905.6c1.4-1.5,3.3-2.2,5.7-2.2c2,0,3.5,0.5,4.6,1.5c1.1,1,1.7,2.6,1.7,5v9.9h-2.4V918c-1.7,1.4-3.6,2.1-5.7,2.1
		c-0.8,0-1.6-0.1-2.3-0.4c-0.7-0.3-1.2-0.6-1.7-1s-0.8-0.9-1.1-1.4s-0.4-1.1-0.4-1.6c0-1.6,0.7-2.9,2.1-3.8c1.4-0.9,3.4-1.4,6-1.5h3
		v-0.6c0-1.6-0.3-2.7-1-3.3s-1.7-1-3.1-1c-1.7,0-3.2,0.6-4.3,1.8L500.5,905.6z M510.2,912.2h-0.6c-0.3,0-0.6,0-0.9,0s-0.6,0-0.9,0
		c-1.3,0-2.3,0.1-3.2,0.3c-0.8,0.2-1.5,0.4-1.9,0.7c-0.5,0.3-0.8,0.6-1,1c-0.2,0.4-0.3,0.8-0.3,1.2c0,0.7,0.3,1.4,1,1.9
		c0.7,0.5,1.5,0.8,2.4,0.8c0.7,0,1.3-0.1,1.9-0.3c0.6-0.2,1-0.5,1.5-0.8c0.4-0.3,0.8-0.6,1-1c0.3-0.3,0.4-0.6,0.6-0.9
		c0.2-0.5,0.3-1.1,0.3-1.9V912.2z"/>
	<path d="M517.8,896.5h7v21.2h4.7v2h-11.9v-2h4.7v-19.2h-4.5V896.5z"/>
	<path d="M534.5,903.7h2.5v8.9c0,1,0.1,1.9,0.3,2.6c0.2,0.7,0.5,1.2,0.8,1.7c0.3,0.4,0.7,0.7,1.2,0.9c0.4,0.2,0.9,0.3,1.4,0.3
		c0.6,0,1.1-0.2,1.6-0.4c0.5-0.2,1-0.6,1.4-1c0.4-0.4,0.7-1,1-1.7c0.2-0.7,0.4-1.5,0.4-2.4v-8.8h2.5v14.6c0,0.5,0.1,1,0.2,1.4h-2.6
		c0-0.2,0-0.3-0.1-0.5s0-0.4,0-0.7l0-1.2c-0.5,0.9-1.2,1.6-2.1,2.1s-1.8,0.8-2.9,0.8c-0.8,0-1.6-0.1-2.2-0.4
		c-0.7-0.3-1.2-0.7-1.8-1.3s-0.9-1.4-1.2-2.3c-0.3-0.9-0.4-2.1-0.4-3.4L534.5,903.7z"/>
	<path d="M558.9,903.4c0.8,0,1.7,0.2,2.5,0.5c0.8,0.3,1.5,0.8,2.1,1.4s1.1,1.4,1.4,2.4c0.4,1,0.5,2.1,0.5,3.4c0,0.2,0,0.4,0,0.6
		c0,0.2,0,0.4-0.1,0.6H554c0,1.1,0.2,2.1,0.6,2.8c0.3,0.8,0.8,1.4,1.3,1.8c0.5,0.5,1.1,0.8,1.7,1s1.3,0.3,1.9,0.3
		c1.7,0,3-0.6,4.1-1.8l1.4,1.4c-1.4,1.6-3.2,2.5-5.6,2.5c-1.2,0-2.2-0.2-3.2-0.5c-1-0.4-1.8-0.9-2.5-1.6c-0.7-0.7-1.2-1.6-1.6-2.6
		c-0.4-1-0.6-2.2-0.6-3.6c0-1.4,0.2-2.6,0.6-3.6c0.4-1.1,0.9-1.9,1.6-2.6c0.7-0.7,1.4-1.3,2.3-1.6
		C556.9,903.5,557.9,903.4,558.9,903.4z M554.1,910.1h8.8c0-0.1,0-0.2,0-0.3c0-0.1,0-0.2,0-0.3c0-0.6-0.1-1.1-0.3-1.6
		s-0.5-1-0.9-1.3c-0.4-0.4-0.8-0.7-1.3-0.9s-1-0.3-1.6-0.3c-1.1,0-2.1,0.4-3,1.2C554.9,907.2,554.3,908.4,554.1,910.1z"/>
	<path d="M582.5,905.9l-1.5,2.2c-0.1,0-0.2-0.1-0.2-0.3s0-0.3-0.1-0.4c-0.4-0.5-1-1-1.8-1.5c-0.8-0.5-1.7-0.7-2.6-0.7
		c-0.4,0-0.9,0.1-1.3,0.2c-0.4,0.1-0.8,0.3-1.1,0.4c-0.3,0.2-0.6,0.4-0.8,0.7c-0.2,0.3-0.3,0.6-0.3,1c0,0.3,0.1,0.5,0.2,0.8
		c0.1,0.2,0.4,0.4,0.7,0.6c0.3,0.2,0.7,0.4,1.3,0.6c0.6,0.2,1.3,0.4,2.2,0.7c2,0.5,3.4,1.2,4.3,1.9c0.8,0.7,1.3,1.6,1.3,2.7
		c0,0.7-0.2,1.4-0.5,2c-0.3,0.6-0.7,1.2-1.3,1.6c-0.6,0.5-1.3,0.8-2.1,1.1c-0.8,0.3-1.7,0.4-2.8,0.4c-2.7,0-4.9-0.8-6.8-2.5l1.4-2.5
		c0.1,0.1,0.1,0.2,0.1,0.3c0,0.2,0.1,0.3,0.2,0.6c0.1,0.2,0.4,0.5,0.8,0.7c0.4,0.3,1,0.6,1.7,0.9c0.4,0.2,0.8,0.3,1.2,0.4
		c0.4,0.1,0.9,0.1,1.3,0.1c0.5,0,0.9-0.1,1.4-0.2c0.5-0.1,0.9-0.3,1.3-0.5s0.7-0.5,0.9-0.8c0.2-0.3,0.4-0.7,0.4-1.1
		c0-0.6-0.3-1.1-0.8-1.5c-0.6-0.4-1.6-0.9-3.1-1.3c-1-0.3-1.7-0.5-2-0.6c-0.8-0.3-1.5-0.6-1.8-0.9c-0.4-0.2-0.7-0.5-1-0.9
		c-0.3-0.3-0.6-0.7-0.7-1.2c-0.2-0.4-0.3-0.9-0.3-1.4c0-0.6,0.2-1.1,0.5-1.6c0.3-0.5,0.7-1,1.3-1.4c0.5-0.4,1.2-0.7,2-1
		c0.8-0.2,1.6-0.4,2.5-0.4C579,903.4,580.9,904.2,582.5,905.9z"/>
</g>
<g>
	<path d="M844.8,474c0.7,0.9,1.2,2.1,1.6,3.6c0.4,1.5,0.6,3.1,0.6,4.9c0,1.8-0.2,3.4-0.6,4.8c-0.4,1.4-0.9,2.5-1.6,3.4
		s-1.4,1.6-2.3,2c-0.8,0.4-1.7,0.7-2.6,0.7c-0.9,0-1.8-0.3-2.6-0.8s-1.6-1.3-2.2-2.3c-0.7-1-1.2-2.1-1.6-3.5
		c-0.4-1.4-0.6-2.9-0.6-4.5c0-1.7,0.2-3.2,0.6-4.5c0.4-1.4,0.9-2.6,1.6-3.6c0.7-1,1.4-1.8,2.2-2.3c0.8-0.5,1.7-0.8,2.6-0.8
		C841.9,471.1,843.5,472.1,844.8,474z M843.5,476.1c-0.5-0.9-1-1.6-1.6-2.1c-0.6-0.5-1.2-0.7-1.9-0.7c-0.6,0-1.2,0.2-1.7,0.6
		c-0.6,0.4-1.1,1-1.5,1.7c-0.4,0.7-0.8,1.7-1.1,2.7c-0.3,1.1-0.4,2.2-0.4,3.5c0,1.4,0.2,2.8,0.5,4.1L843.5,476.1z M844.4,478.4
		l-7.7,9.8c0.6,1,1.1,1.8,1.8,2.3c0.6,0.5,1.2,0.7,1.8,0.7c0.6,0,1.2-0.2,1.8-0.6c0.5-0.4,1-0.9,1.4-1.7c0.4-0.7,0.7-1.6,1-2.6
		c0.2-1,0.4-2.2,0.4-3.5c0-0.8,0-1.6-0.1-2.3S844.5,479.1,844.4,478.4z"/>
	<path d="M859.5,492.4c0,1.8-1.2,4-3.7,6.6l-1.2-1c0.7-0.6,1.2-1.3,1.6-2c0.4-0.7,0.6-1.3,0.6-1.7c0-0.2-0.1-0.4-0.3-0.6
		c-0.2-0.2-0.4-0.4-0.6-0.6c-0.2-0.2-0.4-0.4-0.6-0.6c-0.2-0.2-0.3-0.5-0.3-0.8c0-0.6,0.2-1.1,0.6-1.5c0.4-0.4,0.9-0.6,1.5-0.6
		s1.2,0.3,1.6,0.8C859.3,490.8,859.5,491.5,859.5,492.4z"/>
	<path d="M898.2,476.7c0,1.1-0.3,2-0.9,2.9c-0.6,0.9-1.4,1.5-2.4,1.9c1.1,0.4,2,1.1,2.7,2.1c0.7,1,1,2.2,1,3.5
		c0,0.9-0.2,1.7-0.5,2.4c-0.3,0.8-0.8,1.4-1.4,2c-0.6,0.6-1.3,1-2.2,1.4c-0.9,0.3-1.8,0.5-2.9,0.5c-2.1,0-4-0.8-5.5-2.5l1.9-2.2
		c0.1,0.1,0.2,0.2,0.2,0.5c0,0.2,0.1,0.4,0.2,0.5l0.5,0.4c0.2,0.2,0.6,0.4,1.1,0.6c0.6,0.2,1.2,0.3,1.8,0.3c0.6,0,1.2-0.1,1.8-0.3
		c0.5-0.2,1-0.5,1.4-0.9c0.4-0.4,0.7-0.9,0.9-1.4c0.2-0.5,0.3-1.1,0.3-1.7c0-1.2-0.5-2.2-1.4-2.9c-0.9-0.7-2.2-1.1-3.7-1.1
		c-0.2,0-0.4,0-0.5,0s-0.4,0-0.5,0.1v-2c1.1,0,2-0.1,2.7-0.3c0.7-0.2,1.3-0.5,1.8-0.9c0.5-0.4,0.8-0.8,1-1.3c0.2-0.5,0.3-1,0.3-1.6
		c0-0.4-0.1-0.8-0.3-1.2c-0.2-0.4-0.4-0.7-0.8-1c-0.3-0.3-0.7-0.5-1.2-0.7c-0.5-0.2-1-0.3-1.5-0.3c-1.5,0-2.7,0.6-3.7,1.7l-1.4-1.5
		c1.4-1.6,3.2-2.3,5.2-2.3c0.8,0,1.6,0.1,2.4,0.4c0.7,0.3,1.4,0.7,1.9,1.2c0.5,0.5,1,1.1,1.3,1.8C898.1,475.3,898.2,476,898.2,476.7
		z"/>
	<path d="M911.4,471c1.8,0,3.4,0.7,4.8,2l-1.7,1.9c-0.2-0.2-0.3-0.4-0.4-0.6c-0.1-0.2-0.2-0.4-0.5-0.5c-0.3-0.2-0.7-0.4-1.1-0.5
		c-0.4-0.1-0.7-0.1-1-0.1c-0.5,0-1,0.1-1.6,0.3s-1.2,0.6-1.7,1.2c-0.5,0.6-1,1.5-1.4,2.6c-0.4,1.1-0.6,2.5-0.6,4.3
		c0.5-0.8,1.1-1.5,2-1.9c0.8-0.5,1.7-0.7,2.6-0.7c0.8,0,1.6,0.2,2.3,0.5c0.7,0.3,1.4,0.8,1.9,1.5c0.5,0.6,1,1.4,1.3,2.3
		c0.3,0.9,0.5,1.8,0.5,2.9c0,1.1-0.2,2.1-0.5,3c-0.3,0.9-0.8,1.7-1.3,2.3c-0.6,0.6-1.2,1.1-2,1.5c-0.8,0.3-1.6,0.5-2.4,0.5
		c-1.1,0-2.1-0.2-2.9-0.7s-1.5-1.2-2.1-2c-0.6-0.9-1-2-1.3-3.2c-0.3-1.3-0.5-2.7-0.5-4.3c0-2,0.2-3.7,0.5-5.2
		c0.4-1.5,0.9-2.8,1.6-3.8c0.7-1,1.5-1.8,2.4-2.3C909.2,471.3,910.2,471,911.4,471z M906.2,484.1c0,0.1,0,0.3,0,0.4
		c0,0.1,0,0.3,0,0.4c0,0.9,0.1,1.8,0.3,2.5c0.2,0.8,0.5,1.4,0.9,2s0.9,1,1.4,1.3c0.5,0.3,1.1,0.5,1.7,0.5c1,0,1.9-0.4,2.6-1.3
		c0.7-0.9,1.1-2.1,1.1-3.8c0-0.9-0.1-1.6-0.4-2.3s-0.5-1.1-0.9-1.6c-0.4-0.4-0.8-0.7-1.2-0.9c-0.5-0.2-0.9-0.3-1.3-0.3
		c-0.8,0-1.6,0.3-2.4,0.9C907.3,482.5,906.7,483.2,906.2,484.1z"/>
	<path d="M932.3,474c0.7,0.9,1.2,2.1,1.6,3.6c0.4,1.5,0.6,3.1,0.6,4.9c0,1.8-0.2,3.4-0.6,4.8c-0.4,1.4-0.9,2.5-1.6,3.4
		s-1.4,1.6-2.3,2c-0.8,0.4-1.7,0.7-2.6,0.7c-0.9,0-1.8-0.3-2.6-0.8s-1.6-1.3-2.2-2.3c-0.7-1-1.2-2.1-1.6-3.5
		c-0.4-1.4-0.6-2.9-0.6-4.5c0-1.7,0.2-3.2,0.6-4.5c0.4-1.4,0.9-2.6,1.6-3.6c0.7-1,1.4-1.8,2.2-2.3c0.8-0.5,1.7-0.8,2.6-0.8
		C929.4,471.1,931,472.1,932.3,474z M931,476.1c-0.5-0.9-1-1.6-1.6-2.1c-0.6-0.5-1.2-0.7-1.9-0.7c-0.6,0-1.2,0.2-1.7,0.6
		c-0.6,0.4-1.1,1-1.5,1.7c-0.4,0.7-0.8,1.7-1.1,2.7c-0.3,1.1-0.4,2.2-0.4,3.5c0,1.4,0.2,2.8,0.5,4.1L931,476.1z M931.9,478.4
		l-7.7,9.8c0.6,1,1.1,1.8,1.8,2.3c0.6,0.5,1.2,0.7,1.8,0.7c0.6,0,1.2-0.2,1.8-0.6c0.5-0.4,1-0.9,1.4-1.7c0.4-0.7,0.7-1.6,1-2.6
		c0.2-1,0.4-2.2,0.4-3.5c0-0.8,0-1.6-0.1-2.3S932,479.1,931.9,478.4z"/>
</g>
<g>
	<path d="M804.8,662.3c0,1.1-0.3,2-0.9,2.9c-0.6,0.9-1.4,1.5-2.4,1.9c1.1,0.4,2,1.1,2.7,2.1c0.7,1,1,2.2,1,3.5
		c0,0.9-0.2,1.7-0.5,2.4c-0.3,0.8-0.8,1.4-1.4,2c-0.6,0.6-1.3,1-2.2,1.4c-0.9,0.3-1.8,0.5-2.9,0.5c-2.1,0-4-0.8-5.5-2.5l1.9-2.2
		c0.1,0.1,0.2,0.2,0.2,0.5c0,0.2,0.1,0.4,0.2,0.5l0.5,0.4c0.2,0.2,0.6,0.4,1.1,0.6c0.6,0.2,1.2,0.3,1.8,0.3c0.6,0,1.2-0.1,1.8-0.3
		c0.5-0.2,1-0.5,1.4-0.9c0.4-0.4,0.7-0.9,0.9-1.4c0.2-0.5,0.3-1.1,0.3-1.7c0-1.2-0.5-2.2-1.4-2.9c-0.9-0.7-2.2-1.1-3.7-1.1
		c-0.2,0-0.4,0-0.5,0s-0.4,0-0.5,0.1v-2c1.1,0,2-0.1,2.7-0.3c0.7-0.2,1.3-0.5,1.8-0.9s0.8-0.8,1-1.3c0.2-0.5,0.3-1,0.3-1.6
		c0-0.4-0.1-0.8-0.3-1.2s-0.4-0.7-0.8-1c-0.3-0.3-0.7-0.5-1.2-0.7c-0.5-0.2-1-0.3-1.5-0.3c-1.5,0-2.7,0.6-3.7,1.7l-1.4-1.5
		c1.4-1.6,3.2-2.3,5.2-2.3c0.8,0,1.6,0.1,2.4,0.4c0.7,0.3,1.4,0.7,1.9,1.2c0.5,0.5,1,1.1,1.3,1.8
		C804.7,660.9,804.8,661.6,804.8,662.3z"/>
	<path d="M821.5,659.6c0.7,0.9,1.2,2.1,1.6,3.6c0.4,1.5,0.6,3.1,0.6,4.9c0,1.8-0.2,3.4-0.6,4.8s-0.9,2.5-1.6,3.4s-1.4,1.6-2.3,2
		c-0.8,0.4-1.7,0.7-2.6,0.7c-0.9,0-1.8-0.3-2.6-0.8c-0.8-0.5-1.6-1.3-2.2-2.3s-1.2-2.1-1.6-3.5c-0.4-1.4-0.6-2.9-0.6-4.5
		c0-1.7,0.2-3.2,0.6-4.5c0.4-1.4,0.9-2.6,1.6-3.6s1.4-1.8,2.2-2.3c0.8-0.5,1.7-0.8,2.6-0.8C818.5,656.7,820.1,657.7,821.5,659.6z
		 M820.2,661.7c-0.5-0.9-1-1.6-1.6-2.1c-0.6-0.5-1.2-0.7-1.9-0.7c-0.6,0-1.2,0.2-1.7,0.6c-0.6,0.4-1.1,1-1.5,1.7s-0.8,1.7-1.1,2.7
		c-0.3,1.1-0.4,2.2-0.4,3.5c0,1.4,0.2,2.8,0.5,4.1L820.2,661.7z M821,664l-7.7,9.8c0.6,1,1.1,1.8,1.8,2.3c0.6,0.5,1.2,0.7,1.8,0.7
		c0.6,0,1.2-0.2,1.8-0.6s1-0.9,1.4-1.7c0.4-0.7,0.7-1.6,1-2.6c0.2-1,0.4-2.2,0.4-3.5c0-0.8,0-1.6-0.1-2.3S821.1,664.7,821,664z"/>
</g>
<g>
	<path d="M731.3,738.8h2v13.7h2.8v2.2h-2.8v6h-2.5v-6.1H722v-1.8L731.3,738.8z M730.9,742.7l-6.4,9.8h6.4V742.7z"/>
	<path d="M741.5,738.8h11.1v2.2h-9l-0.4,6.3c1.1-0.6,2.3-0.8,3.6-0.8c0.9,0,1.8,0.2,2.6,0.5c0.8,0.3,1.5,0.8,2.1,1.5
		c0.6,0.6,1.1,1.4,1.4,2.3c0.3,0.9,0.5,1.9,0.5,3c0,1.1-0.2,2.1-0.5,3c-0.3,0.9-0.8,1.7-1.5,2.3s-1.3,1.1-2.2,1.4
		c-0.8,0.3-1.7,0.5-2.7,0.5c-1.3,0-2.6-0.3-3.7-0.9c-1.1-0.6-2.1-1.4-2.8-2.5l2.2-1.6c0.1,0.1,0.2,0.2,0.2,0.4s0,0.3,0.1,0.4
		c0.1,0.2,0.3,0.4,0.5,0.6s0.5,0.5,0.9,0.7c0.4,0.2,0.8,0.4,1.3,0.5c0.5,0.2,1,0.2,1.6,0.2s1.1-0.1,1.6-0.4c0.5-0.2,1-0.6,1.3-1
		c0.4-0.4,0.7-1,0.9-1.6c0.2-0.6,0.3-1.4,0.3-2.2c0-0.8-0.1-1.5-0.3-2.2c-0.2-0.6-0.6-1.2-1-1.6s-0.9-0.8-1.4-1
		c-0.5-0.2-1.1-0.3-1.7-0.3c-0.7,0-1.5,0.2-2.2,0.5c-0.7,0.4-1.3,0.9-1.9,1.5l-1.5-0.6L741.5,738.8z"/>
</g>
<g>
	<path d="M449.2,113.6c0.6-1.1,1.5-2,2.6-2.6c1.1-0.6,2.3-0.9,3.5-0.9c0.9,0,1.7,0.2,2.5,0.5c0.8,0.3,1.4,0.8,2,1.3s1,1.2,1.4,2
		c0.3,0.7,0.5,1.5,0.5,2.4c0,0.7-0.1,1.3-0.3,1.9c-0.2,0.6-0.5,1.2-0.8,1.7c-0.3,0.5-0.7,1.1-1.1,1.6c-0.4,0.5-0.9,1-1.3,1.4l-2.1,2
		c-0.3,0.3-0.6,0.6-1,1c-0.4,0.4-0.7,0.8-1.1,1.2c-0.4,0.4-0.7,0.9-1.1,1.4c-0.3,0.5-0.7,1-0.9,1.5h9.1c0.1,0,0.2-0.1,0.4-0.2
		s0.3-0.2,0.4-0.2h0.1v2.5H449v-1.5c0.9-1.7,1.8-3.2,2.8-4.4c1-1.2,2-2.3,2.9-3.1l1.7-1.5c0.6-0.5,1.1-1,1.4-1.5
		c0.4-0.5,0.6-0.9,0.9-1.3c0.2-0.4,0.4-0.8,0.4-1.2c0.1-0.4,0.1-0.8,0.1-1.2c0-0.5-0.1-1-0.3-1.5c-0.2-0.5-0.5-0.9-0.9-1.3
		c-0.4-0.4-0.8-0.7-1.3-0.9c-0.5-0.2-1-0.3-1.5-0.3c-0.6,0-1.1,0.1-1.6,0.3c-0.5,0.2-0.9,0.4-1.3,0.6c-0.4,0.2-0.6,0.5-0.9,0.8
		c-0.2,0.3-0.3,0.5-0.3,0.7c0,0.2-0.1,0.4-0.1,0.4L449.2,113.6z"/>
	<path d="M479.1,111.5c-1.5,3.4-2.8,6.7-4.1,10.1c-1.3,3.4-2.4,6.8-3.5,10.3h-2.8c1.1-3.3,2.3-6.6,3.5-9.8c1.2-3.2,2.5-6.4,3.8-9.7
		h-9.3v-2.3h12.4V111.5z"/>
	<path d="M494.9,112.9c0.7,0.9,1.2,2.1,1.6,3.6c0.4,1.5,0.6,3.1,0.6,4.9c0,1.8-0.2,3.4-0.6,4.8c-0.4,1.4-0.9,2.5-1.6,3.4
		s-1.4,1.6-2.3,2c-0.8,0.4-1.7,0.7-2.6,0.7c-0.9,0-1.8-0.3-2.6-0.8s-1.6-1.3-2.2-2.3c-0.7-1-1.2-2.1-1.6-3.5
		c-0.4-1.4-0.6-2.9-0.6-4.5c0-1.7,0.2-3.2,0.6-4.5c0.4-1.4,0.9-2.6,1.6-3.6c0.7-1,1.4-1.8,2.2-2.3c0.8-0.5,1.7-0.8,2.6-0.8
		C492,110,493.6,111,494.9,112.9z M493.7,115c-0.5-0.9-1-1.6-1.6-2.1c-0.6-0.5-1.2-0.7-1.9-0.7c-0.6,0-1.2,0.2-1.7,0.6
		c-0.6,0.4-1.1,1-1.5,1.7c-0.4,0.7-0.8,1.7-1.1,2.7c-0.3,1.1-0.4,2.2-0.4,3.5c0,1.4,0.2,2.8,0.5,4.1L493.7,115z M494.5,117.3
		l-7.7,9.8c0.6,1,1.1,1.8,1.8,2.3c0.6,0.5,1.2,0.7,1.8,0.7c0.6,0,1.2-0.2,1.8-0.6c0.5-0.4,1-0.9,1.4-1.7c0.4-0.7,0.7-1.6,1-2.6
		c0.2-1,0.4-2.2,0.4-3.5c0-0.8,0-1.6-0.1-2.3S494.6,118,494.5,117.3z"/>
</g>
<g>
	<path d="M85.6,471.2v21.8h-2.4v-18.8l-4.4,1.3l-0.6-1.4l5.7-3H85.6z"/>
	<path d="M107.3,476.1c0,1-0.3,2-0.9,3c-0.6,0.9-1.5,1.7-2.5,2.3c1.3,0.6,2.3,1.4,3,2.5s1.2,2.3,1.2,3.5c0,0.8-0.2,1.6-0.5,2.4
		s-0.8,1.4-1.4,1.9c-0.6,0.5-1.3,1-2.1,1.3c-0.8,0.3-1.7,0.5-2.6,0.5s-1.8-0.2-2.6-0.5c-0.8-0.3-1.5-0.7-2.1-1.2
		c-0.6-0.5-1.1-1.1-1.4-1.9c-0.3-0.7-0.5-1.5-0.5-2.3c0-1.3,0.4-2.4,1.2-3.5c0.8-1.1,1.9-1.9,3.2-2.6c-1-0.5-1.8-1.2-2.4-2.2
		c-0.6-0.9-0.9-1.9-0.9-3c0-0.7,0.2-1.4,0.5-2.1c0.3-0.7,0.7-1.2,1.3-1.7c0.5-0.5,1.2-0.9,1.9-1.2c0.7-0.3,1.5-0.4,2.3-0.4
		c0.8,0,1.6,0.1,2.3,0.4c0.7,0.3,1.3,0.6,1.8,1.1c0.5,0.5,0.9,1,1.2,1.7C107.2,474.8,107.3,475.4,107.3,476.1z M100.9,482.4
		c-1,0.4-1.9,1.1-2.6,2s-1,1.8-1,2.9c0,0.5,0.1,1,0.3,1.5s0.5,0.9,0.9,1.2c0.4,0.3,0.8,0.6,1.3,0.8s1,0.3,1.6,0.3s1.1-0.1,1.6-0.3
		c0.5-0.2,0.9-0.5,1.3-0.8c0.4-0.3,0.7-0.7,0.9-1.2s0.3-1,0.3-1.5c0-1.1-0.4-2.1-1.3-3C103.4,483.6,102.3,482.9,100.9,482.4z
		 M98.7,478c0.3,0.5,0.6,0.9,1.1,1.2c0.5,0.3,1,0.7,1.6,1l0.6,0.3c0.9-0.5,1.6-1.1,2.1-1.9c0.6-0.8,0.8-1.6,0.8-2.4
		c0-0.4-0.1-0.8-0.3-1.2c-0.2-0.4-0.4-0.7-0.7-1c-0.3-0.3-0.7-0.5-1.1-0.7c-0.4-0.2-0.9-0.3-1.4-0.3s-0.9,0.1-1.3,0.3
		c-0.4,0.2-0.8,0.4-1.1,0.7s-0.5,0.6-0.7,1c-0.2,0.4-0.2,0.8-0.2,1.2C98.1,476.8,98.3,477.4,98.7,478z"/>
	<path d="M123.6,474c0.7,0.9,1.2,2.1,1.6,3.6c0.4,1.5,0.6,3.1,0.6,4.9c0,1.8-0.2,3.4-0.6,4.8c-0.4,1.4-0.9,2.5-1.6,3.4
		c-0.7,0.9-1.4,1.6-2.3,2c-0.8,0.4-1.7,0.7-2.6,0.7c-0.9,0-1.8-0.3-2.6-0.8s-1.6-1.3-2.2-2.3c-0.7-1-1.2-2.1-1.6-3.5
		c-0.4-1.4-0.6-2.9-0.6-4.5c0-1.7,0.2-3.2,0.6-4.5s0.9-2.6,1.6-3.6c0.7-1,1.4-1.8,2.2-2.3c0.8-0.5,1.7-0.8,2.6-0.8
		C120.6,471.1,122.2,472.1,123.6,474z M122.3,476.1c-0.5-0.9-1-1.6-1.6-2.1c-0.6-0.5-1.2-0.7-1.9-0.7c-0.6,0-1.2,0.2-1.7,0.6
		s-1.1,1-1.5,1.7c-0.4,0.7-0.8,1.7-1.1,2.7s-0.4,2.2-0.4,3.5c0,1.4,0.2,2.8,0.5,4.1L122.3,476.1z M123.1,478.4l-7.7,9.8
		c0.6,1,1.1,1.8,1.8,2.3c0.6,0.5,1.2,0.7,1.8,0.7c0.6,0,1.2-0.2,1.8-0.6c0.5-0.4,1-0.9,1.4-1.7c0.4-0.7,0.7-1.6,1-2.6
		c0.2-1,0.4-2.2,0.4-3.5c0-0.8,0-1.6-0.1-2.3C123.4,479.7,123.3,479.1,123.1,478.4z"/>
</g>
<g>
	<path d="M462.1,855.3c-1.9,0-3.5-0.7-4.8-2l1.7-1.9c0.1,0.1,0.2,0.2,0.3,0.4c0.1,0.2,0.2,0.3,0.3,0.4c0.7,0.5,1.5,0.8,2.5,0.8
		c1.8,0,3.1-0.7,3.9-2c0.9-1.3,1.3-3.5,1.4-6.4c-0.5,0.7-1.2,1.3-2,1.7s-1.6,0.6-2.6,0.6c-0.8,0-1.6-0.2-2.3-0.5
		c-0.7-0.3-1.4-0.8-1.9-1.4c-0.5-0.6-1-1.3-1.3-2.2c-0.3-0.9-0.5-1.8-0.5-2.8c0-1,0.2-2,0.5-2.9c0.3-0.9,0.8-1.6,1.3-2.3
		c0.6-0.6,1.2-1.1,2-1.5c0.8-0.4,1.6-0.5,2.4-0.5c2.1,0,3.8,0.9,4.9,2.7c1.2,1.8,1.7,4.8,1.7,8.8c0,1.8-0.2,3.4-0.6,4.8
		s-1,2.5-1.7,3.3s-1.5,1.5-2.5,2C464.2,855.1,463.2,855.3,462.1,855.3z M467.3,842.3c0-0.2,0-0.4,0-0.5c0-0.2,0-0.4,0-0.5
		c0-0.9-0.1-1.7-0.3-2.5c-0.2-0.7-0.5-1.4-0.9-1.9c-0.4-0.5-0.8-0.9-1.3-1.2c-0.5-0.3-1-0.4-1.5-0.4c-1.2,0-2.2,0.4-2.9,1.3
		c-0.7,0.9-1.1,2.1-1.1,3.6c0,0.7,0.1,1.4,0.3,2c0.2,0.6,0.5,1.1,0.8,1.5s0.7,0.7,1.2,1s0.9,0.3,1.3,0.3c0.9,0,1.8-0.2,2.5-0.7
		C466.2,843.7,466.8,843.1,467.3,842.3z"/>
	<path d="M485.5,835.9c0.7,0.9,1.2,2.1,1.6,3.6c0.4,1.5,0.6,3.1,0.6,4.9c0,1.8-0.2,3.4-0.6,4.8s-0.9,2.5-1.6,3.4s-1.4,1.6-2.3,2
		c-0.8,0.4-1.7,0.7-2.6,0.7c-0.9,0-1.8-0.3-2.6-0.8c-0.8-0.5-1.6-1.3-2.2-2.3s-1.2-2.1-1.6-3.5c-0.4-1.4-0.6-2.9-0.6-4.5
		c0-1.7,0.2-3.2,0.6-4.5c0.4-1.4,0.9-2.6,1.6-3.6s1.4-1.8,2.2-2.3c0.8-0.5,1.7-0.8,2.6-0.8C482.6,833,484.2,834,485.5,835.9z
		 M484.2,838c-0.5-0.9-1-1.6-1.6-2.1c-0.6-0.5-1.2-0.7-1.9-0.7c-0.6,0-1.2,0.2-1.7,0.6c-0.6,0.4-1.1,1-1.5,1.7s-0.8,1.7-1.1,2.7
		c-0.3,1.1-0.4,2.2-0.4,3.5c0,1.4,0.2,2.8,0.5,4.1L484.2,838z M485,840.3l-7.7,9.8c0.6,1,1.1,1.8,1.8,2.3c0.6,0.5,1.2,0.7,1.8,0.7
		c0.6,0,1.2-0.2,1.8-0.6s1-0.9,1.4-1.7c0.4-0.7,0.7-1.6,1-2.6c0.2-1,0.4-2.2,0.4-3.5c0-0.8,0-1.6-0.1-2.3S485.2,841,485,840.3z"/>
</g>
<line class="st9" x1="471.2" y1="144" x2="471.2" y2="819"/>
<line class="st10" x1="136.9" y1="482.5" x2="811.9" y2="482.5"/>
<g>
	<g>
		<path class="st2" d="M671.3,482.5c0,108.8-88.2,197-197,197c-108.8,0-197-88.2-197-197s88.2-197,197-197
			c33.2,0,64.4,8.2,91.9,22.7"/>
		<g>
			<polygon class="st3" points="560.6,313.6 575.5,313.4 567.8,300.6 			"/>
		</g>
	</g>
</g>
<line class="st8" x1="470.4" y1="482.2" x2="712.7" y2="724.5"/>
<line class="st8" x1="471" y1="483" x2="767.8" y2="654.4"/>
<g>
	<path d="M1368.4,900h6.4c2.6,0,4.4,0.6,5.5,1.7c1.1,1.1,1.7,2.6,1.7,4.5c0,0.6-0.1,1.3-0.3,1.9s-0.5,1.2-0.9,1.7
		c-0.4,0.5-0.9,1-1.4,1.4c-0.5,0.4-1.2,0.7-1.8,0.8l5,9.7h-2.7l-4.8-9.6h-4.2v9.6h-2.5V900z M1370.9,902.3v7.7h4.2
		c1.6,0,2.7-0.3,3.4-1s1-1.6,1-2.7c0-0.6-0.1-1.1-0.3-1.5c-0.2-0.5-0.4-0.9-0.8-1.2c-0.3-0.3-0.8-0.6-1.3-0.8
		c-0.6-0.2-1.2-0.3-2-0.3H1370.9z"/>
	<path d="M1387.1,907.7c1.4-1.5,3.3-2.2,5.7-2.2c2,0,3.5,0.5,4.6,1.5c1.1,1,1.7,2.6,1.7,5v9.9h-2.4V920c-1.7,1.4-3.6,2.1-5.7,2.1
		c-0.8,0-1.6-0.1-2.3-0.4c-0.7-0.3-1.2-0.6-1.7-1s-0.8-0.9-1.1-1.4c-0.2-0.5-0.4-1.1-0.4-1.6c0-1.6,0.7-2.9,2.1-3.8
		c1.4-0.9,3.4-1.4,6-1.5h3v-0.6c0-1.6-0.3-2.7-1-3.3c-0.7-0.6-1.7-1-3.1-1c-1.7,0-3.2,0.6-4.3,1.8L1387.1,907.7z M1396.8,914.3h-0.6
		c-0.3,0-0.6,0-0.9,0s-0.6,0-0.9,0c-1.3,0-2.3,0.1-3.2,0.3c-0.8,0.2-1.5,0.4-1.9,0.7c-0.5,0.3-0.8,0.6-1,1c-0.2,0.4-0.3,0.8-0.3,1.2
		c0,0.7,0.3,1.4,1,1.9c0.7,0.5,1.5,0.8,2.4,0.8c0.7,0,1.3-0.1,1.9-0.3c0.6-0.2,1-0.5,1.5-0.8c0.4-0.3,0.8-0.6,1-1
		c0.3-0.3,0.4-0.6,0.6-0.9c0.2-0.5,0.3-1.1,0.3-1.9V914.3z"/>
	<path d="M1414.3,908.1v-9.6h2.7c0,0.1-0.1,0.3-0.2,0.5c-0.1,0.2-0.2,0.3-0.2,0.5l0,20.8c0,0.6,0.1,1,0.2,1.5h-2.6
		c-0.1-0.3-0.1-0.7-0.1-1.2v-1.4c-0.5,0.9-1.2,1.6-2.1,2.1c-0.9,0.5-1.8,0.8-2.7,0.8c-0.9,0-1.7-0.2-2.5-0.5s-1.5-0.9-2.1-1.6
		c-0.6-0.7-1.1-1.6-1.4-2.6c-0.3-1.1-0.5-2.3-0.5-3.8c0-1.5,0.2-2.7,0.6-3.8s0.9-1.9,1.6-2.6s1.4-1.2,2.1-1.5
		c0.8-0.3,1.6-0.5,2.4-0.5c1.1,0,2.1,0.3,2.9,0.8C1413.3,906.6,1413.9,907.3,1414.3,908.1z M1407,908.6c-1,0.9-1.5,2.5-1.5,4.6
		c0,2,0.4,3.6,1.1,4.9c0.8,1.2,1.9,1.8,3.4,1.8c0.3,0,0.7-0.1,1.1-0.2s0.8-0.3,1.1-0.6c0.3-0.3,0.7-0.6,0.9-0.9
		c0.3-0.4,0.5-0.7,0.6-1.2c0.3-0.8,0.4-2,0.4-3.4c0-0.9,0-1.6-0.1-2.2c-0.1-0.6-0.2-1.1-0.3-1.5c-0.1-0.4-0.3-0.8-0.6-1
		c-0.2-0.3-0.5-0.5-0.9-0.7c-0.4-0.3-0.8-0.5-1.2-0.6s-0.7-0.2-1-0.2c-0.7,0-1.2,0.1-1.7,0.3C1407.9,907.8,1407.4,908.1,1407,908.6z
		"/>
	<path d="M1422.6,905.8h6.4v14h3.7v2h-10.4v-2h4.1v-11.9h-3.9V905.8z M1426.5,899.3c0.3-0.4,0.8-0.5,1.3-0.5s0.9,0.2,1.3,0.5
		s0.5,0.8,0.5,1.3s-0.2,0.9-0.5,1.3c-0.4,0.4-0.8,0.5-1.3,0.5s-0.9-0.2-1.3-0.5c-0.3-0.3-0.5-0.8-0.5-1.3
		C1426,900.1,1426.2,899.7,1426.5,899.3z"/>
	<path d="M1439.6,907.7c1.4-1.5,3.3-2.2,5.7-2.2c2,0,3.5,0.5,4.6,1.5c1.1,1,1.7,2.6,1.7,5v9.9h-2.4V920c-1.7,1.4-3.6,2.1-5.7,2.1
		c-0.8,0-1.6-0.1-2.3-0.4c-0.7-0.3-1.2-0.6-1.7-1s-0.8-0.9-1.1-1.4c-0.2-0.5-0.4-1.1-0.4-1.6c0-1.6,0.7-2.9,2.1-3.8
		c1.4-0.9,3.4-1.4,6-1.5h3v-0.6c0-1.6-0.3-2.7-1-3.3c-0.7-0.6-1.7-1-3.1-1c-1.7,0-3.2,0.6-4.3,1.8L1439.6,907.7z M1449.3,914.3h-0.6
		c-0.3,0-0.6,0-0.9,0s-0.6,0-0.9,0c-1.3,0-2.3,0.1-3.2,0.3c-0.8,0.2-1.5,0.4-1.9,0.7c-0.5,0.3-0.8,0.6-1,1c-0.2,0.4-0.3,0.8-0.3,1.2
		c0,0.7,0.3,1.4,1,1.9c0.7,0.5,1.5,0.8,2.4,0.8c0.7,0,1.3-0.1,1.9-0.3c0.6-0.2,1-0.5,1.5-0.8c0.4-0.3,0.8-0.6,1-1
		c0.3-0.3,0.4-0.6,0.6-0.9c0.2-0.5,0.3-1.1,0.3-1.9V914.3z"/>
	<path d="M1456.3,921.8v-16h2.5v2.8c0.6-1,1.4-1.8,2.3-2.3c1-0.6,1.9-0.9,2.9-0.9c0.7,0,1.4,0.1,2,0.4c0.6,0.2,1.1,0.6,1.6,1.2
		c0.4,0.5,0.8,1.2,1,2.1c0.2,0.8,0.4,1.9,0.4,3.1v9.7h-2.5v-9.6c0-1.7-0.3-2.9-0.9-3.5c-0.6-0.7-1.3-1-2.1-1c-0.5,0-1.1,0.1-1.7,0.3
		c-0.6,0.2-1.1,0.6-1.5,1c-0.5,0.4-0.8,1-1.1,1.6s-0.4,1.3-0.4,2.1v9.2H1456.3z"/>
	<path d="M1490.6,906.6l-0.4-0.9h3c0,0.2,0,0.3-0.1,0.4c0,0.1-0.1,0.2-0.1,0.3c0,0,0,0.1,0,0.1l4.7,11.7l2.6-6
		c0.6-1.3,1-2.5,1.4-3.6c0.3-1.1,0.6-2.1,0.8-3h2.3c-0.5,2-1.3,4.3-2.4,7l-3.9,9.1h-2L1490.6,906.6z"/>
	<path d="M1509.6,907.7c1.4-1.5,3.3-2.2,5.7-2.2c2,0,3.5,0.5,4.6,1.5c1.1,1,1.7,2.6,1.7,5v9.9h-2.4V920c-1.7,1.4-3.6,2.1-5.7,2.1
		c-0.8,0-1.6-0.1-2.3-0.4c-0.7-0.3-1.2-0.6-1.7-1s-0.8-0.9-1.1-1.4c-0.2-0.5-0.4-1.1-0.4-1.6c0-1.6,0.7-2.9,2.1-3.8
		c1.4-0.9,3.4-1.4,6-1.5h3v-0.6c0-1.6-0.3-2.7-1-3.3c-0.7-0.6-1.7-1-3.1-1c-1.7,0-3.2,0.6-4.3,1.8L1509.6,907.7z M1519.3,914.3h-0.6
		c-0.3,0-0.6,0-0.9,0s-0.6,0-0.9,0c-1.3,0-2.3,0.1-3.2,0.3c-0.8,0.2-1.5,0.4-1.9,0.7c-0.5,0.3-0.8,0.6-1,1c-0.2,0.4-0.3,0.8-0.3,1.2
		c0,0.7,0.3,1.4,1,1.9c0.7,0.5,1.5,0.8,2.4,0.8c0.7,0,1.3-0.1,1.9-0.3c0.6-0.2,1-0.5,1.5-0.8c0.4-0.3,0.8-0.6,1-1
		c0.3-0.3,0.4-0.6,0.6-0.9c0.2-0.5,0.3-1.1,0.3-1.9V914.3z"/>
	<path d="M1526.9,898.5h7v21.2h4.7v2h-11.9v-2h4.7v-19.2h-4.5V898.5z"/>
	<path d="M1543.6,905.8h2.5v8.9c0,1,0.1,1.9,0.3,2.6c0.2,0.7,0.5,1.2,0.8,1.7c0.3,0.4,0.7,0.7,1.2,0.9c0.4,0.2,0.9,0.3,1.4,0.3
		c0.6,0,1.1-0.2,1.6-0.4c0.5-0.2,1-0.6,1.4-1c0.4-0.4,0.7-1,1-1.7c0.2-0.7,0.4-1.5,0.4-2.5v-8.8h2.5v14.6c0,0.5,0.1,1,0.2,1.4h-2.6
		c0-0.2,0-0.3-0.1-0.5c0-0.2,0-0.4,0-0.7l0-1.2c-0.5,0.9-1.2,1.6-2.1,2.1c-0.9,0.5-1.8,0.8-2.9,0.8c-0.8,0-1.6-0.1-2.2-0.4
		c-0.7-0.3-1.2-0.7-1.8-1.3s-0.9-1.4-1.2-2.3c-0.3-0.9-0.4-2.1-0.4-3.4L1543.6,905.8z"/>
	<path d="M1568,905.4c0.8,0,1.7,0.2,2.4,0.5c0.8,0.3,1.5,0.8,2.1,1.4s1.1,1.4,1.4,2.4s0.5,2.1,0.5,3.4c0,0.2,0,0.4,0,0.6
		s0,0.4-0.1,0.6H1563c0,1.1,0.2,2.1,0.6,2.8c0.3,0.8,0.8,1.4,1.3,1.8c0.5,0.5,1.1,0.8,1.7,1c0.6,0.2,1.3,0.3,1.9,0.3
		c1.7,0,3-0.6,4.1-1.8l1.4,1.4c-1.4,1.6-3.2,2.5-5.6,2.5c-1.2,0-2.2-0.2-3.2-0.5s-1.8-0.9-2.5-1.6c-0.7-0.7-1.2-1.6-1.6-2.6
		c-0.4-1-0.6-2.2-0.6-3.6c0-1.4,0.2-2.6,0.6-3.6c0.4-1,0.9-1.9,1.6-2.6c0.7-0.7,1.4-1.3,2.3-1.6S1566.9,905.4,1568,905.4z
		 M1563.1,912.1h8.8c0-0.1,0-0.2,0-0.3c0-0.1,0-0.2,0-0.3c0-0.6-0.1-1.1-0.3-1.6c-0.2-0.5-0.5-1-0.9-1.3c-0.4-0.4-0.8-0.7-1.3-0.9
		c-0.5-0.2-1-0.3-1.6-0.3c-1.1,0-2.1,0.4-3,1.2S1563.4,910.4,1563.1,912.1z"/>
	<path d="M1591.5,907.9l-1.5,2.2c-0.1,0-0.2-0.1-0.2-0.3s0-0.3-0.1-0.4c-0.4-0.5-1-1-1.8-1.5c-0.8-0.5-1.7-0.7-2.6-0.7
		c-0.4,0-0.9,0.1-1.3,0.2c-0.4,0.1-0.8,0.3-1.1,0.4s-0.6,0.4-0.8,0.7c-0.2,0.3-0.3,0.6-0.3,1c0,0.3,0.1,0.5,0.2,0.8
		c0.1,0.2,0.4,0.4,0.7,0.6c0.3,0.2,0.7,0.4,1.3,0.6c0.6,0.2,1.3,0.4,2.2,0.7c2,0.5,3.4,1.2,4.3,1.9c0.8,0.7,1.2,1.6,1.2,2.7
		c0,0.7-0.2,1.4-0.5,2c-0.3,0.6-0.7,1.2-1.3,1.6c-0.6,0.5-1.3,0.8-2.1,1.1c-0.8,0.3-1.7,0.4-2.8,0.4c-2.7,0-4.9-0.8-6.8-2.5l1.4-2.5
		c0.1,0.1,0.1,0.2,0.1,0.3c0,0.2,0.1,0.3,0.2,0.6c0.1,0.2,0.4,0.5,0.8,0.7c0.4,0.3,1,0.6,1.7,0.9c0.4,0.2,0.8,0.3,1.2,0.4
		c0.4,0.1,0.9,0.1,1.3,0.1c0.5,0,0.9-0.1,1.4-0.2s0.9-0.3,1.3-0.5c0.4-0.2,0.7-0.5,0.9-0.8s0.4-0.7,0.4-1.1c0-0.6-0.3-1.1-0.8-1.5
		c-0.6-0.4-1.6-0.9-3.1-1.3c-1-0.3-1.7-0.5-2-0.6c-0.8-0.3-1.5-0.6-1.8-0.9c-0.4-0.2-0.7-0.5-1-0.9c-0.3-0.3-0.6-0.7-0.7-1.2
		c-0.2-0.4-0.3-0.9-0.3-1.4c0-0.6,0.2-1.1,0.5-1.6c0.3-0.5,0.7-1,1.3-1.4c0.5-0.4,1.2-0.7,2-1s1.6-0.4,2.5-0.4
		C1588,905.4,1590,906.2,1591.5,907.9z"/>
</g>
<g>
	<path d="M1853.9,477.6c0.7,0.9,1.2,2.1,1.6,3.6c0.4,1.5,0.6,3.1,0.6,4.9c0,1.8-0.2,3.4-0.6,4.8c-0.4,1.4-0.9,2.5-1.6,3.4
		s-1.4,1.6-2.3,2c-0.8,0.4-1.7,0.7-2.6,0.7c-0.9,0-1.8-0.3-2.6-0.8s-1.6-1.3-2.2-2.3c-0.7-1-1.2-2.1-1.6-3.5
		c-0.4-1.4-0.6-2.9-0.6-4.5c0-1.7,0.2-3.2,0.6-4.5c0.4-1.4,0.9-2.6,1.6-3.6c0.7-1,1.4-1.8,2.2-2.3c0.8-0.5,1.7-0.8,2.6-0.8
		C1850.9,474.7,1852.5,475.7,1853.9,477.6z M1852.6,479.7c-0.5-0.9-1-1.6-1.6-2.1c-0.6-0.5-1.2-0.7-1.9-0.7c-0.6,0-1.2,0.2-1.7,0.6
		c-0.6,0.4-1.1,1-1.5,1.7c-0.4,0.7-0.8,1.7-1.1,2.7c-0.3,1.1-0.4,2.2-0.4,3.5c0,1.4,0.2,2.8,0.5,4.1L1852.6,479.7z M1853.4,482
		l-7.7,9.8c0.6,1,1.1,1.8,1.8,2.3c0.6,0.5,1.2,0.7,1.8,0.7c0.6,0,1.2-0.2,1.8-0.6c0.5-0.4,1-0.9,1.4-1.7c0.4-0.7,0.7-1.6,1-2.6
		c0.2-1,0.4-2.2,0.4-3.5c0-0.8,0-1.6-0.1-2.3C1853.7,483.3,1853.6,482.6,1853.4,482z"/>
	<path d="M1868.6,495.9c0,1.8-1.2,4-3.7,6.6l-1.2-1c0.7-0.6,1.2-1.3,1.6-2c0.4-0.7,0.6-1.3,0.6-1.7c0-0.2-0.1-0.4-0.3-0.6
		c-0.2-0.2-0.4-0.4-0.6-0.6c-0.2-0.2-0.4-0.4-0.6-0.6c-0.2-0.2-0.3-0.5-0.3-0.8c0-0.6,0.2-1.1,0.6-1.5c0.4-0.4,0.9-0.6,1.5-0.6
		c0.6,0,1.2,0.3,1.6,0.8S1868.6,495.1,1868.6,495.9z"/>
	<path d="M1895.6,478.2c0.6-1.1,1.5-2,2.6-2.6c1.1-0.6,2.3-0.9,3.5-0.9c0.9,0,1.7,0.2,2.4,0.5c0.8,0.3,1.4,0.8,2,1.3s1,1.2,1.4,2
		c0.3,0.7,0.5,1.5,0.5,2.4c0,0.7-0.1,1.3-0.3,1.9c-0.2,0.6-0.5,1.2-0.8,1.7c-0.3,0.5-0.7,1.1-1.1,1.6c-0.4,0.5-0.9,1-1.3,1.4l-2.1,2
		c-0.3,0.3-0.6,0.6-1,1c-0.4,0.4-0.7,0.8-1.1,1.2c-0.4,0.4-0.7,0.9-1.1,1.4c-0.3,0.5-0.7,1-0.9,1.5h9.1c0.1,0,0.2-0.1,0.4-0.2
		c0.1-0.1,0.2-0.2,0.4-0.2h0.1v2.5h-12.8v-1.5c0.9-1.7,1.8-3.2,2.8-4.4c1-1.2,2-2.3,2.9-3.1l1.7-1.5c0.6-0.5,1.1-1,1.4-1.5
		c0.4-0.5,0.6-0.9,0.9-1.3c0.2-0.4,0.3-0.8,0.4-1.2c0.1-0.4,0.1-0.8,0.1-1.2c0-0.5-0.1-1-0.3-1.5c-0.2-0.5-0.5-0.9-0.9-1.3
		c-0.4-0.4-0.8-0.7-1.3-0.9c-0.5-0.2-1-0.3-1.5-0.3c-0.6,0-1.1,0.1-1.6,0.3c-0.5,0.2-0.9,0.4-1.3,0.6s-0.6,0.5-0.9,0.8
		c-0.2,0.3-0.3,0.5-0.4,0.7c0,0.2-0.1,0.4-0.1,0.4L1895.6,478.2z"/>
	<path d="M1926.2,482.1v9.5c0,2.8,0.2,4.2,0.5,5h-3c-0.3-0.5-0.5-2-0.5-4.7v-9.8h-5.6c-0.1,4.4-1.2,11.7-2.4,14.5h-2.9
		c1.3-3.3,2.2-10,2.4-14.5c-1.4,0-2.6,0.1-3.5,0.3l-0.4-1.8c0.8-0.5,2.2-0.9,4.9-0.9h13.2l-0.3,2.4H1926.2z"/>
</g>
<g>
	<path d="M1815.4,667.7v9.5c0,2.8,0.2,4.2,0.5,5h-3c-0.3-0.5-0.5-2-0.5-4.7v-9.8h-5.6c-0.1,4.4-1.2,11.7-2.4,14.5h-2.9
		c1.3-3.3,2.2-10,2.4-14.5c-1.4,0-2.6,0.1-3.5,0.3l-0.4-1.8c0.8-0.5,2.2-0.9,4.9-0.9h13.2l-0.3,2.4H1815.4z"/>
	<path d="M1821.2,682.7l11-23.7l2.1,1.1l-11,23.7L1821.2,682.7z"/>
	<path d="M1846.5,660.2c1.8,0,3.4,0.7,4.8,2l-1.7,1.9c-0.2-0.2-0.3-0.4-0.4-0.6s-0.2-0.4-0.5-0.5c-0.3-0.2-0.7-0.4-1.1-0.5
		c-0.4-0.1-0.7-0.1-1-0.1c-0.5,0-1,0.1-1.6,0.3s-1.2,0.6-1.7,1.2c-0.5,0.6-1,1.5-1.4,2.6c-0.4,1.1-0.6,2.5-0.6,4.3
		c0.5-0.8,1.1-1.5,2-1.9s1.7-0.7,2.6-0.7c0.8,0,1.6,0.2,2.3,0.5c0.7,0.3,1.4,0.8,1.9,1.5c0.5,0.6,1,1.4,1.3,2.3s0.5,1.8,0.5,2.9
		c0,1.1-0.2,2.1-0.5,3c-0.3,0.9-0.8,1.7-1.3,2.3c-0.6,0.6-1.2,1.1-2,1.5c-0.8,0.3-1.6,0.5-2.4,0.5c-1.1,0-2.1-0.2-2.9-0.7
		c-0.8-0.5-1.5-1.2-2.1-2s-1-2-1.3-3.2s-0.5-2.7-0.5-4.3c0-2,0.2-3.7,0.5-5.2c0.4-1.5,0.9-2.8,1.6-3.8c0.7-1,1.5-1.8,2.4-2.3
		C1844.3,660.5,1845.3,660.2,1846.5,660.2z M1841.3,673.3c0,0.1,0,0.3,0,0.4s0,0.3,0,0.4c0,0.9,0.1,1.8,0.3,2.5
		c0.2,0.8,0.5,1.4,0.9,2c0.4,0.6,0.9,1,1.4,1.3c0.5,0.3,1.1,0.5,1.7,0.5c1,0,1.9-0.4,2.6-1.3c0.7-0.9,1.1-2.1,1.1-3.8
		c0-0.9-0.1-1.6-0.3-2.3s-0.5-1.1-0.9-1.6s-0.8-0.7-1.2-0.9s-0.9-0.3-1.3-0.3c-0.8,0-1.6,0.3-2.4,0.9
		C1842.4,671.8,1841.8,672.5,1841.3,673.3z"/>
</g>
<g>
	<path d="M1745.2,749.9v9.5c0,2.8,0.2,4.2,0.5,5h-3c-0.3-0.5-0.5-2-0.5-4.7v-9.8h-5.6c-0.1,4.4-1.2,11.7-2.4,14.5h-2.9
		c1.3-3.3,2.2-10,2.4-14.5c-1.4,0-2.6,0.1-3.5,0.3l-0.4-1.8c0.8-0.5,2.2-0.9,4.9-0.9h13.2l-0.3,2.4H1745.2z"/>
	<path d="M1751.1,764.9l11-23.7l2.1,1.1l-11,23.7L1751.1,764.9z"/>
	<path d="M1777.3,742.6h2v13.6h2.8v2.2h-2.8v6h-2.5v-6.1h-8.8v-1.8L1777.3,742.6z M1776.8,746.5l-6.4,9.8h6.4V746.5z"/>
</g>
<g>
	<path d="M1450.1,121.2v9.5c0,2.8,0.2,4.2,0.5,5h-3c-0.3-0.5-0.5-2-0.5-4.7v-9.8h-5.6c-0.1,4.4-1.2,11.7-2.4,14.5h-2.9
		c1.3-3.3,2.2-10,2.4-14.5c-1.4,0-2.6,0.1-3.5,0.3l-0.4-1.8c0.8-0.5,2.2-0.9,4.9-0.9h13.2l-0.4,2.4H1450.1z"/>
	<path d="M1461.5,117.4h2.2v6h6v2.1h-6v6.5h-2.2v-6.5h-6.2v-2.1h6.2V117.4z"/>
	<path d="M1487.1,121.2v9.5c0,2.8,0.2,4.2,0.5,5h-3c-0.3-0.5-0.5-2-0.5-4.7v-9.8h-5.6c-0.1,4.4-1.2,11.7-2.4,14.5h-2.9
		c1.3-3.3,2.2-10,2.4-14.5c-1.4,0-2.6,0.1-3.5,0.3l-0.4-1.8c0.8-0.5,2.2-0.9,4.9-0.9h13.2l-0.3,2.4H1487.1z"/>
	<path d="M1492.9,136.2l11-23.7l2.1,1.1l-11,23.7L1492.9,136.2z"/>
	<path d="M1510.9,117.3c0.6-1.1,1.5-2,2.6-2.6c1.1-0.6,2.3-0.9,3.5-0.9c0.9,0,1.7,0.2,2.4,0.5c0.8,0.3,1.4,0.8,2,1.3s1,1.2,1.4,2
		c0.3,0.7,0.5,1.5,0.5,2.4c0,0.7-0.1,1.3-0.3,1.9c-0.2,0.6-0.5,1.2-0.8,1.7c-0.3,0.5-0.7,1.1-1.1,1.6c-0.4,0.5-0.9,1-1.3,1.4l-2.1,2
		c-0.3,0.3-0.6,0.6-1,1c-0.4,0.4-0.7,0.8-1.1,1.2c-0.4,0.4-0.7,0.9-1.1,1.4c-0.3,0.5-0.7,1-0.9,1.5h9.1c0.1,0,0.2-0.1,0.4-0.2
		c0.1-0.1,0.2-0.2,0.4-0.2h0.1v2.5h-12.8v-1.5c0.9-1.7,1.8-3.2,2.8-4.4c1-1.2,2-2.3,2.9-3.1l1.7-1.5c0.6-0.5,1.1-1,1.4-1.5
		c0.4-0.5,0.6-0.9,0.9-1.3c0.2-0.4,0.3-0.8,0.4-1.2c0.1-0.4,0.1-0.8,0.1-1.2c0-0.5-0.1-1-0.3-1.5c-0.2-0.5-0.5-0.9-0.9-1.3
		c-0.4-0.4-0.8-0.7-1.3-0.9c-0.5-0.2-1-0.3-1.5-0.3c-0.6,0-1.1,0.1-1.6,0.3c-0.5,0.2-0.9,0.4-1.3,0.6s-0.6,0.5-0.9,0.8
		c-0.2,0.3-0.3,0.5-0.4,0.7c0,0.2-0.1,0.4-0.1,0.4L1510.9,117.3z"/>
</g>
<g>
	<path d="M1132,480.5v9.5c0,2.8,0.2,4.2,0.5,5h-3c-0.3-0.5-0.5-2-0.5-4.7v-9.8h-5.6c-0.1,4.4-1.2,11.7-2.4,14.5h-2.9
		c1.3-3.3,2.2-10,2.4-14.5c-1.4,0-2.6,0.1-3.5,0.3l-0.4-1.8c0.8-0.5,2.2-0.9,4.9-0.9h13.2l-0.3,2.4H1132z"/>
</g>
<g>
	<path d="M1467,844v9.5c0,2.8,0.2,4.2,0.5,5h-3c-0.3-0.5-0.5-2-0.5-4.7V844h-5.6c-0.1,4.4-1.2,11.7-2.4,14.5h-2.9
		c1.3-3.3,2.2-10,2.4-14.5c-1.4,0-2.6,0.1-3.5,0.3l-0.4-1.8c0.8-0.5,2.2-0.9,4.9-0.9h13.2l-0.4,2.4H1467z"/>
	<path d="M1472.8,859l11-23.7l2.1,1.1l-11,23.7L1472.8,859z"/>
	<path d="M1490.8,840.1c0.6-1.1,1.5-2,2.6-2.6s2.3-0.9,3.5-0.9c0.9,0,1.7,0.2,2.5,0.5c0.8,0.3,1.4,0.8,2,1.3c0.6,0.6,1,1.2,1.4,2
		c0.3,0.7,0.5,1.5,0.5,2.4c0,0.7-0.1,1.3-0.3,1.9c-0.2,0.6-0.5,1.2-0.8,1.7c-0.3,0.5-0.7,1.1-1.1,1.6c-0.4,0.5-0.9,1-1.3,1.4l-2.1,2
		c-0.3,0.3-0.6,0.6-1,1c-0.4,0.4-0.7,0.8-1.1,1.2c-0.4,0.4-0.7,0.9-1.1,1.4s-0.7,1-0.9,1.5h9.1c0.1,0,0.2-0.1,0.4-0.2
		c0.1-0.1,0.3-0.2,0.4-0.2h0.1v2.5h-12.8V857c0.9-1.7,1.8-3.2,2.8-4.4c1-1.2,2-2.3,2.9-3.1l1.7-1.5c0.6-0.5,1.1-1,1.4-1.5
		c0.4-0.5,0.6-0.9,0.9-1.3s0.4-0.8,0.4-1.2c0.1-0.4,0.1-0.8,0.1-1.2c0-0.5-0.1-1-0.3-1.5s-0.5-0.9-0.9-1.3c-0.4-0.4-0.8-0.7-1.3-0.9
		s-1-0.3-1.5-0.3c-0.6,0-1.1,0.1-1.6,0.3s-0.9,0.4-1.3,0.6s-0.6,0.5-0.9,0.8s-0.3,0.5-0.3,0.7c0,0.2-0.1,0.4-0.1,0.4L1490.8,840.1z"
		/>
</g>
<line class="st9" x1="1480.3" y1="146" x2="1480.3" y2="821"/>
<line class="st10" x1="1145.9" y1="484.6" x2="1820.9" y2="484.6"/>
<g>
	<g>
		<path class="st2" d="M1680.4,484.5c0,108.8-88.2,197-197,197c-108.8,0-197-88.2-197-197s88.2-197,197-197
			c33.2,0,64.4,8.2,91.9,22.7"/>
		<g>
			<polygon class="st3" points="1569.6,315.7 1584.6,315.4 1576.9,302.6 			"/>
		</g>
	</g>
</g>
<line class="st8" x1="1479.5" y1="484.2" x2="1721.8" y2="726.5"/>
<line class="st8" x1="1480.1" y1="485" x2="1776.9" y2="656.4"/>
</svg>
