<?xml version="1.0" encoding="utf-8"?>
<!-- Generator: Adobe Illustrator 19.2.1, SVG Export Plug-In . SVG Version: 6.00 Build 0)  -->
<svg version="1.1" id="Layer_1" xmlns="http://www.w3.org/2000/svg" xmlns:xlink="http://www.w3.org/1999/xlink" x="0px" y="0px"
	 viewBox="0 0 1000 1000" style="enable-background:new 0 0 1000 1000;" xml:space="preserve">
<style type="text/css">
	.st0{fill:none;stroke:#58595B;stroke-width:3;stroke-miterlimit:10;}
	.st1{fill:#FFFFFF;stroke:#000000;stroke-width:1.5;stroke-miterlimit:10;}
	.st2{fill:none;stroke:#58595B;stroke-width:1.5;stroke-miterlimit:10;}
	.st3{fill:#58595B;}
	.st4{fill:none;stroke:#58595B;stroke-width:4.2426;stroke-miterlimit:10;}
	.st5{fill:#FFFFFF;stroke:#000000;stroke-width:1.4591;stroke-miterlimit:10;}
	.st6{fill:none;stroke:#58595B;stroke-width:1.4661;stroke-miterlimit:10;}
	.st7{fill:none;stroke:#58595B;stroke-width:1.9664;stroke-miterlimit:10;}
	.st8{fill:none;stroke:#000000;stroke-width:1.5;stroke-miterlimit:10;}
	.st9{fill:none;stroke:#000000;stroke-width:1.5886;stroke-miterlimit:10;}
	.st10{fill:none;stroke:#000000;stroke-width:1.5964;stroke-miterlimit:10;}
</style>
<g>
	<path d="M90.1,101.8l-1.5,2.2c-0.1,0-0.2-0.1-0.2-0.3s0-0.3-0.1-0.4c-0.4-0.5-1-1-1.8-1.5c-0.8-0.5-1.7-0.7-2.6-0.7
		c-0.4,0-0.9,0.1-1.3,0.2c-0.4,0.1-0.8,0.3-1.1,0.4s-0.6,0.4-0.8,0.7c-0.2,0.3-0.3,0.6-0.3,1c0,0.3,0.1,0.5,0.2,0.8
		c0.1,0.2,0.4,0.4,0.7,0.6c0.3,0.2,0.7,0.4,1.3,0.6c0.6,0.2,1.3,0.4,2.2,0.7c2,0.5,3.4,1.2,4.3,1.9c0.8,0.7,1.3,1.6,1.3,2.7
		c0,0.7-0.2,1.4-0.5,2s-0.7,1.2-1.3,1.6c-0.6,0.5-1.3,0.8-2.1,1.1c-0.8,0.3-1.7,0.4-2.8,0.4c-2.7,0-4.9-0.8-6.8-2.5l1.4-2.5
		c0.1,0.1,0.1,0.2,0.1,0.3c0,0.2,0.1,0.3,0.2,0.6c0.1,0.2,0.4,0.5,0.8,0.7c0.4,0.3,1,0.6,1.7,0.9c0.4,0.2,0.8,0.3,1.2,0.4
		c0.4,0.1,0.9,0.1,1.3,0.1c0.5,0,0.9-0.1,1.4-0.2c0.5-0.1,0.9-0.3,1.3-0.5c0.4-0.2,0.7-0.5,0.9-0.8c0.2-0.3,0.4-0.7,0.4-1.1
		c0-0.6-0.3-1.1-0.8-1.5c-0.6-0.4-1.6-0.9-3.1-1.3c-1-0.3-1.7-0.5-2-0.6c-0.8-0.3-1.5-0.6-1.8-0.9s-0.7-0.5-1-0.9
		c-0.3-0.3-0.6-0.7-0.7-1.2c-0.2-0.4-0.3-0.9-0.3-1.4c0-0.6,0.2-1.1,0.5-1.6c0.3-0.5,0.7-1,1.3-1.4c0.5-0.4,1.2-0.7,2-1
		c0.8-0.2,1.6-0.4,2.5-0.4C86.6,99.2,88.6,100.1,90.1,101.8z"/>
	<path d="M99.1,95.4l2.7-0.5c0,0.2,0,0.4-0.1,0.6c-0.1,0.2-0.1,0.3-0.1,0.4l-0.4,3.8h5.2v2h-5.2c-0.2,2.1-0.3,4-0.3,5.9
		c0,1.1,0,2.1,0.1,2.9s0.2,1.4,0.4,1.8c0.2,0.4,0.5,0.8,0.9,1s0.9,0.4,1.5,0.4c1.1,0,2.3-0.5,3.6-1.5l0.8,2c-1.6,1.2-3.3,1.8-5,1.8
		c-1.7,0-2.9-0.5-3.7-1.5s-1.1-2.7-1-5c0-0.8,0-1.9,0.1-3.2c0-1.3,0.1-2.8,0.3-4.6H95v-2h3.8L99.1,95.4z"/>
	<path d="M113.5,99.6h2.6l-0.1,3.1c0.5-1.1,1.3-2,2.3-2.6s2.2-0.9,3.4-0.9c1.7,0,3.2,0.6,4.3,1.8l-1.2,2.4c-0.3-0.3-0.5-0.6-0.7-0.9
		c-0.2-0.2-0.4-0.4-0.7-0.6s-0.5-0.3-0.8-0.4c-0.3-0.1-0.7-0.1-1.1-0.1c-0.8,0-1.5,0.2-2.2,0.5s-1.3,0.8-1.8,1.4
		c-0.5,0.6-0.9,1.3-1.2,2c-0.3,0.8-0.5,1.6-0.5,2.4v7.8h-2.5V99.6z"/>
	<path d="M136.4,99.3c1,0,1.9,0.2,2.8,0.6c0.9,0.4,1.6,0.9,2.3,1.7s1.2,1.6,1.6,2.6c0.4,1,0.6,2.2,0.6,3.5c0,1.3-0.2,2.5-0.6,3.5
		c-0.4,1-0.9,1.9-1.5,2.6c-0.7,0.7-1.4,1.3-2.3,1.7c-0.9,0.4-1.8,0.6-2.8,0.6c-1,0-2-0.2-2.9-0.6c-0.9-0.4-1.7-1-2.4-1.7
		c-0.7-0.7-1.2-1.6-1.6-2.6c-0.4-1-0.6-2.1-0.6-3.3c0-1.2,0.2-2.3,0.6-3.4c0.4-1,1-1.9,1.6-2.7c0.7-0.7,1.5-1.3,2.4-1.8
		C134.5,99.5,135.4,99.3,136.4,99.3z M141.1,107.7c0-1-0.1-1.9-0.4-2.7c-0.3-0.8-0.6-1.4-1.1-2c-0.4-0.5-1-0.9-1.5-1.2
		c-0.6-0.3-1.2-0.4-1.8-0.4c-0.6,0-1.2,0.1-1.8,0.4c-0.6,0.3-1.1,0.7-1.5,1.2c-0.4,0.5-0.8,1.2-1,1.9c-0.3,0.8-0.4,1.6-0.4,2.6
		c0,0.9,0.1,1.8,0.4,2.6c0.3,0.8,0.6,1.4,1,2c0.4,0.6,0.9,1,1.5,1.3c0.6,0.3,1.2,0.5,1.9,0.5c0.7,0,1.3-0.1,1.8-0.4
		c0.6-0.3,1.1-0.7,1.5-1.2c0.4-0.5,0.8-1.2,1-1.9C141,109.6,141.1,108.7,141.1,107.7z"/>
	<path d="M147.3,92.3h2.8c0,0.1-0.1,0.3-0.2,0.5s-0.2,0.3-0.2,0.5V107l8-7.4c0.5,0.1,1.2,0.2,1.9,0.2h0.9l-6.7,6.3l7.9,9.6l-3.3,0.1
		l-6.6-8.2l-2.1,2v6.1h-2.5V92.3z"/>
	<path d="M171.6,99.2c0.8,0,1.7,0.2,2.5,0.5c0.8,0.3,1.5,0.8,2.1,1.4c0.6,0.6,1.1,1.4,1.4,2.4c0.4,1,0.5,2.1,0.5,3.4
		c0,0.2,0,0.4,0,0.6c0,0.2,0,0.4-0.1,0.6h-11.4c0,1.1,0.2,2.1,0.6,2.8c0.3,0.8,0.8,1.4,1.3,1.8s1.1,0.8,1.7,1
		c0.6,0.2,1.3,0.3,1.9,0.3c1.7,0,3-0.6,4.1-1.8l1.4,1.4c-1.4,1.6-3.2,2.5-5.6,2.5c-1.2,0-2.2-0.2-3.2-0.5s-1.8-0.9-2.5-1.6
		c-0.7-0.7-1.2-1.6-1.6-2.6c-0.4-1-0.6-2.2-0.6-3.6c0-1.4,0.2-2.6,0.6-3.6c0.4-1,0.9-1.9,1.6-2.6c0.7-0.7,1.4-1.3,2.3-1.6
		S170.5,99.2,171.6,99.2z M166.7,106h8.8c0-0.1,0-0.2,0-0.3c0-0.1,0-0.2,0-0.3c0-0.6-0.1-1.1-0.3-1.6c-0.2-0.5-0.5-1-0.9-1.3
		c-0.4-0.4-0.8-0.7-1.3-0.9c-0.5-0.2-1-0.3-1.6-0.3c-1.1,0-2.1,0.4-3,1.2C167.5,103.1,167,104.3,166.7,106z"/>
	<path d="M180.6,93.8h2.3l2.3,14.7l3.5-13.1h0.8l3.5,13.2l2-14.8h2.1l-3.5,21.9h-0.9l-3.7-14.4l-3.8,14.4h-1L180.6,93.8z"/>
	<path d="M206.6,99.2c0.8,0,1.7,0.2,2.5,0.5c0.8,0.3,1.5,0.8,2.1,1.4c0.6,0.6,1.1,1.4,1.4,2.4c0.4,1,0.5,2.1,0.5,3.4
		c0,0.2,0,0.4,0,0.6c0,0.2,0,0.4-0.1,0.6h-11.4c0,1.1,0.2,2.1,0.6,2.8c0.3,0.8,0.8,1.4,1.3,1.8s1.1,0.8,1.7,1
		c0.6,0.2,1.3,0.3,1.9,0.3c1.7,0,3-0.6,4.1-1.8l1.4,1.4c-1.4,1.6-3.2,2.5-5.6,2.5c-1.2,0-2.2-0.2-3.2-0.5s-1.8-0.9-2.5-1.6
		c-0.7-0.7-1.2-1.6-1.6-2.6c-0.4-1-0.6-2.2-0.6-3.6c0-1.4,0.2-2.6,0.6-3.6c0.4-1,0.9-1.9,1.6-2.6c0.7-0.7,1.4-1.3,2.3-1.6
		S205.5,99.2,206.6,99.2z M201.7,106h8.8c0-0.1,0-0.2,0-0.3c0-0.1,0-0.2,0-0.3c0-0.6-0.1-1.1-0.3-1.6c-0.2-0.5-0.5-1-0.9-1.3
		c-0.4-0.4-0.8-0.7-1.3-0.9c-0.5-0.2-1-0.3-1.6-0.3c-1.1,0-2.1,0.4-3,1.2C202.5,103.1,202,104.3,201.7,106z"/>
	<path d="M218.7,99.6h6.4v14h3.7v2h-10.4v-2h4.1v-11.9h-3.9V99.6z M222.6,93.2c0.4-0.4,0.8-0.5,1.3-0.5c0.5,0,0.9,0.2,1.3,0.5
		c0.4,0.4,0.5,0.8,0.5,1.3s-0.2,0.9-0.5,1.3c-0.4,0.4-0.8,0.5-1.3,0.5c-0.5,0-0.9-0.2-1.3-0.5c-0.4-0.3-0.5-0.8-0.5-1.3
		C222.1,94,222.3,93.5,222.6,93.2z"/>
	<path d="M244.4,100.6c1.1-1,2.4-1.4,4-1.4h0.5l0.3,2.1c-0.2,0-0.3,0-0.5-0.1s-0.3,0-0.5,0c-1,0-1.9,0.2-2.8,0.7
		c0.5,0.8,0.8,1.7,0.8,2.7c0,0.7-0.2,1.5-0.5,2.1c-0.3,0.7-0.7,1.2-1.2,1.8s-1.1,0.9-1.8,1.2c-0.7,0.3-1.4,0.4-2.2,0.4
		c-0.7,0-1.3-0.1-2-0.4c-0.7,0.7-1.1,1.3-1.1,1.8c0,0.4,0.2,0.7,0.7,0.9c0.5,0.2,1.1,0.3,1.9,0.3c0.4,0,0.9,0,1.3-0.1
		c0.5,0,0.9-0.1,1.3-0.1c1,0,2,0.1,2.7,0.3c0.8,0.2,1.4,0.5,1.8,0.8c0.5,0.4,0.8,0.8,1.1,1.3c0.2,0.5,0.3,1,0.3,1.6
		c0,0.6-0.2,1.2-0.5,1.8c-0.3,0.6-0.8,1.1-1.4,1.6c-0.6,0.5-1.4,0.8-2.3,1.1c-0.9,0.3-2,0.4-3.2,0.4c-1.3,0-2.4-0.1-3.3-0.3
		c-0.9-0.2-1.7-0.5-2.2-0.8c-0.6-0.4-1-0.8-1.3-1.2c-0.3-0.5-0.4-0.9-0.4-1.5c0-1.3,0.9-2.4,2.6-3.5c-0.9-0.4-1.3-1.2-1.3-2.2
		c0-1,0.6-2,1.8-3c-0.7-0.5-1.3-1.1-1.8-1.9c-0.4-0.8-0.6-1.6-0.6-2.5c0-0.8,0.2-1.5,0.5-2.2c0.3-0.7,0.8-1.3,1.3-1.8
		c0.5-0.5,1.2-0.9,1.9-1.2c0.7-0.3,1.4-0.4,2.2-0.4C242,99.1,243.3,99.6,244.4,100.6z M238.1,114.8c-1.3,0.7-2,1.6-2,2.5
		c0,0.5,0.1,0.9,0.4,1.2c0.3,0.3,0.6,0.6,1.1,0.8s1,0.3,1.6,0.4c0.6,0.1,1.3,0.1,1.9,0.1c1.4,0,2.6-0.3,3.5-0.8
		c0.9-0.5,1.4-1.2,1.4-2.1c0-0.6-0.3-1.1-0.8-1.5c-0.5-0.3-1.2-0.5-2.3-0.5c-0.1,0-0.2,0-0.3,0c-0.1,0-0.2,0-0.4,0
		c-0.9,0-1.7,0-2.4-0.1C239.3,114.9,238.7,114.8,238.1,114.8z M237.9,102.2c-0.3,0.3-0.6,0.7-0.8,1.1s-0.2,0.9-0.2,1.3
		c0,0.5,0.1,0.9,0.3,1.3c0.2,0.4,0.4,0.8,0.8,1.1s0.7,0.6,1.1,0.7c0.4,0.2,0.9,0.3,1.3,0.3c0.5,0,0.9-0.1,1.4-0.3
		c0.4-0.2,0.8-0.4,1.1-0.8c0.3-0.3,0.6-0.7,0.8-1.1c0.2-0.4,0.3-0.9,0.3-1.3c0-0.5-0.1-0.9-0.3-1.3c-0.2-0.4-0.4-0.8-0.8-1.1
		c-0.3-0.3-0.7-0.6-1.1-0.8s-0.9-0.3-1.3-0.3C239.5,101.1,238.6,101.5,237.9,102.2z"/>
	<path d="M252.5,115.6V92.3h2.9c0,0,0,0,0,0s0,0,0,0c0,0.1-0.1,0.2-0.2,0.3c-0.1,0.1-0.2,0.3-0.2,0.5v9.3c0.6-1,1.4-1.8,2.4-2.3
		c0.9-0.6,1.9-0.9,2.9-0.9c0.7,0,1.4,0.1,2,0.4c0.6,0.2,1.1,0.6,1.6,1.2c0.4,0.5,0.8,1.2,1,2.1c0.2,0.8,0.4,1.9,0.4,3.1v9.7h-2.5
		V106c0-1.7-0.3-2.9-0.9-3.5c-0.6-0.7-1.3-1-2.1-1c-0.5,0-1.1,0.1-1.6,0.3c-0.5,0.2-1.1,0.6-1.6,1c-0.5,0.4-0.9,0.9-1.2,1.5
		c-0.3,0.6-0.4,1.3-0.4,2.1v9.2H252.5z"/>
	<path d="M274.1,95.4l2.7-0.5c0,0.2,0,0.4-0.1,0.6c-0.1,0.2-0.1,0.3-0.1,0.4l-0.4,3.8h5.2v2h-5.2c-0.2,2.1-0.3,4-0.3,5.9
		c0,1.1,0,2.1,0.1,2.9s0.2,1.4,0.4,1.8c0.2,0.4,0.5,0.8,0.9,1s0.9,0.4,1.5,0.4c1.1,0,2.3-0.5,3.6-1.5l0.8,2c-1.6,1.2-3.3,1.8-5,1.8
		c-1.7,0-2.9-0.5-3.7-1.5s-1.1-2.7-1-5c0-0.8,0-1.9,0.1-3.2c0-1.3,0.1-2.8,0.3-4.6H270v-2h3.8L274.1,95.4z"/>
	<path d="M299.5,94.5l-0.4,0c-0.1,0-0.2,0-0.3,0.1c-2.1,1.2-3.7,2.9-4.8,5c-1.1,2.1-1.7,4.5-1.7,7.1c0,1.3,0.2,2.6,0.5,3.9
		c0.3,1.3,0.9,2.5,1.5,3.6c0.7,1.2,1.5,2.2,2.4,3.2c0.9,1,2,1.8,3.2,2.5l-1.1,1.9c-1.4-0.7-2.6-1.6-3.7-2.7c-1.1-1.1-2-2.2-2.8-3.6
		c-0.8-1.3-1.3-2.7-1.8-4.2c-0.4-1.5-0.6-3-0.6-4.6s0.2-3.1,0.6-4.6c0.4-1.5,1-2.8,1.8-4.1s1.7-2.4,2.8-3.3c1.1-1,2.3-1.7,3.7-2.3
		l1,2.1C299.6,94.5,299.5,94.5,299.5,94.5z"/>
	<path d="M313,93.8v21.8h-2.4V96.8l-4.4,1.3l-0.6-1.4l5.7-3H313z"/>
	<path d="M322.7,94.5l0.7-2.2c1.4,0.7,2.7,1.5,3.8,2.5c1.2,1,2.2,2.2,3,3.4c0.8,1.3,1.4,2.6,1.9,4.1s0.7,3,0.7,4.5
		c0,1.6-0.2,3.1-0.7,4.6c-0.5,1.5-1.1,2.9-1.9,4.2c-0.8,1.3-1.8,2.5-3,3.5c-1.2,1-2.5,1.9-3.9,2.6l-0.7-2.1c1.2-0.6,2.2-1.4,3.2-2.3
		c0.9-0.9,1.7-1.9,2.4-3c0.7-1.1,1.2-2.3,1.6-3.5c0.4-1.2,0.5-2.5,0.5-3.8s-0.2-2.6-0.5-3.8c-0.4-1.2-0.9-2.4-1.5-3.5
		s-1.4-2.1-2.4-2.9C324.9,95.9,323.8,95.1,322.7,94.5z"/>
	<path d="M348.2,114.9c0,1.8-1.2,4-3.7,6.6l-1.2-1c0.7-0.6,1.2-1.3,1.6-2s0.6-1.3,0.6-1.7c0-0.2-0.1-0.4-0.3-0.6s-0.4-0.4-0.6-0.6
		s-0.4-0.4-0.6-0.6c-0.2-0.2-0.3-0.5-0.3-0.8c0-0.6,0.2-1.1,0.6-1.5c0.4-0.4,0.9-0.6,1.5-0.6c0.6,0,1.2,0.3,1.6,0.8
		C348,113.4,348.2,114.1,348.2,114.9z M347.3,101.4c0.4,0.4,0.6,0.9,0.6,1.4s-0.2,1-0.6,1.4c-0.4,0.4-0.9,0.6-1.5,0.6
		c-0.5,0-1-0.2-1.4-0.6c-0.4-0.4-0.6-0.9-0.6-1.4c0-0.6,0.2-1,0.6-1.4c0.4-0.4,0.9-0.6,1.4-0.6C346.4,100.8,346.9,101,347.3,101.4z"
		/>
</g>
<path d="M924.5,74.3h-849c-0.3,0-0.5-0.2-0.5-0.5c0-0.3,0.2-0.5,0.5-0.5h849c0.3,0,0.5,0.2,0.5,0.5C925,74.1,924.8,74.3,924.5,74.3z
	"/>
<g>
	<path d="M90.1,356.1l-1.5,2.2c-0.1,0-0.2-0.1-0.2-0.3c0-0.2,0-0.3-0.1-0.4c-0.4-0.5-1-1-1.8-1.5c-0.8-0.5-1.7-0.7-2.6-0.7
		c-0.4,0-0.9,0.1-1.3,0.2c-0.4,0.1-0.8,0.3-1.1,0.4c-0.3,0.2-0.6,0.4-0.8,0.7c-0.2,0.3-0.3,0.6-0.3,1c0,0.3,0.1,0.5,0.2,0.8
		s0.4,0.4,0.7,0.6c0.3,0.2,0.7,0.4,1.3,0.6s1.3,0.4,2.2,0.7c2,0.5,3.4,1.2,4.3,1.9c0.8,0.7,1.3,1.6,1.3,2.7c0,0.7-0.2,1.4-0.5,2
		c-0.3,0.6-0.7,1.2-1.3,1.6c-0.6,0.5-1.3,0.8-2.1,1.1c-0.8,0.3-1.7,0.4-2.8,0.4c-2.7,0-4.9-0.8-6.8-2.5l1.4-2.5
		c0.1,0.1,0.1,0.2,0.1,0.3c0,0.2,0.1,0.3,0.2,0.6s0.4,0.5,0.8,0.7c0.4,0.3,1,0.6,1.7,0.9c0.4,0.2,0.8,0.3,1.2,0.4
		c0.4,0.1,0.9,0.1,1.3,0.1c0.5,0,0.9-0.1,1.4-0.2c0.5-0.1,0.9-0.3,1.3-0.5c0.4-0.2,0.7-0.5,0.9-0.8c0.2-0.3,0.4-0.7,0.4-1.1
		c0-0.6-0.3-1.1-0.8-1.6c-0.6-0.4-1.6-0.9-3.1-1.3c-1-0.3-1.7-0.5-2-0.6c-0.8-0.3-1.5-0.6-1.8-0.9s-0.7-0.5-1-0.9
		c-0.3-0.3-0.6-0.7-0.7-1.2c-0.2-0.4-0.3-0.9-0.3-1.4c0-0.6,0.2-1.1,0.5-1.6s0.7-1,1.3-1.4c0.5-0.4,1.2-0.7,2-1
		c0.8-0.2,1.6-0.4,2.5-0.4C86.6,353.6,88.6,354.5,90.1,356.1z"/>
	<path d="M99.1,349.7l2.7-0.5c0,0.2,0,0.4-0.1,0.6c-0.1,0.2-0.1,0.3-0.1,0.4l-0.4,3.8h5.2v2h-5.2c-0.2,2.1-0.3,4-0.3,5.9
		c0,1.1,0,2.1,0.1,2.9s0.2,1.4,0.4,1.8c0.2,0.4,0.5,0.8,0.9,1s0.9,0.4,1.5,0.4c1.1,0,2.3-0.5,3.6-1.5l0.8,2c-1.6,1.2-3.3,1.8-5,1.8
		c-1.7,0-2.9-0.5-3.7-1.5c-0.8-1-1.1-2.7-1-5c0-0.8,0-1.9,0.1-3.2c0-1.3,0.1-2.8,0.3-4.6H95v-2h3.8L99.1,349.7z"/>
	<path d="M113.5,354h2.6l-0.1,3.1c0.5-1.1,1.3-2,2.3-2.6c1.1-0.6,2.2-0.9,3.4-0.9c1.7,0,3.2,0.6,4.3,1.8l-1.2,2.4
		c-0.3-0.4-0.5-0.6-0.7-0.9c-0.2-0.2-0.4-0.4-0.7-0.6c-0.2-0.2-0.5-0.3-0.8-0.4c-0.3-0.1-0.7-0.1-1.1-0.1c-0.8,0-1.5,0.2-2.2,0.5
		s-1.3,0.8-1.8,1.4c-0.5,0.6-0.9,1.3-1.2,2c-0.3,0.8-0.5,1.6-0.5,2.4v7.8h-2.5V354z"/>
	<path d="M136.4,353.7c1,0,1.9,0.2,2.8,0.6c0.9,0.4,1.6,0.9,2.3,1.7c0.7,0.7,1.2,1.6,1.6,2.6c0.4,1,0.6,2.2,0.6,3.5
		c0,1.3-0.2,2.5-0.6,3.5c-0.4,1-0.9,1.9-1.5,2.6c-0.7,0.7-1.4,1.3-2.3,1.7c-0.9,0.4-1.8,0.6-2.8,0.6c-1,0-2-0.2-2.9-0.6
		c-0.9-0.4-1.7-1-2.4-1.7c-0.7-0.7-1.2-1.6-1.6-2.6c-0.4-1-0.6-2.1-0.6-3.3s0.2-2.3,0.6-3.4c0.4-1,1-1.9,1.6-2.7
		c0.7-0.7,1.5-1.3,2.4-1.8C134.5,353.9,135.4,353.7,136.4,353.7z M141.1,362.1c0-1-0.1-1.9-0.4-2.7c-0.3-0.8-0.6-1.4-1.1-2
		c-0.4-0.5-1-0.9-1.5-1.2c-0.6-0.3-1.2-0.4-1.8-0.4c-0.6,0-1.2,0.1-1.8,0.4c-0.6,0.3-1.1,0.7-1.5,1.2c-0.4,0.5-0.8,1.2-1,1.9
		s-0.4,1.6-0.4,2.6c0,0.9,0.1,1.8,0.4,2.6s0.6,1.4,1,2c0.4,0.6,0.9,1,1.5,1.3c0.6,0.3,1.2,0.5,1.9,0.5c0.7,0,1.3-0.1,1.8-0.4
		s1.1-0.7,1.5-1.2s0.8-1.2,1-1.9S141.1,363.1,141.1,362.1z"/>
	<path d="M147.3,346.7h2.8c0,0.1-0.1,0.3-0.2,0.5c-0.1,0.2-0.2,0.3-0.2,0.5v13.7l8-7.4c0.5,0.1,1.2,0.2,1.9,0.2h0.9l-6.7,6.3
		l7.9,9.6l-3.3,0.1l-6.6-8.2l-2.1,2v6.1h-2.5V346.7z"/>
	<path d="M171.6,353.6c0.8,0,1.7,0.2,2.5,0.5c0.8,0.3,1.5,0.8,2.1,1.4c0.6,0.6,1.1,1.4,1.4,2.4c0.4,1,0.5,2.1,0.5,3.4
		c0,0.2,0,0.4,0,0.6c0,0.2,0,0.4-0.1,0.6h-11.4c0,1.1,0.2,2.1,0.6,2.8c0.3,0.8,0.8,1.4,1.3,1.8c0.5,0.5,1.1,0.8,1.7,1
		c0.6,0.2,1.3,0.3,1.9,0.3c1.7,0,3-0.6,4.1-1.8l1.4,1.4c-1.4,1.6-3.2,2.5-5.6,2.5c-1.2,0-2.2-0.2-3.2-0.5s-1.8-0.9-2.5-1.6
		c-0.7-0.7-1.2-1.6-1.6-2.6c-0.4-1-0.6-2.2-0.6-3.6c0-1.4,0.2-2.6,0.6-3.6c0.4-1.1,0.9-1.9,1.6-2.6c0.7-0.7,1.4-1.3,2.3-1.6
		S170.5,353.6,171.6,353.6z M166.7,360.3h8.8c0-0.1,0-0.2,0-0.3c0-0.1,0-0.2,0-0.3c0-0.6-0.1-1.1-0.3-1.6c-0.2-0.5-0.5-1-0.9-1.3
		c-0.4-0.4-0.8-0.7-1.3-0.9c-0.5-0.2-1-0.3-1.6-0.3c-1.1,0-2.1,0.4-3,1.2C167.5,357.5,167,358.7,166.7,360.3z"/>
	<path d="M180.6,348.2h2.3l2.3,14.7l3.5-13.1h0.8L193,363l2-14.8h2.1l-3.5,21.9h-0.9l-3.7-14.4l-3.8,14.4h-1L180.6,348.2z"/>
	<path d="M206.6,353.6c0.8,0,1.7,0.2,2.5,0.5c0.8,0.3,1.5,0.8,2.1,1.4c0.6,0.6,1.1,1.4,1.4,2.4c0.4,1,0.5,2.1,0.5,3.4
		c0,0.2,0,0.4,0,0.6c0,0.2,0,0.4-0.1,0.6h-11.4c0,1.1,0.2,2.1,0.6,2.8c0.3,0.8,0.8,1.4,1.3,1.8c0.5,0.5,1.1,0.8,1.7,1
		c0.6,0.2,1.3,0.3,1.9,0.3c1.7,0,3-0.6,4.1-1.8l1.4,1.4c-1.4,1.6-3.2,2.5-5.6,2.5c-1.2,0-2.2-0.2-3.2-0.5s-1.8-0.9-2.5-1.6
		c-0.7-0.7-1.2-1.6-1.6-2.6c-0.4-1-0.6-2.2-0.6-3.6c0-1.4,0.2-2.6,0.6-3.6c0.4-1.1,0.9-1.9,1.6-2.6c0.7-0.7,1.4-1.3,2.3-1.6
		S205.5,353.6,206.6,353.6z M201.7,360.3h8.8c0-0.1,0-0.2,0-0.3c0-0.1,0-0.2,0-0.3c0-0.6-0.1-1.1-0.3-1.6c-0.2-0.5-0.5-1-0.9-1.3
		c-0.4-0.4-0.8-0.7-1.3-0.9c-0.5-0.2-1-0.3-1.6-0.3c-1.1,0-2.1,0.4-3,1.2C202.5,357.5,202,358.7,201.7,360.3z"/>
	<path d="M218.7,354h6.4v14h3.7v2h-10.4v-2h4.1V356h-3.9V354z M222.6,347.6c0.4-0.4,0.8-0.5,1.3-0.5c0.5,0,0.9,0.2,1.3,0.5
		c0.4,0.4,0.5,0.8,0.5,1.3s-0.2,0.9-0.5,1.3c-0.4,0.3-0.8,0.5-1.3,0.5c-0.5,0-0.9-0.2-1.3-0.5s-0.5-0.8-0.5-1.3
		C222.1,348.3,222.3,347.9,222.6,347.6z"/>
	<path d="M244.4,355c1.1-1,2.4-1.4,4-1.4h0.5l0.3,2.1c-0.2,0-0.3,0-0.5-0.1c-0.2,0-0.3,0-0.5,0c-1,0-1.9,0.2-2.8,0.7
		c0.5,0.8,0.8,1.7,0.8,2.7c0,0.7-0.2,1.5-0.5,2.1c-0.3,0.7-0.7,1.2-1.2,1.8s-1.1,0.9-1.8,1.2c-0.7,0.3-1.4,0.4-2.2,0.4
		c-0.7,0-1.3-0.1-2-0.4c-0.7,0.7-1.1,1.3-1.1,1.8c0,0.4,0.2,0.7,0.7,0.9s1.1,0.3,1.9,0.3c0.4,0,0.9,0,1.3-0.1c0.5,0,0.9-0.1,1.3-0.1
		c1,0,2,0.1,2.7,0.3c0.8,0.2,1.4,0.5,1.8,0.8c0.5,0.4,0.8,0.8,1.1,1.3c0.2,0.5,0.3,1,0.3,1.6c0,0.6-0.2,1.2-0.5,1.8
		c-0.3,0.6-0.8,1.1-1.4,1.6c-0.6,0.5-1.4,0.8-2.3,1.1c-0.9,0.3-2,0.4-3.2,0.4c-1.3,0-2.4-0.1-3.3-0.3c-0.9-0.2-1.7-0.5-2.2-0.8
		c-0.6-0.3-1-0.8-1.3-1.2c-0.3-0.5-0.4-0.9-0.4-1.5c0-1.3,0.9-2.4,2.6-3.5c-0.9-0.4-1.3-1.2-1.3-2.2c0-1,0.6-2,1.8-3
		c-0.7-0.5-1.3-1.1-1.8-1.9c-0.4-0.8-0.6-1.6-0.6-2.5c0-0.8,0.2-1.5,0.5-2.2s0.8-1.3,1.3-1.8c0.5-0.5,1.2-0.9,1.9-1.2
		c0.7-0.3,1.4-0.4,2.2-0.4C242,353.5,243.3,354,244.4,355z M238.1,369.2c-1.3,0.7-2,1.6-2,2.5c0,0.5,0.1,0.9,0.4,1.2
		c0.3,0.3,0.6,0.6,1.1,0.8s1,0.3,1.6,0.4c0.6,0.1,1.3,0.1,1.9,0.1c1.4,0,2.6-0.3,3.5-0.8c0.9-0.5,1.4-1.2,1.4-2.1
		c0-0.6-0.3-1.1-0.8-1.5c-0.5-0.3-1.2-0.5-2.3-0.5c-0.1,0-0.2,0-0.3,0c-0.1,0-0.2,0-0.4,0c-0.9,0-1.7,0-2.4-0.1
		C239.3,369.2,238.7,369.2,238.1,369.2z M237.9,356.6c-0.3,0.3-0.6,0.7-0.8,1.1s-0.2,0.9-0.2,1.3s0.1,0.9,0.3,1.3
		c0.2,0.4,0.4,0.8,0.8,1.1c0.3,0.3,0.7,0.6,1.1,0.7c0.4,0.2,0.9,0.3,1.3,0.3c0.5,0,0.9-0.1,1.4-0.3s0.8-0.4,1.1-0.8
		c0.3-0.3,0.6-0.7,0.8-1.1c0.2-0.4,0.3-0.9,0.3-1.3s-0.1-0.9-0.3-1.3c-0.2-0.4-0.4-0.8-0.8-1.1c-0.3-0.3-0.7-0.6-1.1-0.8
		c-0.4-0.2-0.9-0.3-1.3-0.3C239.5,355.5,238.6,355.9,237.9,356.6z"/>
	<path d="M252.5,370v-23.3h2.9c0,0,0,0,0,0s0,0,0,0c0,0.1-0.1,0.2-0.2,0.3c-0.1,0.1-0.2,0.3-0.2,0.5v9.3c0.6-1,1.4-1.8,2.4-2.3
		c0.9-0.6,1.9-0.9,2.9-0.9c0.7,0,1.4,0.1,2,0.4c0.6,0.2,1.1,0.6,1.6,1.2c0.4,0.5,0.8,1.2,1,2.1c0.2,0.8,0.4,1.9,0.4,3.1v9.7h-2.5
		v-9.6c0-1.7-0.3-2.9-0.9-3.5s-1.3-1-2.1-1c-0.5,0-1.1,0.1-1.6,0.3c-0.5,0.2-1.1,0.6-1.6,1c-0.5,0.4-0.9,0.9-1.2,1.5
		c-0.3,0.6-0.4,1.3-0.4,2.1v9.2H252.5z"/>
	<path d="M274.1,349.7l2.7-0.5c0,0.2,0,0.4-0.1,0.6c-0.1,0.2-0.1,0.3-0.1,0.4l-0.4,3.8h5.2v2h-5.2c-0.2,2.1-0.3,4-0.3,5.9
		c0,1.1,0,2.1,0.1,2.9s0.2,1.4,0.4,1.8c0.2,0.4,0.5,0.8,0.9,1s0.9,0.4,1.5,0.4c1.1,0,2.3-0.5,3.6-1.5l0.8,2c-1.6,1.2-3.3,1.8-5,1.8
		c-1.7,0-2.9-0.5-3.7-1.5c-0.8-1-1.1-2.7-1-5c0-0.8,0-1.9,0.1-3.2c0-1.3,0.1-2.8,0.3-4.6H270v-2h3.8L274.1,349.7z"/>
	<path d="M299.5,348.9l-0.4,0c-0.1,0-0.2,0-0.3,0.1c-2.1,1.2-3.7,2.9-4.8,5c-1.1,2.1-1.7,4.5-1.7,7.1c0,1.3,0.2,2.6,0.5,3.9
		c0.3,1.3,0.9,2.5,1.5,3.6c0.7,1.2,1.5,2.2,2.4,3.2s2,1.8,3.2,2.5l-1.1,1.9c-1.4-0.7-2.6-1.6-3.7-2.7c-1.1-1.1-2-2.2-2.8-3.6
		c-0.8-1.3-1.3-2.7-1.8-4.2c-0.4-1.5-0.6-3-0.6-4.6c0-1.6,0.2-3.1,0.6-4.6c0.4-1.5,1-2.8,1.8-4.1s1.7-2.4,2.8-3.3
		c1.1-1,2.3-1.7,3.7-2.3l1,2.1C299.6,348.9,299.5,348.9,299.5,348.9z"/>
	<path d="M306.2,348.2h11.1v2.2h-9l-0.4,6.3c1.1-0.6,2.3-0.8,3.6-0.8c0.9,0,1.8,0.2,2.6,0.5s1.5,0.8,2.1,1.5
		c0.6,0.6,1.1,1.4,1.4,2.3c0.3,0.9,0.5,1.9,0.5,3c0,1.1-0.2,2.1-0.5,3c-0.3,0.9-0.8,1.7-1.5,2.3c-0.6,0.6-1.3,1.1-2.2,1.4
		c-0.8,0.3-1.7,0.5-2.7,0.5c-1.3,0-2.6-0.3-3.7-0.9c-1.1-0.6-2.1-1.4-2.8-2.5l2.2-1.6c0.1,0.1,0.2,0.2,0.2,0.4c0,0.2,0,0.3,0.1,0.4
		c0.1,0.2,0.3,0.4,0.5,0.6c0.2,0.2,0.5,0.5,0.9,0.7c0.4,0.2,0.8,0.4,1.3,0.5c0.5,0.2,1,0.2,1.6,0.2s1.1-0.1,1.6-0.4
		c0.5-0.2,1-0.6,1.3-1c0.4-0.4,0.7-1,0.9-1.6s0.3-1.4,0.3-2.2c0-0.8-0.1-1.5-0.3-2.2c-0.2-0.6-0.6-1.2-1-1.6c-0.4-0.4-0.9-0.8-1.4-1
		c-0.5-0.2-1.1-0.4-1.7-0.4c-0.7,0-1.5,0.2-2.2,0.5c-0.7,0.4-1.3,0.9-1.9,1.5l-1.5-0.6L306.2,348.2z"/>
	<path d="M322.7,348.9l0.7-2.2c1.4,0.7,2.7,1.5,3.8,2.5s2.2,2.2,3,3.4c0.8,1.3,1.4,2.6,1.9,4.1c0.4,1.5,0.7,3,0.7,4.5
		c0,1.6-0.2,3.1-0.7,4.6c-0.5,1.5-1.1,2.9-1.9,4.2c-0.8,1.3-1.8,2.5-3,3.5c-1.2,1-2.5,1.9-3.9,2.6l-0.7-2.1c1.2-0.6,2.2-1.4,3.2-2.3
		c0.9-0.9,1.7-1.9,2.4-3s1.2-2.3,1.6-3.5c0.4-1.2,0.5-2.5,0.5-3.8c0-1.3-0.2-2.6-0.5-3.8s-0.9-2.4-1.5-3.5s-1.4-2.1-2.4-2.9
		C324.9,350.2,323.8,349.5,322.7,348.9z"/>
	<path d="M348.2,369.3c0,1.8-1.2,4-3.7,6.6l-1.2-1c0.7-0.6,1.2-1.3,1.6-2c0.4-0.7,0.6-1.3,0.6-1.7c0-0.2-0.1-0.4-0.3-0.6
		c-0.2-0.2-0.4-0.4-0.6-0.6c-0.2-0.2-0.4-0.4-0.6-0.6c-0.2-0.2-0.3-0.5-0.3-0.8c0-0.6,0.2-1.1,0.6-1.5c0.4-0.4,0.9-0.6,1.5-0.6
		c0.6,0,1.2,0.3,1.6,0.8C348,367.7,348.2,368.4,348.2,369.3z M347.3,355.8c0.4,0.4,0.6,0.9,0.6,1.4s-0.2,1-0.6,1.4
		c-0.4,0.4-0.9,0.6-1.5,0.6c-0.5,0-1-0.2-1.4-0.6c-0.4-0.4-0.6-0.9-0.6-1.4c0-0.6,0.2-1,0.6-1.4c0.4-0.4,0.9-0.6,1.4-0.6
		C346.4,355.2,346.9,355.4,347.3,355.8z"/>
</g>
<path d="M922.5,328.7h-845c-1.4,0-2.5-1.1-2.5-2.5c0-1.4,1.1-2.5,2.5-2.5h845c1.4,0,2.5,1.1,2.5,2.5
	C925,327.6,923.9,328.7,922.5,328.7z"/>
<g>
	<path d="M90.1,500l-1.5,2.2c-0.1,0-0.2-0.1-0.2-0.3s0-0.3-0.1-0.4c-0.4-0.5-1-1-1.8-1.5c-0.8-0.5-1.7-0.7-2.6-0.7
		c-0.4,0-0.9,0.1-1.3,0.2c-0.4,0.1-0.8,0.3-1.1,0.4s-0.6,0.4-0.8,0.7c-0.2,0.3-0.3,0.6-0.3,1c0,0.3,0.1,0.5,0.2,0.8
		c0.1,0.2,0.4,0.4,0.7,0.6c0.3,0.2,0.7,0.4,1.3,0.6c0.6,0.2,1.3,0.4,2.2,0.7c2,0.5,3.4,1.2,4.3,1.9c0.8,0.7,1.3,1.6,1.3,2.7
		c0,0.7-0.2,1.4-0.5,2s-0.7,1.2-1.3,1.6c-0.6,0.5-1.3,0.8-2.1,1.1c-0.8,0.3-1.7,0.4-2.8,0.4c-2.7,0-4.9-0.8-6.8-2.5l1.4-2.5
		c0.1,0.1,0.1,0.2,0.1,0.3c0,0.2,0.1,0.3,0.2,0.6c0.1,0.2,0.4,0.5,0.8,0.7c0.4,0.3,1,0.6,1.7,0.9c0.4,0.2,0.8,0.3,1.2,0.4
		c0.4,0.1,0.9,0.1,1.3,0.1c0.5,0,0.9-0.1,1.4-0.2c0.5-0.1,0.9-0.3,1.3-0.5c0.4-0.2,0.7-0.5,0.9-0.8c0.2-0.3,0.4-0.7,0.4-1.1
		c0-0.6-0.3-1.1-0.8-1.5c-0.6-0.4-1.6-0.9-3.1-1.3c-1-0.3-1.7-0.5-2-0.6c-0.8-0.3-1.5-0.6-1.8-0.9s-0.7-0.5-1-0.9
		c-0.3-0.3-0.6-0.7-0.7-1.2c-0.2-0.4-0.3-0.9-0.3-1.4c0-0.6,0.2-1.1,0.5-1.6c0.3-0.5,0.7-1,1.3-1.4c0.5-0.4,1.2-0.7,2-1
		c0.8-0.2,1.6-0.4,2.5-0.4C86.6,497.5,88.6,498.3,90.1,500z"/>
	<path d="M99.1,493.6l2.7-0.5c0,0.2,0,0.4-0.1,0.6c-0.1,0.2-0.1,0.3-0.1,0.4l-0.4,3.8h5.2v2h-5.2c-0.2,2.1-0.3,4-0.3,5.9
		c0,1.1,0,2.1,0.1,2.9s0.2,1.4,0.4,1.8c0.2,0.4,0.5,0.8,0.9,1s0.9,0.4,1.5,0.4c1.1,0,2.3-0.5,3.6-1.5l0.8,2c-1.6,1.2-3.3,1.8-5,1.8
		c-1.7,0-2.9-0.5-3.7-1.5s-1.1-2.7-1-5c0-0.8,0-1.9,0.1-3.2c0-1.3,0.1-2.8,0.3-4.6H95v-2h3.8L99.1,493.6z"/>
	<path d="M113.5,497.9h2.6L116,501c0.5-1.1,1.3-2,2.3-2.6s2.2-0.9,3.4-0.9c1.7,0,3.2,0.6,4.3,1.8l-1.2,2.4c-0.3-0.3-0.5-0.6-0.7-0.9
		c-0.2-0.2-0.4-0.4-0.7-0.6s-0.5-0.3-0.8-0.4c-0.3-0.1-0.7-0.1-1.1-0.1c-0.8,0-1.5,0.2-2.2,0.5s-1.3,0.8-1.8,1.4
		c-0.5,0.6-0.9,1.3-1.2,2c-0.3,0.8-0.5,1.6-0.5,2.4v7.8h-2.5V497.9z"/>
	<path d="M136.4,497.5c1,0,1.9,0.2,2.8,0.6c0.9,0.4,1.6,0.9,2.3,1.7s1.2,1.6,1.6,2.6c0.4,1,0.6,2.2,0.6,3.5c0,1.3-0.2,2.5-0.6,3.5
		c-0.4,1-0.9,1.9-1.5,2.6c-0.7,0.7-1.4,1.3-2.3,1.7c-0.9,0.4-1.8,0.6-2.8,0.6c-1,0-2-0.2-2.9-0.6c-0.9-0.4-1.7-1-2.4-1.7
		c-0.7-0.7-1.2-1.6-1.6-2.6c-0.4-1-0.6-2.1-0.6-3.3c0-1.2,0.2-2.3,0.6-3.4c0.4-1,1-1.9,1.6-2.7c0.7-0.7,1.5-1.3,2.4-1.8
		C134.5,497.8,135.4,497.5,136.4,497.5z M141.1,506c0-1-0.1-1.9-0.4-2.7c-0.3-0.8-0.6-1.4-1.1-2c-0.4-0.5-1-0.9-1.5-1.2
		c-0.6-0.3-1.2-0.4-1.8-0.4c-0.6,0-1.2,0.1-1.8,0.4c-0.6,0.3-1.1,0.7-1.5,1.2c-0.4,0.5-0.8,1.2-1,1.9c-0.3,0.8-0.4,1.6-0.4,2.6
		c0,0.9,0.1,1.8,0.4,2.6c0.3,0.8,0.6,1.4,1,2c0.4,0.6,0.9,1,1.5,1.3c0.6,0.3,1.2,0.5,1.9,0.5c0.7,0,1.3-0.1,1.8-0.4
		c0.6-0.3,1.1-0.7,1.5-1.2c0.4-0.5,0.8-1.2,1-1.9C141,507.8,141.1,507,141.1,506z"/>
	<path d="M147.3,490.6h2.8c0,0.1-0.1,0.3-0.2,0.5s-0.2,0.3-0.2,0.5v13.7l8-7.4c0.5,0.1,1.2,0.2,1.9,0.2h0.9l-6.7,6.3l7.9,9.6
		l-3.3,0.1l-6.6-8.2l-2.1,2v6.1h-2.5V490.6z"/>
	<path d="M171.6,497.5c0.8,0,1.7,0.2,2.5,0.5c0.8,0.3,1.5,0.8,2.1,1.4c0.6,0.6,1.1,1.4,1.4,2.4c0.4,1,0.5,2.1,0.5,3.4
		c0,0.2,0,0.4,0,0.6c0,0.2,0,0.4-0.1,0.6h-11.4c0,1.1,0.2,2.1,0.6,2.8c0.3,0.8,0.8,1.4,1.3,1.8s1.1,0.8,1.7,1
		c0.6,0.2,1.3,0.3,1.9,0.3c1.7,0,3-0.6,4.1-1.8l1.4,1.4c-1.4,1.6-3.2,2.5-5.6,2.5c-1.2,0-2.2-0.2-3.2-0.5s-1.8-0.9-2.5-1.6
		c-0.7-0.7-1.2-1.6-1.6-2.6c-0.4-1-0.6-2.2-0.6-3.6c0-1.4,0.2-2.6,0.6-3.6c0.4-1,0.9-1.9,1.6-2.6c0.7-0.7,1.4-1.3,2.3-1.6
		S170.5,497.5,171.6,497.5z M166.7,504.2h8.8c0-0.1,0-0.2,0-0.3c0-0.1,0-0.2,0-0.3c0-0.6-0.1-1.1-0.3-1.6c-0.2-0.5-0.5-1-0.9-1.3
		c-0.4-0.4-0.8-0.7-1.3-0.9c-0.5-0.2-1-0.3-1.6-0.3c-1.1,0-2.1,0.4-3,1.2C167.5,501.4,167,502.6,166.7,504.2z"/>
	<path d="M180.6,492.1h2.3l2.3,14.7l3.5-13.1h0.8l3.5,13.2l2-14.8h2.1l-3.5,21.9h-0.9l-3.7-14.4l-3.8,14.4h-1L180.6,492.1z"/>
	<path d="M206.6,497.5c0.8,0,1.7,0.2,2.5,0.5c0.8,0.3,1.5,0.8,2.1,1.4c0.6,0.6,1.1,1.4,1.4,2.4c0.4,1,0.5,2.1,0.5,3.4
		c0,0.2,0,0.4,0,0.6c0,0.2,0,0.4-0.1,0.6h-11.4c0,1.1,0.2,2.1,0.6,2.8c0.3,0.8,0.8,1.4,1.3,1.8s1.1,0.8,1.7,1
		c0.6,0.2,1.3,0.3,1.9,0.3c1.7,0,3-0.6,4.1-1.8l1.4,1.4c-1.4,1.6-3.2,2.5-5.6,2.5c-1.2,0-2.2-0.2-3.2-0.5s-1.8-0.9-2.5-1.6
		c-0.7-0.7-1.2-1.6-1.6-2.6c-0.4-1-0.6-2.2-0.6-3.6c0-1.4,0.2-2.6,0.6-3.6c0.4-1,0.9-1.9,1.6-2.6c0.7-0.7,1.4-1.3,2.3-1.6
		S205.5,497.5,206.6,497.5z M201.7,504.2h8.8c0-0.1,0-0.2,0-0.3c0-0.1,0-0.2,0-0.3c0-0.6-0.1-1.1-0.3-1.6c-0.2-0.5-0.5-1-0.9-1.3
		c-0.4-0.4-0.8-0.7-1.3-0.9c-0.5-0.2-1-0.3-1.6-0.3c-1.1,0-2.1,0.4-3,1.2C202.5,501.4,202,502.6,201.7,504.2z"/>
	<path d="M218.7,497.9h6.4v14h3.7v2h-10.4v-2h4.1v-11.9h-3.9V497.9z M222.6,491.4c0.4-0.4,0.8-0.5,1.3-0.5c0.5,0,0.9,0.2,1.3,0.5
		c0.4,0.4,0.5,0.8,0.5,1.3s-0.2,0.9-0.5,1.3c-0.4,0.4-0.8,0.5-1.3,0.5c-0.5,0-0.9-0.2-1.3-0.5c-0.4-0.3-0.5-0.8-0.5-1.3
		C222.1,492.2,222.3,491.8,222.6,491.4z"/>
	<path d="M244.4,498.9c1.1-1,2.4-1.4,4-1.4h0.5l0.3,2.1c-0.2,0-0.3,0-0.5-0.1s-0.3,0-0.5,0c-1,0-1.9,0.2-2.8,0.7
		c0.5,0.8,0.8,1.7,0.8,2.7c0,0.7-0.2,1.5-0.5,2.1c-0.3,0.7-0.7,1.2-1.2,1.8s-1.1,0.9-1.8,1.2c-0.7,0.3-1.4,0.4-2.2,0.4
		c-0.7,0-1.3-0.1-2-0.4c-0.7,0.7-1.1,1.3-1.1,1.8c0,0.4,0.2,0.7,0.7,0.9c0.5,0.2,1.1,0.3,1.9,0.3c0.4,0,0.9,0,1.3-0.1
		c0.5,0,0.9-0.1,1.3-0.1c1,0,2,0.1,2.7,0.3c0.8,0.2,1.4,0.5,1.8,0.8c0.5,0.4,0.8,0.8,1.1,1.3c0.2,0.5,0.3,1,0.3,1.6
		c0,0.6-0.2,1.2-0.5,1.8c-0.3,0.6-0.8,1.1-1.4,1.6c-0.6,0.5-1.4,0.8-2.3,1.1c-0.9,0.3-2,0.4-3.2,0.4c-1.3,0-2.4-0.1-3.3-0.3
		c-0.9-0.2-1.7-0.5-2.2-0.8c-0.6-0.4-1-0.8-1.3-1.2c-0.3-0.5-0.4-0.9-0.4-1.5c0-1.3,0.9-2.4,2.6-3.5c-0.9-0.4-1.3-1.2-1.3-2.2
		c0-1,0.6-2,1.8-3c-0.7-0.5-1.3-1.1-1.8-1.9c-0.4-0.8-0.6-1.6-0.6-2.5c0-0.8,0.2-1.5,0.5-2.2c0.3-0.7,0.8-1.3,1.3-1.8
		c0.5-0.5,1.2-0.9,1.9-1.2c0.7-0.3,1.4-0.4,2.2-0.4C242,497.4,243.3,497.9,244.4,498.9z M238.1,513c-1.3,0.7-2,1.6-2,2.5
		c0,0.5,0.1,0.9,0.4,1.2c0.3,0.3,0.6,0.6,1.1,0.8s1,0.3,1.6,0.4c0.6,0.1,1.3,0.1,1.9,0.1c1.4,0,2.6-0.3,3.5-0.8
		c0.9-0.5,1.4-1.2,1.4-2.1c0-0.6-0.3-1.1-0.8-1.5c-0.5-0.3-1.2-0.5-2.3-0.5c-0.1,0-0.2,0-0.3,0c-0.1,0-0.2,0-0.4,0
		c-0.9,0-1.7,0-2.4-0.1C239.3,513.1,238.7,513.1,238.1,513z M237.9,500.4c-0.3,0.3-0.6,0.7-0.8,1.1s-0.2,0.9-0.2,1.3
		c0,0.5,0.1,0.9,0.3,1.3c0.2,0.4,0.4,0.8,0.8,1.1s0.7,0.6,1.1,0.7c0.4,0.2,0.9,0.3,1.3,0.3c0.5,0,0.9-0.1,1.4-0.3
		c0.4-0.2,0.8-0.4,1.1-0.8c0.3-0.3,0.6-0.7,0.8-1.1c0.2-0.4,0.3-0.9,0.3-1.3c0-0.5-0.1-0.9-0.3-1.3c-0.2-0.4-0.4-0.8-0.8-1.1
		c-0.3-0.3-0.7-0.6-1.1-0.8s-0.9-0.3-1.3-0.3C239.5,499.4,238.6,499.7,237.9,500.4z"/>
	<path d="M252.5,513.9v-23.3h2.9c0,0,0,0,0,0s0,0,0,0c0,0.1-0.1,0.2-0.2,0.3c-0.1,0.1-0.2,0.3-0.2,0.5v9.3c0.6-1,1.4-1.8,2.4-2.3
		c0.9-0.6,1.9-0.9,2.9-0.9c0.7,0,1.4,0.1,2,0.4c0.6,0.2,1.1,0.6,1.6,1.2c0.4,0.5,0.8,1.2,1,2.1c0.2,0.8,0.4,1.9,0.4,3.1v9.7h-2.5
		v-9.6c0-1.7-0.3-2.9-0.9-3.5c-0.6-0.7-1.3-1-2.1-1c-0.5,0-1.1,0.1-1.6,0.3c-0.5,0.2-1.1,0.6-1.6,1c-0.5,0.4-0.9,0.9-1.2,1.5
		c-0.3,0.6-0.4,1.3-0.4,2.1v9.2H252.5z"/>
	<path d="M274.1,493.6l2.7-0.5c0,0.2,0,0.4-0.1,0.6c-0.1,0.2-0.1,0.3-0.1,0.4l-0.4,3.8h5.2v2h-5.2c-0.2,2.1-0.3,4-0.3,5.9
		c0,1.1,0,2.1,0.1,2.9s0.2,1.4,0.4,1.8c0.2,0.4,0.5,0.8,0.9,1s0.9,0.4,1.5,0.4c1.1,0,2.3-0.5,3.6-1.5l0.8,2c-1.6,1.2-3.3,1.8-5,1.8
		c-1.7,0-2.9-0.5-3.7-1.5s-1.1-2.7-1-5c0-0.8,0-1.9,0.1-3.2c0-1.3,0.1-2.8,0.3-4.6H270v-2h3.8L274.1,493.6z"/>
	<path d="M299.5,492.8l-0.4,0c-0.1,0-0.2,0-0.3,0.1c-2.1,1.2-3.7,2.9-4.8,5c-1.1,2.1-1.7,4.5-1.7,7.1c0,1.3,0.2,2.6,0.5,3.9
		c0.3,1.3,0.9,2.5,1.5,3.6c0.7,1.2,1.5,2.2,2.4,3.2c0.9,1,2,1.8,3.2,2.5l-1.1,1.9c-1.4-0.7-2.6-1.6-3.7-2.7c-1.1-1.1-2-2.2-2.8-3.6
		c-0.8-1.3-1.3-2.7-1.8-4.2c-0.4-1.5-0.6-3-0.6-4.6s0.2-3.1,0.6-4.6c0.4-1.5,1-2.8,1.8-4.1s1.7-2.4,2.8-3.3c1.1-1,2.3-1.7,3.7-2.3
		l1,2.1C299.6,492.8,299.5,492.8,299.5,492.8z"/>
	<path d="M305.2,495.5c0.6-1.1,1.5-2,2.6-2.6c1.1-0.6,2.3-0.9,3.5-0.9c0.9,0,1.7,0.2,2.5,0.5c0.8,0.3,1.4,0.8,2,1.3
		c0.6,0.6,1,1.2,1.4,2c0.3,0.7,0.5,1.5,0.5,2.4c0,0.7-0.1,1.3-0.3,1.9s-0.5,1.2-0.8,1.7c-0.3,0.5-0.7,1.1-1.1,1.6
		c-0.4,0.5-0.9,1-1.3,1.4l-2.1,2c-0.3,0.3-0.6,0.6-1,1c-0.4,0.4-0.7,0.8-1.1,1.2c-0.4,0.4-0.7,0.9-1.1,1.4c-0.3,0.5-0.7,1-0.9,1.5
		h9.1c0.1,0,0.2-0.1,0.4-0.2c0.1-0.1,0.3-0.2,0.4-0.2h0.1v2.5h-12.8v-1.5c0.9-1.7,1.8-3.2,2.8-4.4c1-1.2,2-2.3,2.9-3.1l1.7-1.5
		c0.6-0.5,1.1-1,1.4-1.5c0.4-0.5,0.6-0.9,0.9-1.3c0.2-0.4,0.4-0.8,0.4-1.2c0.1-0.4,0.1-0.8,0.1-1.2c0-0.5-0.1-1-0.3-1.5
		c-0.2-0.5-0.5-0.9-0.9-1.3c-0.4-0.4-0.8-0.7-1.3-0.9c-0.5-0.2-1-0.3-1.5-0.3c-0.6,0-1.1,0.1-1.6,0.3c-0.5,0.2-0.9,0.4-1.3,0.6
		s-0.6,0.5-0.9,0.8c-0.2,0.3-0.3,0.5-0.4,0.7c0,0.2-0.1,0.3-0.1,0.4L305.2,495.5z"/>
	<path d="M333.5,494.8c0.7,0.9,1.2,2.1,1.6,3.6s0.6,3.1,0.6,4.9c0,1.8-0.2,3.4-0.6,4.8c-0.4,1.4-0.9,2.5-1.6,3.4
		c-0.7,0.9-1.4,1.6-2.3,2c-0.8,0.4-1.7,0.7-2.6,0.7c-0.9,0-1.8-0.3-2.6-0.8c-0.8-0.5-1.6-1.3-2.2-2.3c-0.7-1-1.2-2.1-1.6-3.5
		c-0.4-1.4-0.6-2.9-0.6-4.5c0-1.7,0.2-3.2,0.6-4.5c0.4-1.4,0.9-2.6,1.6-3.6c0.7-1,1.4-1.8,2.2-2.3s1.7-0.8,2.6-0.8
		C330.5,491.9,332.1,492.9,333.5,494.8z M332.2,496.9c-0.5-0.9-1-1.6-1.6-2.1c-0.6-0.5-1.2-0.7-1.9-0.7c-0.6,0-1.2,0.2-1.7,0.6
		c-0.6,0.4-1.1,1-1.5,1.7c-0.4,0.7-0.8,1.7-1.1,2.7c-0.3,1.1-0.4,2.2-0.4,3.5c0,1.4,0.2,2.8,0.5,4.1L332.2,496.9z M333,499.2
		l-7.7,9.8c0.6,1,1.1,1.8,1.8,2.3c0.6,0.5,1.2,0.7,1.8,0.7c0.6,0,1.2-0.2,1.8-0.6s1-0.9,1.4-1.7c0.4-0.7,0.7-1.6,1-2.6
		c0.2-1,0.4-2.2,0.4-3.5c0-0.8,0-1.6-0.1-2.3S333.2,499.9,333,499.2z"/>
	<path d="M340.2,492.8l0.7-2.2c1.4,0.7,2.7,1.5,3.9,2.5c1.2,1,2.2,2.2,3,3.4c0.8,1.3,1.4,2.6,1.9,4.1c0.4,1.5,0.7,3,0.7,4.5
		c0,1.6-0.2,3.1-0.7,4.6c-0.5,1.5-1.1,2.9-1.9,4.2c-0.8,1.3-1.8,2.5-3,3.5c-1.2,1-2.5,1.9-3.9,2.6l-0.7-2.1c1.2-0.6,2.2-1.4,3.2-2.3
		s1.7-1.9,2.4-3c0.7-1.1,1.2-2.3,1.6-3.5c0.4-1.2,0.5-2.5,0.5-3.8s-0.2-2.6-0.5-3.8c-0.4-1.2-0.9-2.4-1.5-3.5s-1.4-2.1-2.4-2.9
		C342.4,494.1,341.3,493.4,340.2,492.8z"/>
	<path d="M365.7,513.2c0,1.8-1.2,4-3.7,6.6l-1.2-1c0.7-0.6,1.2-1.3,1.6-2s0.6-1.3,0.6-1.7c0-0.2-0.1-0.4-0.3-0.6s-0.4-0.4-0.6-0.6
		s-0.4-0.4-0.6-0.6c-0.2-0.2-0.3-0.5-0.3-0.8c0-0.6,0.2-1.1,0.6-1.5c0.4-0.4,0.9-0.6,1.5-0.6c0.6,0,1.2,0.3,1.6,0.8
		C365.5,511.6,365.7,512.3,365.7,513.2z M364.8,499.7c0.4,0.4,0.6,0.9,0.6,1.4s-0.2,1-0.6,1.4c-0.4,0.4-0.9,0.6-1.5,0.6
		c-0.5,0-1-0.2-1.4-0.6c-0.4-0.4-0.6-0.9-0.6-1.4c0-0.6,0.2-1,0.6-1.4c0.4-0.4,0.9-0.6,1.4-0.6C363.9,499.1,364.4,499.3,364.8,499.7
		z"/>
</g>
<path d="M84.9,472.6c-5.5,0-9.9-4.4-9.9-9.9c0-5.5,4.4-9.9,9.9-9.9l830.2-0.4c0,0,0,0,0,0c5.5,0,9.9,4.4,9.9,9.9
	c0,5.5-4.4,9.9-9.9,9.9L84.9,472.6C84.9,472.6,84.9,472.6,84.9,472.6z"/>
<g>
	<path d="M90.1,684.3l-1.5,2.2c-0.1,0-0.2-0.1-0.2-0.3s0-0.3-0.1-0.4c-0.4-0.5-1-1-1.8-1.5c-0.8-0.5-1.7-0.7-2.6-0.7
		c-0.4,0-0.9,0.1-1.3,0.2c-0.4,0.1-0.8,0.3-1.1,0.4s-0.6,0.4-0.8,0.7c-0.2,0.3-0.3,0.6-0.3,1c0,0.3,0.1,0.5,0.2,0.8
		c0.1,0.2,0.4,0.4,0.7,0.6c0.3,0.2,0.7,0.4,1.3,0.6c0.6,0.2,1.3,0.4,2.2,0.7c2,0.5,3.4,1.2,4.3,1.9c0.8,0.7,1.3,1.6,1.3,2.7
		c0,0.7-0.2,1.4-0.5,2s-0.7,1.2-1.3,1.6c-0.6,0.5-1.3,0.8-2.1,1.1c-0.8,0.3-1.7,0.4-2.8,0.4c-2.7,0-4.9-0.8-6.8-2.5l1.4-2.5
		c0.1,0.1,0.1,0.2,0.1,0.3c0,0.2,0.1,0.3,0.2,0.6c0.1,0.2,0.4,0.5,0.8,0.7c0.4,0.3,1,0.6,1.7,0.9c0.4,0.2,0.8,0.3,1.2,0.4
		c0.4,0.1,0.9,0.1,1.3,0.1c0.5,0,0.9-0.1,1.4-0.2c0.5-0.1,0.9-0.3,1.3-0.5c0.4-0.2,0.7-0.5,0.9-0.8c0.2-0.3,0.4-0.7,0.4-1.1
		c0-0.6-0.3-1.1-0.8-1.5c-0.6-0.4-1.6-0.9-3.1-1.3c-1-0.3-1.7-0.5-2-0.6c-0.8-0.3-1.5-0.6-1.8-0.9s-0.7-0.5-1-0.9
		c-0.3-0.3-0.6-0.7-0.7-1.2c-0.2-0.4-0.3-0.9-0.3-1.4c0-0.6,0.2-1.1,0.5-1.6c0.3-0.5,0.7-1,1.3-1.4c0.5-0.4,1.2-0.7,2-1
		c0.8-0.2,1.6-0.4,2.5-0.4C86.6,681.8,88.6,682.6,90.1,684.3z"/>
	<path d="M99.1,677.9l2.7-0.5c0,0.2,0,0.4-0.1,0.6c-0.1,0.2-0.1,0.3-0.1,0.4l-0.4,3.8h5.2v2h-5.2c-0.2,2.1-0.3,4-0.3,5.9
		c0,1.1,0,2.1,0.1,2.9s0.2,1.4,0.4,1.8c0.2,0.4,0.5,0.8,0.9,1s0.9,0.4,1.5,0.4c1.1,0,2.3-0.5,3.6-1.5l0.8,2c-1.6,1.2-3.3,1.8-5,1.8
		c-1.7,0-2.9-0.5-3.7-1.5s-1.1-2.7-1-5c0-0.8,0-1.9,0.1-3.2c0-1.3,0.1-2.8,0.3-4.6H95v-2h3.8L99.1,677.9z"/>
	<path d="M113.5,682.2h2.6l-0.1,3.1c0.5-1.1,1.3-2,2.3-2.6s2.2-0.9,3.4-0.9c1.7,0,3.2,0.6,4.3,1.8l-1.2,2.4
		c-0.3-0.3-0.5-0.6-0.7-0.9c-0.2-0.2-0.4-0.4-0.7-0.6s-0.5-0.3-0.8-0.4c-0.3-0.1-0.7-0.1-1.1-0.1c-0.8,0-1.5,0.2-2.2,0.5
		s-1.3,0.8-1.8,1.4c-0.5,0.6-0.9,1.3-1.2,2c-0.3,0.8-0.5,1.6-0.5,2.4v7.8h-2.5V682.2z"/>
	<path d="M136.4,681.8c1,0,1.9,0.2,2.8,0.6c0.9,0.4,1.6,0.9,2.3,1.7s1.2,1.6,1.6,2.6c0.4,1,0.6,2.2,0.6,3.5c0,1.3-0.2,2.5-0.6,3.5
		c-0.4,1-0.9,1.9-1.5,2.6c-0.7,0.7-1.4,1.3-2.3,1.7c-0.9,0.4-1.8,0.6-2.8,0.6c-1,0-2-0.2-2.9-0.6c-0.9-0.4-1.7-1-2.4-1.7
		c-0.7-0.7-1.2-1.6-1.6-2.6c-0.4-1-0.6-2.1-0.6-3.3c0-1.2,0.2-2.3,0.6-3.4c0.4-1,1-1.9,1.6-2.7c0.7-0.7,1.5-1.3,2.4-1.8
		C134.5,682,135.4,681.8,136.4,681.8z M141.1,690.2c0-1-0.1-1.9-0.4-2.7c-0.3-0.8-0.6-1.4-1.1-2c-0.4-0.5-1-0.9-1.5-1.2
		c-0.6-0.3-1.2-0.4-1.8-0.4c-0.6,0-1.2,0.1-1.8,0.4c-0.6,0.3-1.1,0.7-1.5,1.2c-0.4,0.5-0.8,1.2-1,1.9c-0.3,0.8-0.4,1.6-0.4,2.6
		c0,0.9,0.1,1.8,0.4,2.6c0.3,0.8,0.6,1.4,1,2c0.4,0.6,0.9,1,1.5,1.3c0.6,0.3,1.2,0.5,1.9,0.5c0.7,0,1.3-0.1,1.8-0.4
		c0.6-0.3,1.1-0.7,1.5-1.2c0.4-0.5,0.8-1.2,1-1.9C141,692.1,141.1,691.2,141.1,690.2z"/>
	<path d="M147.3,674.9h2.8c0,0.1-0.1,0.3-0.2,0.5s-0.2,0.3-0.2,0.5v13.7l8-7.4c0.5,0.1,1.2,0.2,1.9,0.2h0.9l-6.7,6.3l7.9,9.6
		l-3.3,0.1l-6.6-8.2l-2.1,2v6.1h-2.5V674.9z"/>
	<path d="M171.6,681.8c0.8,0,1.7,0.2,2.5,0.5c0.8,0.3,1.5,0.8,2.1,1.4c0.6,0.6,1.1,1.4,1.4,2.4c0.4,1,0.5,2.1,0.5,3.4
		c0,0.2,0,0.4,0,0.6c0,0.2,0,0.4-0.1,0.6h-11.4c0,1.1,0.2,2.1,0.6,2.8c0.3,0.8,0.8,1.4,1.3,1.8s1.1,0.8,1.7,1
		c0.6,0.2,1.3,0.3,1.9,0.3c1.7,0,3-0.6,4.1-1.8l1.4,1.4c-1.4,1.6-3.2,2.5-5.6,2.5c-1.2,0-2.2-0.2-3.2-0.5s-1.8-0.9-2.5-1.6
		c-0.7-0.7-1.2-1.6-1.6-2.6c-0.4-1-0.6-2.2-0.6-3.6c0-1.4,0.2-2.6,0.6-3.6c0.4-1,0.9-1.9,1.6-2.6c0.7-0.7,1.4-1.3,2.3-1.6
		S170.5,681.8,171.6,681.8z M166.7,688.5h8.8c0-0.1,0-0.2,0-0.3c0-0.1,0-0.2,0-0.3c0-0.6-0.1-1.1-0.3-1.6c-0.2-0.5-0.5-1-0.9-1.3
		c-0.4-0.4-0.8-0.7-1.3-0.9c-0.5-0.2-1-0.3-1.6-0.3c-1.1,0-2.1,0.4-3,1.2C167.5,685.6,167,686.8,166.7,688.5z"/>
	<path d="M180.6,676.3h2.3l2.3,14.7l3.5-13.1h0.8l3.5,13.2l2-14.8h2.1l-3.5,21.9h-0.9l-3.7-14.4l-3.8,14.4h-1L180.6,676.3z"/>
	<path d="M206.6,681.8c0.8,0,1.7,0.2,2.5,0.5c0.8,0.3,1.5,0.8,2.1,1.4c0.6,0.6,1.1,1.4,1.4,2.4c0.4,1,0.5,2.1,0.5,3.4
		c0,0.2,0,0.4,0,0.6c0,0.2,0,0.4-0.1,0.6h-11.4c0,1.1,0.2,2.1,0.6,2.8c0.3,0.8,0.8,1.4,1.3,1.8s1.1,0.8,1.7,1
		c0.6,0.2,1.3,0.3,1.9,0.3c1.7,0,3-0.6,4.1-1.8l1.4,1.4c-1.4,1.6-3.2,2.5-5.6,2.5c-1.2,0-2.2-0.2-3.2-0.5s-1.8-0.9-2.5-1.6
		c-0.7-0.7-1.2-1.6-1.6-2.6c-0.4-1-0.6-2.2-0.6-3.6c0-1.4,0.2-2.6,0.6-3.6c0.4-1,0.9-1.9,1.6-2.6c0.7-0.7,1.4-1.3,2.3-1.6
		S205.5,681.8,206.6,681.8z M201.7,688.5h8.8c0-0.1,0-0.2,0-0.3c0-0.1,0-0.2,0-0.3c0-0.6-0.1-1.1-0.3-1.6c-0.2-0.5-0.5-1-0.9-1.3
		c-0.4-0.4-0.8-0.7-1.3-0.9c-0.5-0.2-1-0.3-1.6-0.3c-1.1,0-2.1,0.4-3,1.2C202.5,685.6,202,686.8,201.7,688.5z"/>
	<path d="M218.7,682.2h6.4v14h3.7v2h-10.4v-2h4.1v-11.9h-3.9V682.2z M222.6,675.7c0.4-0.4,0.8-0.5,1.3-0.5c0.5,0,0.9,0.2,1.3,0.5
		c0.4,0.4,0.5,0.8,0.5,1.3s-0.2,0.9-0.5,1.3c-0.4,0.4-0.8,0.5-1.3,0.5c-0.5,0-0.9-0.2-1.3-0.5c-0.4-0.3-0.5-0.8-0.5-1.3
		C222.1,676.5,222.3,676.1,222.6,675.7z"/>
	<path d="M244.4,683.2c1.1-1,2.4-1.4,4-1.4h0.5l0.3,2.1c-0.2,0-0.3,0-0.5-0.1s-0.3,0-0.5,0c-1,0-1.9,0.2-2.8,0.7
		c0.5,0.8,0.8,1.7,0.8,2.7c0,0.7-0.2,1.5-0.5,2.1c-0.3,0.7-0.7,1.2-1.2,1.8s-1.1,0.9-1.8,1.2c-0.7,0.3-1.4,0.4-2.2,0.4
		c-0.7,0-1.3-0.1-2-0.4c-0.7,0.7-1.1,1.3-1.1,1.8c0,0.4,0.2,0.7,0.7,0.9c0.5,0.2,1.1,0.3,1.9,0.3c0.4,0,0.9,0,1.3-0.1
		c0.5,0,0.9-0.1,1.3-0.1c1,0,2,0.1,2.7,0.3c0.8,0.2,1.4,0.5,1.8,0.8c0.5,0.4,0.8,0.8,1.1,1.3c0.2,0.5,0.3,1,0.3,1.6
		c0,0.6-0.2,1.2-0.5,1.8c-0.3,0.6-0.8,1.1-1.4,1.6c-0.6,0.5-1.4,0.8-2.3,1.1c-0.9,0.3-2,0.4-3.2,0.4c-1.3,0-2.4-0.1-3.3-0.3
		c-0.9-0.2-1.7-0.5-2.2-0.8c-0.6-0.4-1-0.8-1.3-1.2c-0.3-0.5-0.4-0.9-0.4-1.5c0-1.3,0.9-2.4,2.6-3.5c-0.9-0.4-1.3-1.2-1.3-2.2
		c0-1,0.6-2,1.8-3c-0.7-0.5-1.3-1.1-1.8-1.9c-0.4-0.8-0.6-1.6-0.6-2.5c0-0.8,0.2-1.5,0.5-2.2c0.3-0.7,0.8-1.3,1.3-1.8
		c0.5-0.5,1.2-0.9,1.9-1.2c0.7-0.3,1.4-0.4,2.2-0.4C242,681.6,243.3,682.1,244.4,683.2z M238.1,697.3c-1.3,0.7-2,1.6-2,2.5
		c0,0.5,0.1,0.9,0.4,1.2c0.3,0.3,0.6,0.6,1.1,0.8s1,0.3,1.6,0.4c0.6,0.1,1.3,0.1,1.9,0.1c1.4,0,2.6-0.3,3.5-0.8
		c0.9-0.5,1.4-1.2,1.4-2.1c0-0.6-0.3-1.1-0.8-1.5c-0.5-0.3-1.2-0.5-2.3-0.5c-0.1,0-0.2,0-0.3,0c-0.1,0-0.2,0-0.4,0
		c-0.9,0-1.7,0-2.4-0.1C239.3,697.4,238.7,697.4,238.1,697.3z M237.9,684.7c-0.3,0.3-0.6,0.7-0.8,1.1s-0.2,0.9-0.2,1.3
		c0,0.5,0.1,0.9,0.3,1.3c0.2,0.4,0.4,0.8,0.8,1.1s0.7,0.6,1.1,0.7c0.4,0.2,0.9,0.3,1.3,0.3c0.5,0,0.9-0.1,1.4-0.3
		c0.4-0.2,0.8-0.4,1.1-0.8c0.3-0.3,0.6-0.7,0.8-1.1c0.2-0.4,0.3-0.9,0.3-1.3c0-0.5-0.1-0.9-0.3-1.3c-0.2-0.4-0.4-0.8-0.8-1.1
		c-0.3-0.3-0.7-0.6-1.1-0.8s-0.9-0.3-1.3-0.3C239.5,683.7,238.6,684,237.9,684.7z"/>
	<path d="M252.5,698.1v-23.3h2.9c0,0,0,0,0,0s0,0,0,0c0,0.1-0.1,0.2-0.2,0.3c-0.1,0.1-0.2,0.3-0.2,0.5v9.3c0.6-1,1.4-1.8,2.4-2.3
		c0.9-0.6,1.9-0.9,2.9-0.9c0.7,0,1.4,0.1,2,0.4c0.6,0.2,1.1,0.6,1.6,1.2c0.4,0.5,0.8,1.2,1,2.1c0.2,0.8,0.4,1.9,0.4,3.1v9.7h-2.5
		v-9.6c0-1.7-0.3-2.9-0.9-3.5c-0.6-0.7-1.3-1-2.1-1c-0.5,0-1.1,0.1-1.6,0.3c-0.5,0.2-1.1,0.6-1.6,1c-0.5,0.4-0.9,0.9-1.2,1.5
		c-0.3,0.6-0.4,1.3-0.4,2.1v9.2H252.5z"/>
	<path d="M274.1,677.9l2.7-0.5c0,0.2,0,0.4-0.1,0.6c-0.1,0.2-0.1,0.3-0.1,0.4l-0.4,3.8h5.2v2h-5.2c-0.2,2.1-0.3,4-0.3,5.9
		c0,1.1,0,2.1,0.1,2.9s0.2,1.4,0.4,1.8c0.2,0.4,0.5,0.8,0.9,1s0.9,0.4,1.5,0.4c1.1,0,2.3-0.5,3.6-1.5l0.8,2c-1.6,1.2-3.3,1.8-5,1.8
		c-1.7,0-2.9-0.5-3.7-1.5s-1.1-2.7-1-5c0-0.8,0-1.9,0.1-3.2c0-1.3,0.1-2.8,0.3-4.6H270v-2h3.8L274.1,677.9z"/>
	<path d="M299.5,677l-0.4,0c-0.1,0-0.2,0-0.3,0.1c-2.1,1.2-3.7,2.9-4.8,5c-1.1,2.1-1.7,4.5-1.7,7.1c0,1.3,0.2,2.6,0.5,3.9
		c0.3,1.3,0.9,2.5,1.5,3.6c0.7,1.2,1.5,2.2,2.4,3.2c0.9,1,2,1.8,3.2,2.5l-1.1,1.9c-1.4-0.7-2.6-1.6-3.7-2.7c-1.1-1.1-2-2.2-2.8-3.6
		c-0.8-1.3-1.3-2.7-1.8-4.2c-0.4-1.5-0.6-3-0.6-4.6s0.2-3.1,0.6-4.6c0.4-1.5,1-2.8,1.8-4.1s1.7-2.4,2.8-3.3c1.1-1,2.3-1.7,3.7-2.3
		l1,2.1C299.6,677,299.5,677,299.5,677z"/>
	<path d="M312.5,676.1c1.8,0,3.4,0.7,4.8,2l-1.7,1.9c-0.2-0.2-0.4-0.4-0.4-0.6c-0.1-0.2-0.2-0.4-0.5-0.5c-0.3-0.2-0.7-0.4-1.1-0.5
		c-0.4-0.1-0.7-0.1-1-0.1c-0.5,0-1,0.1-1.6,0.3s-1.2,0.6-1.7,1.2c-0.5,0.6-1,1.5-1.4,2.6c-0.4,1.1-0.6,2.5-0.6,4.3
		c0.5-0.8,1.1-1.5,2-1.9c0.8-0.5,1.7-0.7,2.6-0.7c0.8,0,1.6,0.2,2.3,0.5c0.7,0.3,1.4,0.8,1.9,1.5c0.5,0.6,1,1.4,1.3,2.3
		s0.5,1.8,0.5,2.9s-0.2,2.1-0.5,3c-0.3,0.9-0.8,1.7-1.3,2.3s-1.2,1.1-2,1.5s-1.6,0.5-2.4,0.5c-1.1,0-2.1-0.2-2.9-0.7
		c-0.8-0.5-1.5-1.2-2.1-2c-0.6-0.9-1-2-1.3-3.2c-0.3-1.3-0.5-2.7-0.5-4.3c0-2,0.2-3.7,0.5-5.2c0.4-1.5,0.9-2.8,1.6-3.8
		s1.5-1.8,2.4-2.3C310.3,676.4,311.4,676.1,312.5,676.1z M307.4,689.2c0,0.1,0,0.3,0,0.4c0,0.1,0,0.3,0,0.4c0,0.9,0.1,1.8,0.3,2.5
		s0.5,1.4,0.9,2c0.4,0.6,0.9,1,1.4,1.3c0.5,0.3,1.1,0.5,1.7,0.5c1,0,1.9-0.4,2.6-1.3c0.7-0.9,1.1-2.1,1.1-3.8c0-0.9-0.1-1.6-0.4-2.3
		s-0.5-1.1-0.9-1.6c-0.4-0.4-0.8-0.7-1.2-0.9c-0.5-0.2-0.9-0.3-1.3-0.3c-0.8,0-1.6,0.3-2.4,0.9C308.5,687.6,307.9,688.3,307.4,689.2
		z"/>
	<path d="M333.5,679.1c0.7,0.9,1.2,2.1,1.6,3.6s0.6,3.1,0.6,4.9c0,1.8-0.2,3.4-0.6,4.8c-0.4,1.4-0.9,2.5-1.6,3.4
		c-0.7,0.9-1.4,1.6-2.3,2c-0.8,0.4-1.7,0.7-2.6,0.7c-0.9,0-1.8-0.3-2.6-0.8c-0.8-0.5-1.6-1.3-2.2-2.3c-0.7-1-1.2-2.1-1.6-3.5
		c-0.4-1.4-0.6-2.9-0.6-4.5c0-1.7,0.2-3.2,0.6-4.5c0.4-1.4,0.9-2.6,1.6-3.6c0.7-1,1.4-1.8,2.2-2.3s1.7-0.8,2.6-0.8
		C330.5,676.2,332.1,677.2,333.5,679.1z M332.2,681.2c-0.5-0.9-1-1.6-1.6-2.1c-0.6-0.5-1.2-0.7-1.9-0.7c-0.6,0-1.2,0.2-1.7,0.6
		c-0.6,0.4-1.1,1-1.5,1.7c-0.4,0.7-0.8,1.7-1.1,2.7c-0.3,1.1-0.4,2.2-0.4,3.5c0,1.4,0.2,2.8,0.5,4.1L332.2,681.2z M333,683.5
		l-7.7,9.8c0.6,1,1.1,1.8,1.8,2.3c0.6,0.5,1.2,0.7,1.8,0.7c0.6,0,1.2-0.2,1.8-0.6s1-0.9,1.4-1.7c0.4-0.7,0.7-1.6,1-2.6
		c0.2-1,0.4-2.2,0.4-3.5c0-0.8,0-1.6-0.1-2.3S333.2,684.1,333,683.5z"/>
	<path d="M340.2,677l0.7-2.2c1.4,0.7,2.7,1.5,3.9,2.5c1.2,1,2.2,2.2,3,3.4c0.8,1.3,1.4,2.6,1.9,4.1c0.4,1.5,0.7,3,0.7,4.5
		c0,1.6-0.2,3.1-0.7,4.6c-0.5,1.5-1.1,2.9-1.9,4.2c-0.8,1.3-1.8,2.5-3,3.5c-1.2,1-2.5,1.9-3.9,2.6l-0.7-2.1c1.2-0.6,2.2-1.4,3.2-2.3
		s1.7-1.9,2.4-3c0.7-1.1,1.2-2.3,1.6-3.5c0.4-1.2,0.5-2.5,0.5-3.8s-0.2-2.6-0.5-3.8c-0.4-1.2-0.9-2.4-1.5-3.5s-1.4-2.1-2.4-2.9
		C342.4,678.4,341.3,677.6,340.2,677z"/>
	<path d="M365.7,697.4c0,1.8-1.2,4-3.7,6.6l-1.2-1c0.7-0.6,1.2-1.3,1.6-2s0.6-1.3,0.6-1.7c0-0.2-0.1-0.4-0.3-0.6s-0.4-0.4-0.6-0.6
		s-0.4-0.4-0.6-0.6c-0.2-0.2-0.3-0.5-0.3-0.8c0-0.6,0.2-1.1,0.6-1.5c0.4-0.4,0.9-0.6,1.5-0.6c0.6,0,1.2,0.3,1.6,0.8
		C365.5,695.9,365.7,696.6,365.7,697.4z M364.8,683.9c0.4,0.4,0.6,0.9,0.6,1.4s-0.2,1-0.6,1.4c-0.4,0.4-0.9,0.6-1.5,0.6
		c-0.5,0-1-0.2-1.4-0.6c-0.4-0.4-0.6-0.9-0.6-1.4c0-0.6,0.2-1,0.6-1.4c0.4-0.4,0.9-0.6,1.4-0.6C363.9,683.3,364.4,683.5,364.8,683.9
		z"/>
</g>
<path d="M104.1,656.9c-16,0-29.1-13-29.1-29c0-16.1,12.9-29.1,29-29.2l791.8-2.3c0,0,0.1,0,0.1,0c16,0,29.1,13,29.1,29
	c0,16.1-12.9,29.1-29,29.2L104.1,656.9C104.2,656.9,104.1,656.9,104.1,656.9z"/>
<g>
	<path d="M90.1,905l-1.5,2.2c-0.1,0-0.2-0.1-0.2-0.3s0-0.3-0.1-0.4c-0.4-0.5-1-1-1.8-1.5c-0.8-0.5-1.7-0.7-2.6-0.7
		c-0.4,0-0.9,0.1-1.3,0.2c-0.4,0.1-0.8,0.3-1.1,0.4s-0.6,0.4-0.8,0.7c-0.2,0.3-0.3,0.6-0.3,1c0,0.3,0.1,0.5,0.2,0.8
		c0.1,0.2,0.4,0.4,0.7,0.6c0.3,0.2,0.7,0.4,1.3,0.6c0.6,0.2,1.3,0.4,2.2,0.7c2,0.5,3.4,1.2,4.3,1.9c0.8,0.7,1.3,1.6,1.3,2.7
		c0,0.7-0.2,1.4-0.5,2s-0.7,1.2-1.3,1.6c-0.6,0.5-1.3,0.8-2.1,1.1c-0.8,0.3-1.7,0.4-2.8,0.4c-2.7,0-4.9-0.8-6.8-2.5l1.4-2.5
		c0.1,0.1,0.1,0.2,0.1,0.3c0,0.2,0.1,0.3,0.2,0.6c0.1,0.2,0.4,0.5,0.8,0.7c0.4,0.3,1,0.6,1.7,0.9c0.4,0.2,0.8,0.3,1.2,0.4
		c0.4,0.1,0.9,0.1,1.3,0.1c0.5,0,0.9-0.1,1.4-0.2c0.5-0.1,0.9-0.3,1.3-0.5c0.4-0.2,0.7-0.5,0.9-0.8c0.2-0.3,0.4-0.7,0.4-1.1
		c0-0.6-0.3-1.1-0.8-1.5c-0.6-0.4-1.6-0.9-3.1-1.3c-1-0.3-1.7-0.5-2-0.6c-0.8-0.3-1.5-0.6-1.8-0.9s-0.7-0.5-1-0.9
		c-0.3-0.3-0.6-0.7-0.7-1.2c-0.2-0.4-0.3-0.9-0.3-1.4c0-0.6,0.2-1.1,0.5-1.6c0.3-0.5,0.7-1,1.3-1.4c0.5-0.4,1.2-0.7,2-1
		c0.8-0.2,1.6-0.4,2.5-0.4C86.6,902.4,88.6,903.3,90.1,905z"/>
	<path d="M99.1,898.6l2.7-0.5c0,0.2,0,0.4-0.1,0.6c-0.1,0.2-0.1,0.3-0.1,0.4l-0.4,3.8h5.2v2h-5.2c-0.2,2.1-0.3,4-0.3,5.9
		c0,1.1,0,2.1,0.1,2.9s0.2,1.4,0.4,1.8c0.2,0.4,0.5,0.8,0.9,1s0.9,0.4,1.5,0.4c1.1,0,2.3-0.5,3.6-1.5l0.8,2c-1.6,1.2-3.3,1.8-5,1.8
		c-1.7,0-2.9-0.5-3.7-1.5s-1.1-2.7-1-5c0-0.8,0-1.9,0.1-3.2c0-1.3,0.1-2.8,0.3-4.6H95v-2h3.8L99.1,898.6z"/>
	<path d="M113.5,902.8h2.6l-0.1,3.1c0.5-1.1,1.3-2,2.3-2.6s2.2-0.9,3.4-0.9c1.7,0,3.2,0.6,4.3,1.8l-1.2,2.4
		c-0.3-0.3-0.5-0.6-0.7-0.9c-0.2-0.2-0.4-0.4-0.7-0.6s-0.5-0.3-0.8-0.4c-0.3-0.1-0.7-0.1-1.1-0.1c-0.8,0-1.5,0.2-2.2,0.5
		s-1.3,0.8-1.8,1.4c-0.5,0.6-0.9,1.3-1.2,2c-0.3,0.8-0.5,1.6-0.5,2.4v7.8h-2.5V902.8z"/>
	<path d="M136.4,902.5c1,0,1.9,0.2,2.8,0.6c0.9,0.4,1.6,0.9,2.3,1.7s1.2,1.6,1.6,2.6c0.4,1,0.6,2.2,0.6,3.5c0,1.3-0.2,2.5-0.6,3.5
		c-0.4,1-0.9,1.9-1.5,2.6c-0.7,0.7-1.4,1.3-2.3,1.7c-0.9,0.4-1.8,0.6-2.8,0.6c-1,0-2-0.2-2.9-0.6c-0.9-0.4-1.7-1-2.4-1.7
		c-0.7-0.7-1.2-1.6-1.6-2.6c-0.4-1-0.6-2.1-0.6-3.3c0-1.2,0.2-2.3,0.6-3.4c0.4-1,1-1.9,1.6-2.7c0.7-0.7,1.5-1.3,2.4-1.8
		C134.5,902.7,135.4,902.5,136.4,902.5z M141.1,910.9c0-1-0.1-1.9-0.4-2.7c-0.3-0.8-0.6-1.4-1.1-2c-0.4-0.5-1-0.9-1.5-1.2
		c-0.6-0.3-1.2-0.4-1.8-0.4c-0.6,0-1.2,0.1-1.8,0.4c-0.6,0.3-1.1,0.7-1.5,1.2c-0.4,0.5-0.8,1.2-1,1.9c-0.3,0.8-0.4,1.6-0.4,2.6
		c0,0.9,0.1,1.8,0.4,2.6c0.3,0.8,0.6,1.4,1,2c0.4,0.6,0.9,1,1.5,1.3c0.6,0.3,1.2,0.5,1.9,0.5c0.7,0,1.3-0.1,1.8-0.4
		c0.6-0.3,1.1-0.7,1.5-1.2c0.4-0.5,0.8-1.2,1-1.9C141,912.8,141.1,911.9,141.1,910.9z"/>
	<path d="M147.3,895.6h2.8c0,0.1-0.1,0.3-0.2,0.5s-0.2,0.3-0.2,0.5v13.7l8-7.4c0.5,0.1,1.2,0.2,1.9,0.2h0.9l-6.7,6.3l7.9,9.6
		l-3.3,0.1l-6.6-8.2l-2.1,2v6.1h-2.5V895.6z"/>
	<path d="M171.6,902.4c0.8,0,1.7,0.2,2.5,0.5c0.8,0.3,1.5,0.8,2.1,1.4c0.6,0.6,1.1,1.4,1.4,2.4c0.4,1,0.5,2.1,0.5,3.4
		c0,0.2,0,0.4,0,0.6c0,0.2,0,0.4-0.1,0.6h-11.4c0,1.1,0.2,2.1,0.6,2.8c0.3,0.8,0.8,1.4,1.3,1.8s1.1,0.8,1.7,1
		c0.6,0.2,1.3,0.3,1.9,0.3c1.7,0,3-0.6,4.1-1.8l1.4,1.4c-1.4,1.6-3.2,2.5-5.6,2.5c-1.2,0-2.2-0.2-3.2-0.5s-1.8-0.9-2.5-1.6
		c-0.7-0.7-1.2-1.6-1.6-2.6c-0.4-1-0.6-2.2-0.6-3.6c0-1.4,0.2-2.6,0.6-3.6c0.4-1,0.9-1.9,1.6-2.6c0.7-0.7,1.4-1.3,2.3-1.6
		S170.5,902.4,171.6,902.4z M166.7,909.2h8.8c0-0.1,0-0.2,0-0.3c0-0.1,0-0.2,0-0.3c0-0.6-0.1-1.1-0.3-1.6c-0.2-0.5-0.5-1-0.9-1.3
		c-0.4-0.4-0.8-0.7-1.3-0.9c-0.5-0.2-1-0.3-1.6-0.3c-1.1,0-2.1,0.4-3,1.2C167.5,906.3,167,907.5,166.7,909.2z"/>
	<path d="M180.6,897h2.3l2.3,14.7l3.5-13.1h0.8l3.5,13.2l2-14.8h2.1l-3.5,21.9h-0.9l-3.7-14.4l-3.8,14.4h-1L180.6,897z"/>
	<path d="M206.6,902.4c0.8,0,1.7,0.2,2.5,0.5c0.8,0.3,1.5,0.8,2.1,1.4c0.6,0.6,1.1,1.4,1.4,2.4c0.4,1,0.5,2.1,0.5,3.4
		c0,0.2,0,0.4,0,0.6c0,0.2,0,0.4-0.1,0.6h-11.4c0,1.1,0.2,2.1,0.6,2.8c0.3,0.8,0.8,1.4,1.3,1.8s1.1,0.8,1.7,1
		c0.6,0.2,1.3,0.3,1.9,0.3c1.7,0,3-0.6,4.1-1.8l1.4,1.4c-1.4,1.6-3.2,2.5-5.6,2.5c-1.2,0-2.2-0.2-3.2-0.5s-1.8-0.9-2.5-1.6
		c-0.7-0.7-1.2-1.6-1.6-2.6c-0.4-1-0.6-2.2-0.6-3.6c0-1.4,0.2-2.6,0.6-3.6c0.4-1,0.9-1.9,1.6-2.6c0.7-0.7,1.4-1.3,2.3-1.6
		S205.5,902.4,206.6,902.4z M201.7,909.2h8.8c0-0.1,0-0.2,0-0.3c0-0.1,0-0.2,0-0.3c0-0.6-0.1-1.1-0.3-1.6c-0.2-0.5-0.5-1-0.9-1.3
		c-0.4-0.4-0.8-0.7-1.3-0.9c-0.5-0.2-1-0.3-1.6-0.3c-1.1,0-2.1,0.4-3,1.2C202.5,906.3,202,907.5,201.7,909.2z"/>
	<path d="M218.7,902.8h6.4v14h3.7v2h-10.4v-2h4.1v-11.9h-3.9V902.8z M222.6,896.4c0.4-0.4,0.8-0.5,1.3-0.5c0.5,0,0.9,0.2,1.3,0.5
		c0.4,0.4,0.5,0.8,0.5,1.3s-0.2,0.9-0.5,1.3c-0.4,0.4-0.8,0.5-1.3,0.5c-0.5,0-0.9-0.2-1.3-0.5c-0.4-0.3-0.5-0.8-0.5-1.3
		C222.1,897.2,222.3,896.7,222.6,896.4z"/>
	<path d="M244.4,903.8c1.1-1,2.4-1.4,4-1.4h0.5l0.3,2.1c-0.2,0-0.3,0-0.5-0.1s-0.3,0-0.5,0c-1,0-1.9,0.2-2.8,0.7
		c0.5,0.8,0.8,1.7,0.8,2.7c0,0.7-0.2,1.5-0.5,2.1c-0.3,0.7-0.7,1.2-1.2,1.8s-1.1,0.9-1.8,1.2c-0.7,0.3-1.4,0.4-2.2,0.4
		c-0.7,0-1.3-0.1-2-0.4c-0.7,0.7-1.1,1.3-1.1,1.8c0,0.4,0.2,0.7,0.7,0.9c0.5,0.2,1.1,0.3,1.9,0.3c0.4,0,0.9,0,1.3-0.1
		c0.5,0,0.9-0.1,1.3-0.1c1,0,2,0.1,2.7,0.3c0.8,0.2,1.4,0.5,1.8,0.8c0.5,0.4,0.8,0.8,1.1,1.3c0.2,0.5,0.3,1,0.3,1.6
		c0,0.6-0.2,1.2-0.5,1.8c-0.3,0.6-0.8,1.1-1.4,1.6c-0.6,0.5-1.4,0.8-2.3,1.1c-0.9,0.3-2,0.4-3.2,0.4c-1.3,0-2.4-0.1-3.3-0.3
		c-0.9-0.2-1.7-0.5-2.2-0.8c-0.6-0.4-1-0.8-1.3-1.2c-0.3-0.5-0.4-0.9-0.4-1.5c0-1.3,0.9-2.4,2.6-3.5c-0.9-0.4-1.3-1.2-1.3-2.2
		c0-1,0.6-2,1.8-3c-0.7-0.5-1.3-1.1-1.8-1.9c-0.4-0.8-0.6-1.6-0.6-2.5c0-0.8,0.2-1.5,0.5-2.2c0.3-0.7,0.8-1.3,1.3-1.8
		c0.5-0.5,1.2-0.9,1.9-1.2c0.7-0.3,1.4-0.4,2.2-0.4C242,902.3,243.3,902.8,244.4,903.8z M238.1,918c-1.3,0.7-2,1.6-2,2.5
		c0,0.5,0.1,0.9,0.4,1.2c0.3,0.3,0.6,0.6,1.1,0.8s1,0.3,1.6,0.4c0.6,0.1,1.3,0.1,1.9,0.1c1.4,0,2.6-0.3,3.5-0.8
		c0.9-0.5,1.4-1.2,1.4-2.1c0-0.6-0.3-1.1-0.8-1.5c-0.5-0.3-1.2-0.5-2.3-0.5c-0.1,0-0.2,0-0.3,0c-0.1,0-0.2,0-0.4,0
		c-0.9,0-1.7,0-2.4-0.1C239.3,918.1,238.7,918,238.1,918z M237.9,905.4c-0.3,0.3-0.6,0.7-0.8,1.1s-0.2,0.9-0.2,1.3
		c0,0.5,0.1,0.9,0.3,1.3c0.2,0.4,0.4,0.8,0.8,1.1s0.7,0.6,1.1,0.7c0.4,0.2,0.9,0.3,1.3,0.3c0.5,0,0.9-0.1,1.4-0.3
		c0.4-0.2,0.8-0.4,1.1-0.8c0.3-0.3,0.6-0.7,0.8-1.1c0.2-0.4,0.3-0.9,0.3-1.3c0-0.5-0.1-0.9-0.3-1.3c-0.2-0.4-0.4-0.8-0.8-1.1
		c-0.3-0.3-0.7-0.6-1.1-0.8s-0.9-0.3-1.3-0.3C239.5,904.3,238.6,904.7,237.9,905.4z"/>
	<path d="M252.5,918.8v-23.3h2.9c0,0,0,0,0,0s0,0,0,0c0,0.1-0.1,0.2-0.2,0.3c-0.1,0.1-0.2,0.3-0.2,0.5v9.3c0.6-1,1.4-1.8,2.4-2.3
		c0.9-0.6,1.9-0.9,2.9-0.9c0.7,0,1.4,0.1,2,0.4c0.6,0.2,1.1,0.6,1.6,1.2c0.4,0.5,0.8,1.2,1,2.1c0.2,0.8,0.4,1.9,0.4,3.1v9.7h-2.5
		v-9.6c0-1.7-0.3-2.9-0.9-3.5c-0.6-0.7-1.3-1-2.1-1c-0.5,0-1.1,0.1-1.6,0.3c-0.5,0.2-1.1,0.6-1.6,1c-0.5,0.4-0.9,0.9-1.2,1.5
		c-0.3,0.6-0.4,1.3-0.4,2.1v9.2H252.5z"/>
	<path d="M274.1,898.6l2.7-0.5c0,0.2,0,0.4-0.1,0.6c-0.1,0.2-0.1,0.3-0.1,0.4l-0.4,3.8h5.2v2h-5.2c-0.2,2.1-0.3,4-0.3,5.9
		c0,1.1,0,2.1,0.1,2.9s0.2,1.4,0.4,1.8c0.2,0.4,0.5,0.8,0.9,1s0.9,0.4,1.5,0.4c1.1,0,2.3-0.5,3.6-1.5l0.8,2c-1.6,1.2-3.3,1.8-5,1.8
		c-1.7,0-2.9-0.5-3.7-1.5s-1.1-2.7-1-5c0-0.8,0-1.9,0.1-3.2c0-1.3,0.1-2.8,0.3-4.6H270v-2h3.8L274.1,898.6z"/>
	<path d="M299.5,897.7l-0.4,0c-0.1,0-0.2,0-0.3,0.1c-2.1,1.2-3.7,2.9-4.8,5c-1.1,2.1-1.7,4.5-1.7,7.1c0,1.3,0.2,2.6,0.5,3.9
		c0.3,1.3,0.9,2.5,1.5,3.6c0.7,1.2,1.5,2.2,2.4,3.2c0.9,1,2,1.8,3.2,2.5l-1.1,1.9c-1.4-0.7-2.6-1.6-3.7-2.7c-1.1-1.1-2-2.2-2.8-3.6
		c-0.8-1.3-1.3-2.7-1.8-4.2c-0.4-1.5-0.6-3-0.6-4.6s0.2-3.1,0.6-4.6c0.4-1.5,1-2.8,1.8-4.1s1.7-2.4,2.8-3.3c1.1-1,2.3-1.7,3.7-2.3
		l1,2.1C299.6,897.7,299.5,897.7,299.5,897.7z"/>
	<path d="M313,897v21.8h-2.4V900l-4.4,1.3l-0.6-1.4l5.7-3H313z"/>
	<path d="M333.5,899.8c0.7,0.9,1.2,2.1,1.6,3.6s0.6,3.1,0.6,4.9c0,1.8-0.2,3.4-0.6,4.8c-0.4,1.4-0.9,2.5-1.6,3.4
		c-0.7,0.9-1.4,1.6-2.3,2c-0.8,0.4-1.7,0.7-2.6,0.7c-0.9,0-1.8-0.3-2.6-0.8c-0.8-0.5-1.6-1.3-2.2-2.3c-0.7-1-1.2-2.1-1.6-3.5
		c-0.4-1.4-0.6-2.9-0.6-4.5c0-1.7,0.2-3.2,0.6-4.5c0.4-1.4,0.9-2.6,1.6-3.6c0.7-1,1.4-1.8,2.2-2.3s1.7-0.8,2.6-0.8
		C330.5,896.9,332.1,897.9,333.5,899.8z M332.2,901.8c-0.5-0.9-1-1.6-1.6-2.1c-0.6-0.5-1.2-0.7-1.9-0.7c-0.6,0-1.2,0.2-1.7,0.6
		c-0.6,0.4-1.1,1-1.5,1.7c-0.4,0.7-0.8,1.7-1.1,2.7c-0.3,1.1-0.4,2.2-0.4,3.5c0,1.4,0.2,2.8,0.5,4.1L332.2,901.8z M333,904.2
		l-7.7,9.8c0.6,1,1.1,1.8,1.8,2.3c0.6,0.5,1.2,0.7,1.8,0.7c0.6,0,1.2-0.2,1.8-0.6s1-0.9,1.4-1.7c0.4-0.7,0.7-1.6,1-2.6
		c0.2-1,0.4-2.2,0.4-3.5c0-0.8,0-1.6-0.1-2.3S333.2,904.8,333,904.2z"/>
	<path d="M351,899.8c0.7,0.9,1.2,2.1,1.6,3.6c0.4,1.5,0.6,3.1,0.6,4.9c0,1.8-0.2,3.4-0.6,4.8c-0.4,1.4-0.9,2.5-1.6,3.4
		s-1.4,1.6-2.3,2c-0.8,0.4-1.7,0.7-2.6,0.7c-0.9,0-1.8-0.3-2.6-0.8c-0.8-0.5-1.6-1.3-2.2-2.3c-0.7-1-1.2-2.1-1.6-3.5
		c-0.4-1.4-0.6-2.9-0.6-4.5c0-1.7,0.2-3.2,0.6-4.5c0.4-1.4,0.9-2.6,1.6-3.6c0.7-1,1.4-1.8,2.2-2.3s1.7-0.8,2.6-0.8
		C348,896.9,349.6,897.9,351,899.8z M349.7,901.8c-0.5-0.9-1-1.6-1.6-2.1c-0.6-0.5-1.2-0.7-1.9-0.7c-0.6,0-1.2,0.2-1.7,0.6
		c-0.6,0.4-1.1,1-1.5,1.7c-0.4,0.7-0.8,1.7-1.1,2.7c-0.3,1.1-0.4,2.2-0.4,3.5c0,1.4,0.2,2.8,0.5,4.1L349.7,901.8z M350.5,904.2
		l-7.7,9.8c0.6,1,1.1,1.8,1.8,2.3c0.6,0.5,1.2,0.7,1.8,0.7c0.6,0,1.2-0.2,1.8-0.6c0.5-0.4,1-0.9,1.4-1.7c0.4-0.7,0.7-1.6,1-2.6
		s0.4-2.2,0.4-3.5c0-0.8,0-1.6-0.1-2.3S350.7,904.8,350.5,904.2z"/>
	<path d="M357.7,897.7l0.7-2.2c1.4,0.7,2.7,1.5,3.9,2.5c1.2,1,2.2,2.2,3,3.4c0.8,1.3,1.4,2.6,1.9,4.1c0.4,1.5,0.7,3,0.7,4.5
		c0,1.6-0.2,3.1-0.7,4.6c-0.5,1.5-1.1,2.9-1.9,4.2c-0.8,1.3-1.8,2.5-3,3.5c-1.2,1-2.5,1.9-3.9,2.6l-0.7-2.1c1.2-0.6,2.2-1.4,3.2-2.3
		s1.7-1.9,2.4-3c0.7-1.1,1.2-2.3,1.6-3.5c0.4-1.2,0.5-2.5,0.5-3.8s-0.2-2.6-0.5-3.8c-0.4-1.2-0.9-2.4-1.5-3.5s-1.4-2.1-2.4-2.9
		C359.9,899.1,358.8,898.3,357.7,897.7z"/>
	<path d="M383.2,918.1c0,1.8-1.2,4-3.7,6.6l-1.2-1c0.7-0.6,1.2-1.3,1.6-2s0.6-1.3,0.6-1.7c0-0.2-0.1-0.4-0.3-0.6s-0.4-0.4-0.6-0.6
		s-0.4-0.4-0.6-0.6c-0.2-0.2-0.3-0.5-0.3-0.8c0-0.6,0.2-1.1,0.6-1.5c0.4-0.4,0.9-0.6,1.5-0.6c0.6,0,1.2,0.3,1.6,0.8
		C383,916.6,383.2,917.3,383.2,918.1z M382.3,904.6c0.4,0.4,0.6,0.9,0.6,1.4s-0.2,1-0.6,1.4c-0.4,0.4-0.9,0.6-1.5,0.6
		c-0.5,0-1-0.2-1.4-0.6c-0.4-0.4-0.6-0.9-0.6-1.4c0-0.6,0.2-1,0.6-1.4c0.4-0.4,0.9-0.6,1.4-0.6C381.4,904,381.9,904.2,382.3,904.6z"
		/>
</g>
<path d="M877.1,877.6C877.1,877.6,877,877.6,877.1,877.6l-754.3-1.2c-26.5,0-47.9-21.5-47.8-48c0-26.4,21.5-47.8,47.9-47.8
	c0,0,0,0,0.1,0l754.2,1.2c26.5,0,47.9,21.5,47.8,48C925,856.2,903.5,877.6,877.1,877.6z"/>
<g>
	<path d="M90.1,227.5l-1.5,2.2c-0.1,0-0.2-0.1-0.2-0.3c0-0.2,0-0.3-0.1-0.3c-0.4-0.5-1-1-1.8-1.5c-0.8-0.5-1.7-0.7-2.6-0.7
		c-0.4,0-0.9,0.1-1.3,0.2c-0.4,0.1-0.8,0.3-1.1,0.4c-0.3,0.2-0.6,0.4-0.8,0.7c-0.2,0.3-0.3,0.6-0.3,1c0,0.3,0.1,0.5,0.2,0.8
		s0.4,0.4,0.7,0.6c0.3,0.2,0.7,0.4,1.3,0.6s1.3,0.4,2.2,0.7c2,0.5,3.4,1.2,4.3,1.9c0.8,0.7,1.3,1.6,1.3,2.7c0,0.7-0.2,1.4-0.5,2
		c-0.3,0.6-0.7,1.2-1.3,1.6c-0.6,0.5-1.3,0.8-2.1,1.1c-0.8,0.3-1.7,0.4-2.8,0.4c-2.7,0-4.9-0.8-6.8-2.5l1.4-2.5
		c0.1,0.1,0.1,0.2,0.1,0.3c0,0.2,0.1,0.3,0.2,0.6c0.1,0.2,0.4,0.5,0.8,0.7c0.4,0.3,1,0.6,1.7,0.9c0.4,0.2,0.8,0.3,1.2,0.4
		c0.4,0.1,0.9,0.1,1.3,0.1c0.5,0,0.9-0.1,1.4-0.2c0.5-0.1,0.9-0.3,1.3-0.5c0.4-0.2,0.7-0.5,0.9-0.8c0.2-0.3,0.4-0.7,0.4-1.1
		c0-0.6-0.3-1.1-0.8-1.5c-0.6-0.4-1.6-0.9-3.1-1.3c-1-0.3-1.7-0.5-2-0.6c-0.8-0.3-1.5-0.6-1.8-0.9s-0.7-0.5-1-0.9
		c-0.3-0.3-0.6-0.7-0.7-1.2c-0.2-0.4-0.3-0.9-0.3-1.4c0-0.6,0.2-1.1,0.5-1.6c0.3-0.5,0.7-1,1.3-1.4c0.5-0.4,1.2-0.7,2-1
		c0.8-0.2,1.6-0.4,2.5-0.4C86.6,224.9,88.6,225.8,90.1,227.5z"/>
	<path d="M99.1,221.1l2.7-0.5c0,0.2,0,0.4-0.1,0.6c-0.1,0.2-0.1,0.3-0.1,0.4l-0.4,3.8h5.2v2h-5.2c-0.2,2.1-0.3,4-0.3,5.9
		c0,1.1,0,2.1,0.1,2.9s0.2,1.4,0.4,1.8c0.2,0.4,0.5,0.8,0.9,1c0.4,0.2,0.9,0.4,1.5,0.4c1.1,0,2.3-0.5,3.6-1.5l0.8,2
		c-1.6,1.2-3.3,1.8-5,1.8c-1.7,0-2.9-0.5-3.7-1.5c-0.8-1-1.1-2.7-1-5c0-0.8,0-1.9,0.1-3.2c0-1.3,0.1-2.8,0.3-4.6H95v-2h3.8
		L99.1,221.1z"/>
	<path d="M113.5,225.3h2.6l-0.1,3.1c0.5-1.1,1.3-2,2.3-2.6c1.1-0.6,2.2-0.9,3.4-0.9c1.7,0,3.2,0.6,4.3,1.8l-1.2,2.4
		c-0.3-0.4-0.5-0.6-0.7-0.9c-0.2-0.2-0.4-0.4-0.7-0.6c-0.2-0.2-0.5-0.3-0.8-0.4c-0.3-0.1-0.7-0.1-1.1-0.1c-0.8,0-1.5,0.2-2.2,0.5
		c-0.7,0.4-1.3,0.8-1.8,1.4c-0.5,0.6-0.9,1.3-1.2,2c-0.3,0.8-0.5,1.6-0.5,2.4v7.8h-2.5V225.3z"/>
	<path d="M136.4,225c1,0,1.9,0.2,2.8,0.6s1.6,0.9,2.3,1.7c0.7,0.7,1.2,1.6,1.6,2.6c0.4,1,0.6,2.2,0.6,3.5c0,1.3-0.2,2.5-0.6,3.5
		c-0.4,1-0.9,1.9-1.5,2.6c-0.7,0.7-1.4,1.3-2.3,1.7c-0.9,0.4-1.8,0.6-2.8,0.6c-1,0-2-0.2-2.9-0.6c-0.9-0.4-1.7-1-2.4-1.7
		c-0.7-0.7-1.2-1.6-1.6-2.6c-0.4-1-0.6-2.1-0.6-3.3c0-1.2,0.2-2.3,0.6-3.4c0.4-1,1-1.9,1.6-2.7c0.7-0.7,1.5-1.3,2.4-1.8
		C134.5,225.2,135.4,225,136.4,225z M141.1,233.4c0-1-0.1-1.9-0.4-2.7c-0.3-0.8-0.6-1.4-1.1-2c-0.4-0.5-1-0.9-1.5-1.2
		s-1.2-0.4-1.8-0.4c-0.6,0-1.2,0.1-1.8,0.4s-1.1,0.7-1.5,1.2c-0.4,0.5-0.8,1.2-1,1.9c-0.3,0.8-0.4,1.6-0.4,2.6
		c0,0.9,0.1,1.8,0.4,2.6c0.3,0.8,0.6,1.4,1,2c0.4,0.6,0.9,1,1.5,1.3c0.6,0.3,1.2,0.5,1.9,0.5c0.7,0,1.3-0.1,1.8-0.4s1.1-0.7,1.5-1.2
		s0.8-1.2,1-1.9C141,235.3,141.1,234.4,141.1,233.4z"/>
	<path d="M147.3,218h2.8c0,0.1-0.1,0.3-0.2,0.5c-0.1,0.2-0.2,0.3-0.2,0.5v13.7l8-7.4c0.5,0.1,1.2,0.2,1.9,0.2h0.9l-6.7,6.3l7.9,9.6
		l-3.3,0.1l-6.6-8.2l-2.1,2v6.1h-2.5V218z"/>
	<path d="M171.6,224.9c0.8,0,1.7,0.2,2.5,0.5c0.8,0.3,1.5,0.8,2.1,1.4c0.6,0.6,1.1,1.4,1.4,2.4c0.4,1,0.5,2.1,0.5,3.4
		c0,0.2,0,0.4,0,0.6c0,0.2,0,0.4-0.1,0.6h-11.4c0,1.1,0.2,2.1,0.6,2.8c0.3,0.8,0.8,1.4,1.3,1.8c0.5,0.5,1.1,0.8,1.7,1
		c0.6,0.2,1.3,0.3,1.9,0.3c1.7,0,3-0.6,4.1-1.8l1.4,1.4c-1.4,1.6-3.2,2.5-5.6,2.5c-1.2,0-2.2-0.2-3.2-0.5c-1-0.4-1.8-0.9-2.5-1.6
		c-0.7-0.7-1.2-1.6-1.6-2.6c-0.4-1-0.6-2.2-0.6-3.6c0-1.4,0.2-2.6,0.6-3.6c0.4-1.1,0.9-1.9,1.6-2.6s1.4-1.3,2.3-1.6
		C169.6,225.1,170.5,224.9,171.6,224.9z M166.7,231.7h8.8c0-0.1,0-0.2,0-0.3c0-0.1,0-0.2,0-0.3c0-0.6-0.1-1.1-0.3-1.6
		c-0.2-0.5-0.5-1-0.9-1.3c-0.4-0.4-0.8-0.7-1.3-0.9c-0.5-0.2-1-0.3-1.6-0.3c-1.1,0-2.1,0.4-3,1.2C167.5,228.8,167,230,166.7,231.7z"
		/>
	<path d="M180.6,219.5h2.3l2.3,14.7l3.5-13.1h0.8l3.5,13.2l2-14.8h2.1l-3.5,21.9h-0.9l-3.7-14.4l-3.8,14.4h-1L180.6,219.5z"/>
	<path d="M206.6,224.9c0.8,0,1.7,0.2,2.5,0.5c0.8,0.3,1.5,0.8,2.1,1.4c0.6,0.6,1.1,1.4,1.4,2.4c0.4,1,0.5,2.1,0.5,3.4
		c0,0.2,0,0.4,0,0.6c0,0.2,0,0.4-0.1,0.6h-11.4c0,1.1,0.2,2.1,0.6,2.8c0.3,0.8,0.8,1.4,1.3,1.8c0.5,0.5,1.1,0.8,1.7,1
		c0.6,0.2,1.3,0.3,1.9,0.3c1.7,0,3-0.6,4.1-1.8l1.4,1.4c-1.4,1.6-3.2,2.5-5.6,2.5c-1.2,0-2.2-0.2-3.2-0.5c-1-0.4-1.8-0.9-2.5-1.6
		c-0.7-0.7-1.2-1.6-1.6-2.6c-0.4-1-0.6-2.2-0.6-3.6c0-1.4,0.2-2.6,0.6-3.6c0.4-1.1,0.9-1.9,1.6-2.6s1.4-1.3,2.3-1.6
		C204.6,225.1,205.5,224.9,206.6,224.9z M201.7,231.7h8.8c0-0.1,0-0.2,0-0.3c0-0.1,0-0.2,0-0.3c0-0.6-0.1-1.1-0.3-1.6
		c-0.2-0.5-0.5-1-0.9-1.3c-0.4-0.4-0.8-0.7-1.3-0.9c-0.5-0.2-1-0.3-1.6-0.3c-1.1,0-2.1,0.4-3,1.2C202.5,228.8,202,230,201.7,231.7z"
		/>
	<path d="M218.7,225.3h6.4v14h3.7v2h-10.4v-2h4.1v-11.9h-3.9V225.3z M222.6,218.9c0.4-0.3,0.8-0.5,1.3-0.5c0.5,0,0.9,0.2,1.3,0.5
		c0.4,0.4,0.5,0.8,0.5,1.3c0,0.5-0.2,0.9-0.5,1.3c-0.4,0.3-0.8,0.5-1.3,0.5c-0.5,0-0.9-0.2-1.3-0.5c-0.4-0.4-0.5-0.8-0.5-1.3
		C222.1,219.7,222.3,219.2,222.6,218.9z"/>
	<path d="M244.4,226.3c1.1-1,2.4-1.4,4-1.4h0.5l0.3,2.1c-0.2,0-0.3,0-0.5-0.1c-0.2,0-0.3,0-0.5,0c-1,0-1.9,0.2-2.8,0.7
		c0.5,0.8,0.8,1.7,0.8,2.7c0,0.7-0.2,1.5-0.5,2.1c-0.3,0.7-0.7,1.2-1.2,1.8c-0.5,0.5-1.1,0.9-1.8,1.2c-0.7,0.3-1.4,0.4-2.2,0.4
		c-0.7,0-1.3-0.1-2-0.4c-0.7,0.7-1.1,1.3-1.1,1.8c0,0.4,0.2,0.7,0.7,0.9s1.1,0.3,1.9,0.3c0.4,0,0.9,0,1.3-0.1c0.5,0,0.9-0.1,1.3-0.1
		c1,0,2,0.1,2.7,0.3c0.8,0.2,1.4,0.5,1.8,0.8s0.8,0.8,1.1,1.3c0.2,0.5,0.3,1,0.3,1.6c0,0.6-0.2,1.2-0.5,1.8
		c-0.3,0.6-0.8,1.1-1.4,1.6c-0.6,0.5-1.4,0.8-2.3,1.1c-0.9,0.3-2,0.4-3.2,0.4c-1.3,0-2.4-0.1-3.3-0.3c-0.9-0.2-1.7-0.5-2.2-0.8
		c-0.6-0.3-1-0.8-1.3-1.2c-0.3-0.5-0.4-0.9-0.4-1.5c0-1.3,0.9-2.4,2.6-3.5c-0.9-0.4-1.3-1.2-1.3-2.2c0-1,0.6-2,1.8-3
		c-0.7-0.5-1.3-1.1-1.8-1.9c-0.4-0.8-0.6-1.6-0.6-2.5c0-0.8,0.2-1.5,0.5-2.2s0.8-1.3,1.3-1.8s1.2-0.9,1.9-1.2
		c0.7-0.3,1.4-0.4,2.2-0.4C242,224.8,243.3,225.3,244.4,226.3z M238.1,240.5c-1.3,0.7-2,1.6-2,2.4c0,0.5,0.1,0.9,0.4,1.2
		c0.3,0.3,0.6,0.6,1.1,0.8c0.5,0.2,1,0.3,1.6,0.4c0.6,0.1,1.3,0.1,1.9,0.1c1.4,0,2.6-0.3,3.5-0.8c0.9-0.5,1.4-1.2,1.4-2.1
		c0-0.6-0.3-1.1-0.8-1.5c-0.5-0.4-1.2-0.5-2.3-0.5c-0.1,0-0.2,0-0.3,0c-0.1,0-0.2,0-0.4,0c-0.9,0-1.7,0-2.4-0.1
		C239.3,240.6,238.7,240.5,238.1,240.5z M237.9,227.9c-0.3,0.3-0.6,0.7-0.8,1.1s-0.2,0.9-0.2,1.3c0,0.5,0.1,0.9,0.3,1.3
		c0.2,0.4,0.4,0.8,0.8,1.1s0.7,0.6,1.1,0.7c0.4,0.2,0.9,0.3,1.3,0.3c0.5,0,0.9-0.1,1.4-0.3s0.8-0.4,1.1-0.8c0.3-0.3,0.6-0.7,0.8-1.1
		c0.2-0.4,0.3-0.9,0.3-1.3c0-0.5-0.1-0.9-0.3-1.3c-0.2-0.4-0.4-0.8-0.8-1.1c-0.3-0.3-0.7-0.6-1.1-0.8c-0.4-0.2-0.9-0.3-1.3-0.3
		C239.5,226.8,238.6,227.2,237.9,227.9z"/>
	<path d="M252.5,241.3V218h2.9c0,0,0,0,0,0s0,0,0,0c0,0.1-0.1,0.2-0.2,0.3c-0.1,0.1-0.2,0.3-0.2,0.5v9.3c0.6-1,1.4-1.8,2.4-2.3
		s1.9-0.9,2.9-0.9c0.7,0,1.4,0.1,2,0.4s1.1,0.6,1.6,1.2s0.8,1.2,1,2.1c0.2,0.8,0.4,1.9,0.4,3.1v9.7h-2.5v-9.6c0-1.7-0.3-2.9-0.9-3.5
		s-1.3-1-2.1-1c-0.5,0-1.1,0.1-1.6,0.3c-0.5,0.2-1.1,0.6-1.6,1c-0.5,0.4-0.9,0.9-1.2,1.5c-0.3,0.6-0.4,1.3-0.4,2.1v9.2H252.5z"/>
	<path d="M274.1,221.1l2.7-0.5c0,0.2,0,0.4-0.1,0.6c-0.1,0.2-0.1,0.3-0.1,0.4l-0.4,3.8h5.2v2h-5.2c-0.2,2.1-0.3,4-0.3,5.9
		c0,1.1,0,2.1,0.1,2.9s0.2,1.4,0.4,1.8c0.2,0.4,0.5,0.8,0.9,1c0.4,0.2,0.9,0.4,1.5,0.4c1.1,0,2.3-0.5,3.6-1.5l0.8,2
		c-1.6,1.2-3.3,1.8-5,1.8c-1.7,0-2.9-0.5-3.7-1.5c-0.8-1-1.1-2.7-1-5c0-0.8,0-1.9,0.1-3.2c0-1.3,0.1-2.8,0.3-4.6H270v-2h3.8
		L274.1,221.1z"/>
	<path d="M299.5,220.2l-0.4,0c-0.1,0-0.2,0-0.3,0.1c-2.1,1.2-3.7,2.9-4.8,5c-1.1,2.1-1.7,4.5-1.7,7.1c0,1.3,0.2,2.6,0.5,3.9
		c0.3,1.3,0.9,2.5,1.5,3.6c0.7,1.2,1.5,2.2,2.4,3.2c0.9,1,2,1.8,3.2,2.5l-1.1,1.9c-1.4-0.7-2.6-1.6-3.7-2.7s-2-2.2-2.8-3.6
		c-0.8-1.3-1.3-2.7-1.8-4.2c-0.4-1.5-0.6-3.1-0.6-4.6s0.2-3.1,0.6-4.6c0.4-1.5,1-2.8,1.8-4.1c0.8-1.2,1.7-2.3,2.8-3.3
		s2.3-1.7,3.7-2.3l1,2.1C299.6,220.2,299.5,220.2,299.5,220.2z"/>
	<path d="M305.2,222.9c0.6-1.1,1.5-2,2.6-2.6c1.1-0.6,2.3-0.9,3.5-0.9c0.9,0,1.7,0.2,2.5,0.5c0.8,0.3,1.4,0.8,2,1.3
		c0.6,0.6,1,1.2,1.4,2c0.3,0.7,0.5,1.5,0.5,2.4c0,0.7-0.1,1.3-0.3,1.9c-0.2,0.6-0.5,1.2-0.8,1.7c-0.3,0.5-0.7,1.1-1.1,1.6
		c-0.4,0.5-0.9,1-1.3,1.4l-2.1,2c-0.3,0.3-0.6,0.6-1,1c-0.4,0.4-0.7,0.8-1.1,1.2c-0.4,0.4-0.7,0.9-1.1,1.4c-0.3,0.5-0.7,1-0.9,1.5
		h9.1c0.1,0,0.2-0.1,0.4-0.2c0.1-0.1,0.3-0.2,0.4-0.2h0.1v2.5h-12.8v-1.5c0.9-1.7,1.8-3.2,2.8-4.4c1-1.2,2-2.3,2.9-3.1l1.7-1.5
		c0.6-0.5,1.1-1,1.4-1.5c0.4-0.5,0.6-0.9,0.9-1.3s0.4-0.8,0.4-1.2c0.1-0.4,0.1-0.8,0.1-1.2c0-0.5-0.1-1-0.3-1.5s-0.5-0.9-0.9-1.3
		c-0.4-0.4-0.8-0.7-1.3-0.9c-0.5-0.2-1-0.3-1.5-0.3c-0.6,0-1.1,0.1-1.6,0.3c-0.5,0.2-0.9,0.4-1.3,0.6s-0.6,0.5-0.9,0.8
		s-0.3,0.5-0.4,0.7c0,0.2-0.1,0.4-0.1,0.4L305.2,222.9z"/>
	<path d="M322.7,220.2l0.7-2.2c1.4,0.7,2.7,1.5,3.8,2.5c1.2,1,2.2,2.2,3,3.4c0.8,1.3,1.4,2.6,1.9,4.1c0.4,1.5,0.7,3,0.7,4.5
		c0,1.6-0.2,3.1-0.7,4.6s-1.1,2.9-1.9,4.2c-0.8,1.3-1.8,2.5-3,3.5c-1.2,1-2.5,1.9-3.9,2.6l-0.7-2.1c1.2-0.6,2.2-1.4,3.2-2.3
		c0.9-0.9,1.7-1.9,2.4-3s1.2-2.3,1.6-3.5c0.4-1.2,0.5-2.5,0.5-3.8c0-1.3-0.2-2.6-0.5-3.8s-0.9-2.4-1.5-3.5s-1.4-2.1-2.4-2.9
		S323.8,220.8,322.7,220.2z"/>
	<path d="M348.2,240.6c0,1.8-1.2,4-3.7,6.6l-1.2-1c0.7-0.6,1.2-1.3,1.6-2c0.4-0.7,0.6-1.3,0.6-1.7c0-0.2-0.1-0.4-0.3-0.6
		s-0.4-0.4-0.6-0.6s-0.4-0.4-0.6-0.6s-0.3-0.5-0.3-0.8c0-0.6,0.2-1.1,0.6-1.5c0.4-0.4,0.9-0.6,1.5-0.6c0.6,0,1.2,0.3,1.6,0.8
		C348,239.1,348.2,239.8,348.2,240.6z M347.3,227.1c0.4,0.4,0.6,0.9,0.6,1.4c0,0.5-0.2,1-0.6,1.4s-0.9,0.6-1.5,0.6
		c-0.5,0-1-0.2-1.4-0.6c-0.4-0.4-0.6-0.9-0.6-1.4c0-0.6,0.2-1,0.6-1.4c0.4-0.4,0.9-0.6,1.4-0.6C346.4,226.5,346.9,226.7,347.3,227.1
		z"/>
</g>
<path d="M924,200H76c-0.6,0-1-0.4-1-1s0.4-1,1-1h848c0.6,0,1,0.4,1,1S924.6,200,924,200z"/>
</svg>
