<?xml version="1.0" encoding="utf-8"?>
<!-- Generator: Adobe Illustrator 19.2.1, SVG Export Plug-In . SVG Version: 6.00 Build 0)  -->
<svg version="1.1" id="Layer_1" xmlns="http://www.w3.org/2000/svg" xmlns:xlink="http://www.w3.org/1999/xlink" x="0px" y="0px"
	 viewBox="0 0 1000 1000" style="enable-background:new 0 0 1000 1000;" xml:space="preserve">
<style type="text/css">
	.st0{fill:none;stroke:#58595B;stroke-width:3;stroke-miterlimit:10;}
	.st1{fill:#FFFFFF;stroke:#000000;stroke-width:1.5;stroke-miterlimit:10;}
	.st2{fill:none;stroke:#58595B;stroke-width:1.5;stroke-miterlimit:10;}
	.st3{fill:#58595B;}
	.st4{fill:none;stroke:#58595B;stroke-width:4.2426;stroke-miterlimit:10;}
	.st5{fill:#FFFFFF;stroke:#000000;stroke-width:1.4591;stroke-miterlimit:10;}
	.st6{fill:none;stroke:#58595B;stroke-width:1.4661;stroke-miterlimit:10;}
	.st7{fill:none;stroke:#58595B;stroke-width:1.9664;stroke-miterlimit:10;}
	.st8{fill:none;stroke:#000000;stroke-width:1.5;stroke-miterlimit:10;}
	.st9{fill:none;stroke:#000000;stroke-width:1.5886;stroke-miterlimit:10;}
	.st10{fill:none;stroke:#000000;stroke-width:1.5964;stroke-miterlimit:10;}
</style>
<rect class="st0" width="1000" height="1000"/>
<g>
	<path d="M216.5,897.6l2.7-0.5c0,0.2,0,0.4-0.1,0.6c-0.1,0.2-0.1,0.3-0.1,0.4l-0.4,3.8h5.2v2h-5.2c-0.2,2.1-0.3,4-0.3,5.9
		c0,1.1,0,2.1,0.1,2.9s0.2,1.4,0.4,1.8c0.2,0.4,0.5,0.8,0.9,1s0.9,0.4,1.5,0.4c1.1,0,2.3-0.5,3.6-1.5l0.8,2c-1.6,1.2-3.3,1.8-5,1.8
		c-1.7,0-2.9-0.5-3.7-1.5s-1.1-2.7-1-5c0-0.8,0-1.9,0.1-3.2c0-1.3,0.1-2.8,0.3-4.6h-3.7v-2h3.8L216.5,897.6z"/>
	<path d="M230.8,901.8h2.6l-0.1,3.1c0.5-1.1,1.3-2,2.3-2.6s2.2-0.9,3.4-0.9c1.7,0,3.2,0.6,4.3,1.8l-1.2,2.4
		c-0.3-0.3-0.5-0.6-0.7-0.9c-0.2-0.2-0.4-0.4-0.7-0.6s-0.5-0.3-0.8-0.4c-0.3-0.1-0.7-0.1-1.1-0.1c-0.8,0-1.5,0.2-2.2,0.5
		s-1.3,0.8-1.8,1.4c-0.5,0.6-0.9,1.3-1.2,2c-0.3,0.8-0.5,1.6-0.5,2.4v7.8h-2.5V901.8z"/>
	<path d="M248.6,901.8h6.4v14h3.7v2h-10.4v-2h4.1v-11.9h-3.9V901.8z M252.5,895.4c0.4-0.4,0.8-0.5,1.3-0.5c0.5,0,0.9,0.2,1.3,0.5
		c0.4,0.4,0.5,0.8,0.5,1.3s-0.2,0.9-0.5,1.3c-0.4,0.4-0.8,0.5-1.3,0.5c-0.5,0-0.9-0.2-1.3-0.5c-0.4-0.3-0.5-0.8-0.5-1.3
		C252,896.2,252.2,895.7,252.5,895.4z"/>
	<path d="M265.6,903.7c1.4-1.5,3.3-2.2,5.7-2.2c2,0,3.5,0.5,4.6,1.5c1.1,1,1.7,2.6,1.7,5v9.9h-2.4v-1.8c-1.7,1.4-3.6,2.1-5.7,2.1
		c-0.8,0-1.6-0.1-2.3-0.4c-0.7-0.3-1.2-0.6-1.7-1s-0.8-0.9-1.1-1.4c-0.2-0.5-0.4-1.1-0.4-1.6c0-1.6,0.7-2.9,2.1-3.8
		c1.4-0.9,3.4-1.4,6-1.5h3v-0.6c0-1.6-0.3-2.7-1-3.3c-0.7-0.6-1.7-1-3.1-1c-1.7,0-3.2,0.6-4.3,1.8L265.6,903.7z M275.3,910.3h-0.6
		c-0.3,0-0.6,0-0.9,0c-0.3,0-0.6,0-0.9,0c-1.3,0-2.3,0.1-3.2,0.3c-0.8,0.2-1.5,0.4-1.9,0.7c-0.5,0.3-0.8,0.6-1,1
		c-0.2,0.4-0.3,0.8-0.3,1.2c0,0.7,0.3,1.4,1,1.9c0.7,0.5,1.5,0.8,2.4,0.8c0.7,0,1.3-0.1,1.9-0.3s1-0.5,1.5-0.8c0.4-0.3,0.8-0.6,1-1
		c0.3-0.3,0.4-0.6,0.6-0.9c0.2-0.5,0.4-1.1,0.4-1.9V910.3z"/>
	<path d="M282.3,917.8v-16h2.5v2.8c0.6-1,1.4-1.8,2.3-2.3c1-0.6,1.9-0.9,2.9-0.9c0.7,0,1.4,0.1,2,0.4c0.6,0.2,1.1,0.6,1.6,1.2
		c0.4,0.5,0.8,1.2,1,2.1c0.2,0.8,0.4,1.9,0.4,3.1v9.7h-2.5v-9.6c0-1.7-0.3-2.9-0.9-3.5c-0.6-0.7-1.3-1-2.1-1c-0.5,0-1.1,0.1-1.7,0.3
		c-0.6,0.2-1.1,0.6-1.5,1c-0.5,0.4-0.8,1-1.1,1.6c-0.3,0.6-0.4,1.3-0.4,2.1v9.2H282.3z"/>
	<path d="M309.2,902.8c1.1-1,2.4-1.4,4-1.4h0.5l0.3,2.1c-0.2,0-0.3,0-0.5-0.1s-0.3,0-0.5,0c-1,0-1.9,0.2-2.8,0.7
		c0.5,0.8,0.8,1.7,0.8,2.7c0,0.7-0.2,1.5-0.5,2.1c-0.3,0.7-0.7,1.2-1.2,1.8s-1.1,0.9-1.8,1.2c-0.7,0.3-1.4,0.4-2.2,0.4
		c-0.7,0-1.3-0.1-2-0.4c-0.7,0.7-1.1,1.3-1.1,1.8c0,0.4,0.2,0.7,0.7,0.9c0.5,0.2,1.1,0.3,1.9,0.3c0.4,0,0.9,0,1.3-0.1
		c0.5,0,0.9-0.1,1.3-0.1c1,0,2,0.1,2.7,0.3c0.8,0.2,1.4,0.5,1.8,0.8c0.5,0.4,0.8,0.8,1.1,1.3c0.2,0.5,0.3,1,0.3,1.6
		c0,0.6-0.2,1.2-0.5,1.8c-0.3,0.6-0.8,1.1-1.4,1.6c-0.6,0.5-1.4,0.8-2.3,1.1c-0.9,0.3-2,0.4-3.2,0.4c-1.3,0-2.4-0.1-3.3-0.3
		c-0.9-0.2-1.7-0.5-2.2-0.8c-0.6-0.4-1-0.8-1.3-1.2c-0.3-0.5-0.4-0.9-0.4-1.5c0-1.3,0.9-2.4,2.6-3.5c-0.9-0.4-1.3-1.2-1.3-2.2
		c0-1,0.6-2,1.8-3c-0.7-0.5-1.3-1.1-1.8-1.9c-0.4-0.8-0.6-1.6-0.6-2.5c0-0.8,0.2-1.5,0.5-2.2c0.3-0.7,0.8-1.3,1.3-1.8
		c0.5-0.5,1.2-0.9,1.9-1.2c0.7-0.3,1.4-0.4,2.2-0.4C306.9,901.3,308.2,901.8,309.2,902.8z M303,917c-1.3,0.7-2,1.6-2,2.5
		c0,0.5,0.1,0.9,0.4,1.2c0.3,0.3,0.6,0.6,1.1,0.8s1,0.3,1.6,0.4c0.6,0.1,1.3,0.1,1.9,0.1c1.4,0,2.6-0.3,3.5-0.8
		c0.9-0.5,1.4-1.2,1.4-2.1c0-0.6-0.3-1.1-0.8-1.5c-0.5-0.3-1.2-0.5-2.3-0.5c-0.1,0-0.2,0-0.3,0c-0.1,0-0.2,0-0.4,0
		c-0.9,0-1.7,0-2.4-0.1C304.2,917.1,303.5,917,303,917z M302.8,904.4c-0.3,0.3-0.6,0.7-0.8,1.1s-0.2,0.9-0.2,1.3
		c0,0.5,0.1,0.9,0.3,1.3c0.2,0.4,0.4,0.8,0.8,1.1s0.7,0.6,1.1,0.7c0.4,0.2,0.9,0.3,1.3,0.3c0.5,0,0.9-0.1,1.4-0.3
		c0.4-0.2,0.8-0.4,1.1-0.8c0.3-0.3,0.6-0.7,0.8-1.1c0.2-0.4,0.3-0.9,0.3-1.3c0-0.5-0.1-0.9-0.3-1.3c-0.2-0.4-0.4-0.8-0.8-1.1
		c-0.3-0.3-0.7-0.6-1.1-0.8s-0.9-0.3-1.3-0.3C304.3,903.3,303.5,903.7,302.8,904.4z"/>
	<path d="M317.9,894.5h7v21.2h4.7v2h-11.9v-2h4.7v-19.2h-4.5V894.5z"/>
	<path d="M341.4,901.4c0.8,0,1.7,0.2,2.5,0.5c0.8,0.3,1.5,0.8,2.1,1.4c0.6,0.6,1.1,1.4,1.4,2.4c0.4,1,0.5,2.1,0.5,3.4
		c0,0.2,0,0.4,0,0.6c0,0.2,0,0.4-0.1,0.6h-11.4c0,1.1,0.2,2.1,0.6,2.8c0.3,0.8,0.8,1.4,1.3,1.8s1.1,0.8,1.7,1
		c0.6,0.2,1.3,0.3,1.9,0.3c1.7,0,3-0.6,4.1-1.8l1.4,1.4c-1.4,1.6-3.2,2.5-5.6,2.5c-1.2,0-2.2-0.2-3.2-0.5s-1.8-0.9-2.5-1.6
		c-0.7-0.7-1.2-1.6-1.6-2.6c-0.4-1-0.6-2.2-0.6-3.6c0-1.4,0.2-2.6,0.6-3.6c0.4-1,0.9-1.9,1.6-2.6c0.7-0.7,1.4-1.3,2.3-1.6
		S340.4,901.4,341.4,901.4z M336.6,908.2h8.8c0-0.1,0-0.2,0-0.3c0-0.1,0-0.2,0-0.3c0-0.6-0.1-1.1-0.3-1.6c-0.2-0.5-0.5-1-0.9-1.3
		c-0.4-0.4-0.8-0.7-1.3-0.9c-0.5-0.2-1-0.3-1.6-0.3c-1.1,0-2.1,0.4-3,1.2C337.4,905.3,336.8,906.5,336.6,908.2z"/>
	<path d="M364.4,896.7l-0.4,0c-0.1,0-0.2,0-0.3,0.1c-2.1,1.2-3.7,2.9-4.8,5c-1.1,2.1-1.7,4.5-1.7,7.1c0,1.3,0.2,2.6,0.5,3.9
		c0.3,1.3,0.9,2.5,1.5,3.6c0.7,1.2,1.5,2.2,2.4,3.2c0.9,1,2,1.8,3.2,2.5l-1.1,1.9c-1.4-0.7-2.6-1.6-3.7-2.7c-1.1-1.1-2-2.2-2.8-3.6
		c-0.8-1.3-1.3-2.7-1.8-4.2c-0.4-1.5-0.6-3-0.6-4.6s0.2-3.1,0.6-4.6c0.4-1.5,1-2.8,1.8-4.1s1.7-2.4,2.8-3.3c1.1-1,2.3-1.7,3.7-2.3
		l1,2.1C364.5,896.7,364.4,896.7,364.4,896.7z"/>
	<path d="M380,901.8h2.6l-5.2,7.8l5.9,8.2h-2.9l-4.4-6.2l-4.2,6.2H369l5.6-8.1l-5.5-7.9h2.8l4.2,5.9L380,901.8z"/>
	<path d="M395.3,896v21.8h-2.4V899l-4.4,1.3L388,899l5.7-3H395.3z"/>
	<path d="M413.1,917.1c0,1.8-1.2,4-3.7,6.6l-1.2-1c0.7-0.6,1.2-1.3,1.6-2s0.6-1.3,0.6-1.7c0-0.2-0.1-0.4-0.3-0.6
		c-0.2-0.2-0.4-0.4-0.6-0.6c-0.2-0.2-0.4-0.4-0.6-0.6c-0.2-0.2-0.3-0.5-0.3-0.8c0-0.6,0.2-1.1,0.6-1.5c0.4-0.4,0.9-0.6,1.5-0.6
		c0.6,0,1.2,0.3,1.6,0.8C412.8,915.6,413.1,916.3,413.1,917.1z"/>
	<path d="M439.4,902.9l-0.5-1.1h3c0,0.2,0,0.3-0.1,0.5c0,0.1-0.1,0.3-0.1,0.4c0,0.1,0,0.2,0.1,0.2l4.8,11.8l3-8.6
		c0.3-0.8,0.5-1.6,0.7-2.3c0.2-0.7,0.3-1.4,0.5-1.9h2.6c-0.2,0.6-0.4,1.3-0.7,2.1c-0.2,0.8-0.5,1.6-0.9,2.6l-4.3,11.4l-0.7,1.8
		c-0.6,1.6-1.3,2.7-2.2,3.3c-0.9,0.6-1.9,1-3,1c-1.5,0-2.7-0.5-3.7-1.4l1.3-2.2c0.1,0.1,0.1,0.2,0.2,0.3c0,0.2,0.1,0.3,0.1,0.3
		c0.2,0.2,0.4,0.4,0.5,0.5c0.2,0.1,0.3,0.2,0.6,0.3c0.2,0.1,0.5,0.1,0.8,0.1c0.7,0,1.3-0.2,1.8-0.6c0.5-0.4,1-1.2,1.6-2.3l0.5-1.2
		L439.4,902.9z"/>
	<path d="M465.3,896v21.8h-2.4V899l-4.4,1.3L458,899l5.7-3H465.3z"/>
	<path d="M483.1,917.1c0,1.8-1.2,4-3.7,6.6l-1.2-1c0.7-0.6,1.2-1.3,1.6-2s0.6-1.3,0.6-1.7c0-0.2-0.1-0.4-0.3-0.6s-0.4-0.4-0.6-0.6
		s-0.4-0.4-0.6-0.6c-0.2-0.2-0.3-0.5-0.3-0.8c0-0.6,0.2-1.1,0.6-1.5c0.4-0.4,0.9-0.6,1.5-0.6c0.6,0,1.2,0.3,1.6,0.8
		C482.8,915.6,483.1,916.3,483.1,917.1z"/>
	<path d="M520,901.8h2.6l-5.2,7.8l5.9,8.2h-2.9l-4.4-6.2l-4.2,6.2H509l5.6-8.1l-5.5-7.9h2.8l4.2,5.9L520,901.8z"/>
	<path d="M527.6,899.4c0.6-1.1,1.5-2,2.6-2.6c1.1-0.6,2.3-0.9,3.5-0.9c0.9,0,1.7,0.2,2.4,0.5c0.8,0.3,1.4,0.8,2,1.3
		c0.6,0.6,1,1.2,1.4,2c0.3,0.7,0.5,1.5,0.5,2.4c0,0.7-0.1,1.3-0.3,1.9s-0.5,1.2-0.8,1.7c-0.3,0.5-0.7,1.1-1.1,1.6
		c-0.4,0.5-0.9,1-1.3,1.4l-2.1,2c-0.3,0.3-0.6,0.6-1,1s-0.7,0.8-1.1,1.2c-0.4,0.4-0.7,0.9-1.1,1.4c-0.3,0.5-0.7,1-0.9,1.5h9.1
		c0.1,0,0.2-0.1,0.4-0.2c0.1-0.1,0.2-0.2,0.4-0.2h0.1v2.5h-12.8v-1.5c0.9-1.7,1.8-3.2,2.8-4.4c1-1.2,2-2.3,2.9-3.1l1.7-1.5
		c0.6-0.5,1.1-1,1.4-1.5c0.4-0.5,0.6-0.9,0.9-1.3c0.2-0.4,0.4-0.8,0.4-1.2c0.1-0.4,0.1-0.8,0.1-1.2c0-0.5-0.1-1-0.3-1.5
		c-0.2-0.5-0.5-0.9-0.9-1.3c-0.4-0.4-0.8-0.7-1.3-0.9c-0.5-0.2-1-0.3-1.5-0.3c-0.6,0-1.1,0.1-1.6,0.3c-0.5,0.2-0.9,0.4-1.3,0.6
		c-0.4,0.2-0.6,0.5-0.9,0.8c-0.2,0.3-0.3,0.5-0.3,0.7c0,0.2-0.1,0.3-0.1,0.4L527.6,899.4z"/>
	<path d="M553.1,917.1c0,1.8-1.2,4-3.7,6.6l-1.2-1c0.7-0.6,1.2-1.3,1.6-2s0.6-1.3,0.6-1.7c0-0.2-0.1-0.4-0.3-0.6s-0.4-0.4-0.6-0.6
		s-0.4-0.4-0.6-0.6c-0.2-0.2-0.3-0.5-0.3-0.8c0-0.6,0.2-1.1,0.6-1.5c0.4-0.4,0.9-0.6,1.5-0.6c0.6,0,1.2,0.3,1.6,0.8
		C552.8,915.6,553.1,916.3,553.1,917.1z"/>
	<path d="M579.4,902.9l-0.5-1.1h3c0,0.2,0,0.3-0.1,0.5c0,0.1-0.1,0.3-0.1,0.4c0,0.1,0,0.2,0.1,0.2l4.8,11.8l3-8.6
		c0.3-0.8,0.5-1.6,0.7-2.3c0.2-0.7,0.3-1.4,0.5-1.9h2.6c-0.2,0.6-0.4,1.3-0.7,2.1c-0.2,0.8-0.5,1.6-0.9,2.6l-4.3,11.4l-0.7,1.8
		c-0.6,1.6-1.3,2.7-2.2,3.3c-0.9,0.6-1.9,1-3,1c-1.5,0-2.7-0.5-3.7-1.4l1.3-2.2c0.1,0.1,0.1,0.2,0.2,0.3c0,0.2,0.1,0.3,0.1,0.3
		c0.2,0.2,0.4,0.4,0.5,0.5c0.2,0.1,0.3,0.2,0.6,0.3c0.2,0.1,0.5,0.1,0.8,0.1c0.7,0,1.3-0.2,1.8-0.6c0.5-0.4,1-1.2,1.6-2.3l0.5-1.2
		L579.4,902.9z"/>
	<path d="M597.6,899.4c0.6-1.1,1.5-2,2.6-2.6c1.1-0.6,2.3-0.9,3.5-0.9c0.9,0,1.7,0.2,2.4,0.5c0.8,0.3,1.4,0.8,2,1.3
		c0.6,0.6,1,1.2,1.4,2c0.3,0.7,0.5,1.5,0.5,2.4c0,0.7-0.1,1.3-0.3,1.9s-0.5,1.2-0.8,1.7c-0.3,0.5-0.7,1.1-1.1,1.6
		c-0.4,0.5-0.9,1-1.3,1.4l-2.1,2c-0.3,0.3-0.6,0.6-1,1s-0.7,0.8-1.1,1.2c-0.4,0.4-0.7,0.9-1.1,1.4c-0.3,0.5-0.7,1-0.9,1.5h9.1
		c0.1,0,0.2-0.1,0.4-0.2c0.1-0.1,0.2-0.2,0.4-0.2h0.1v2.5h-12.8v-1.5c0.9-1.7,1.8-3.2,2.8-4.4c1-1.2,2-2.3,2.9-3.1l1.7-1.5
		c0.6-0.5,1.1-1,1.4-1.5c0.4-0.5,0.6-0.9,0.9-1.3c0.2-0.4,0.4-0.8,0.4-1.2c0.1-0.4,0.1-0.8,0.1-1.2c0-0.5-0.1-1-0.3-1.5
		c-0.2-0.5-0.5-0.9-0.9-1.3c-0.4-0.4-0.8-0.7-1.3-0.9c-0.5-0.2-1-0.3-1.5-0.3c-0.6,0-1.1,0.1-1.6,0.3c-0.5,0.2-0.9,0.4-1.3,0.6
		c-0.4,0.2-0.6,0.5-0.9,0.8c-0.2,0.3-0.3,0.5-0.3,0.7c0,0.2-0.1,0.3-0.1,0.4L597.6,899.4z"/>
	<path d="M623.1,917.1c0,1.8-1.2,4-3.7,6.6l-1.2-1c0.7-0.6,1.2-1.3,1.6-2s0.6-1.3,0.6-1.7c0-0.2-0.1-0.4-0.3-0.6s-0.4-0.4-0.6-0.6
		s-0.4-0.4-0.6-0.6c-0.2-0.2-0.3-0.5-0.3-0.8c0-0.6,0.2-1.1,0.6-1.5c0.4-0.4,0.9-0.6,1.5-0.6c0.6,0,1.2,0.3,1.6,0.8
		C622.8,915.6,623.1,916.3,623.1,917.1z"/>
	<path d="M660,901.8h2.6l-5.2,7.8l5.9,8.2h-2.9l-4.4-6.2l-4.2,6.2H649l5.6-8.1l-5.5-7.9h2.8l4.2,5.9L660,901.8z"/>
	<path d="M679.3,901.5c0,1.1-0.3,2-0.9,2.9c-0.6,0.9-1.4,1.5-2.4,1.9c1.1,0.4,2,1.1,2.7,2.1c0.7,1,1,2.2,1,3.5
		c0,0.9-0.2,1.7-0.5,2.4c-0.3,0.8-0.8,1.4-1.4,2c-0.6,0.6-1.3,1-2.2,1.4c-0.9,0.3-1.8,0.5-2.9,0.5c-2.1,0-4-0.8-5.5-2.5l1.9-2.2
		c0.1,0.1,0.2,0.2,0.2,0.5c0,0.2,0.1,0.4,0.2,0.5l0.5,0.4c0.2,0.2,0.6,0.4,1.1,0.6c0.6,0.2,1.2,0.3,1.8,0.3c0.6,0,1.2-0.1,1.8-0.3
		c0.5-0.2,1-0.5,1.4-0.9s0.7-0.9,0.9-1.4s0.3-1.1,0.3-1.7c0-1.2-0.5-2.2-1.4-2.9c-0.9-0.7-2.2-1.1-3.7-1.1c-0.2,0-0.4,0-0.5,0
		s-0.4,0-0.5,0.1v-2c1.1,0,2-0.1,2.7-0.3c0.7-0.2,1.3-0.5,1.8-0.9c0.5-0.4,0.8-0.8,1-1.3c0.2-0.5,0.3-1,0.3-1.6
		c0-0.4-0.1-0.8-0.3-1.2s-0.4-0.7-0.8-1c-0.3-0.3-0.7-0.5-1.2-0.7c-0.5-0.2-1-0.3-1.5-0.3c-1.5,0-2.7,0.6-3.7,1.7l-1.4-1.5
		c1.4-1.6,3.2-2.3,5.2-2.3c0.8,0,1.6,0.1,2.4,0.4c0.7,0.3,1.4,0.7,1.9,1.2s1,1.1,1.3,1.8C679.1,900,679.3,900.7,679.3,901.5z"/>
	<path d="M693.1,917.1c0,1.8-1.2,4-3.7,6.6l-1.2-1c0.7-0.6,1.2-1.3,1.6-2s0.6-1.3,0.6-1.7c0-0.2-0.1-0.4-0.3-0.6s-0.4-0.4-0.6-0.6
		s-0.4-0.4-0.6-0.6c-0.2-0.2-0.3-0.5-0.3-0.8c0-0.6,0.2-1.1,0.6-1.5c0.4-0.4,0.9-0.6,1.5-0.6c0.6,0,1.2,0.3,1.6,0.8
		C692.8,915.6,693.1,916.3,693.1,917.1z"/>
	<path d="M719.4,902.9l-0.5-1.1h3c0,0.2,0,0.3-0.1,0.5c0,0.1-0.1,0.3-0.1,0.4c0,0.1,0,0.2,0.1,0.2l4.8,11.8l3-8.6
		c0.3-0.8,0.5-1.6,0.7-2.3c0.2-0.7,0.3-1.4,0.5-1.9h2.6c-0.2,0.6-0.4,1.3-0.7,2.1c-0.2,0.8-0.5,1.6-0.9,2.6l-4.3,11.4l-0.7,1.8
		c-0.6,1.6-1.3,2.7-2.2,3.3c-0.9,0.6-1.9,1-3,1c-1.5,0-2.7-0.5-3.7-1.4l1.3-2.2c0.1,0.1,0.1,0.2,0.2,0.3c0,0.2,0.1,0.3,0.1,0.3
		c0.2,0.2,0.4,0.4,0.5,0.5c0.2,0.1,0.3,0.2,0.6,0.3c0.2,0.1,0.5,0.1,0.8,0.1c0.7,0,1.3-0.2,1.8-0.6c0.5-0.4,1-1.2,1.6-2.3l0.5-1.2
		L719.4,902.9z"/>
	<path d="M749.3,901.5c0,1.1-0.3,2-0.9,2.9c-0.6,0.9-1.4,1.5-2.4,1.9c1.1,0.4,2,1.1,2.7,2.1c0.7,1,1,2.2,1,3.5
		c0,0.9-0.2,1.7-0.5,2.4c-0.3,0.8-0.8,1.4-1.4,2c-0.6,0.6-1.3,1-2.2,1.4c-0.9,0.3-1.8,0.5-2.9,0.5c-2.1,0-4-0.8-5.5-2.5l1.9-2.2
		c0.1,0.1,0.2,0.2,0.2,0.5c0,0.2,0.1,0.4,0.2,0.5l0.5,0.4c0.2,0.2,0.6,0.4,1.1,0.6c0.6,0.2,1.2,0.3,1.8,0.3c0.6,0,1.2-0.1,1.8-0.3
		c0.5-0.2,1-0.5,1.4-0.9s0.7-0.9,0.9-1.4s0.3-1.1,0.3-1.7c0-1.2-0.5-2.2-1.4-2.9c-0.9-0.7-2.2-1.1-3.7-1.1c-0.2,0-0.4,0-0.5,0
		s-0.4,0-0.5,0.1v-2c1.1,0,2-0.1,2.7-0.3c0.7-0.2,1.3-0.5,1.8-0.9c0.5-0.4,0.8-0.8,1-1.3c0.2-0.5,0.3-1,0.3-1.6
		c0-0.4-0.1-0.8-0.3-1.2s-0.4-0.7-0.8-1c-0.3-0.3-0.7-0.5-1.2-0.7c-0.5-0.2-1-0.3-1.5-0.3c-1.5,0-2.7,0.6-3.7,1.7l-1.4-1.5
		c1.4-1.6,3.2-2.3,5.2-2.3c0.8,0,1.6,0.1,2.4,0.4c0.7,0.3,1.4,0.7,1.9,1.2s1,1.1,1.3,1.8C749.1,900,749.3,900.7,749.3,901.5z"/>
	<path d="M755.1,896.7l0.7-2.2c1.4,0.7,2.7,1.5,3.9,2.5c1.2,1,2.2,2.2,3,3.4c0.8,1.3,1.4,2.6,1.9,4.1c0.4,1.5,0.7,3,0.7,4.5
		c0,1.6-0.2,3.1-0.7,4.6c-0.5,1.5-1.1,2.9-1.9,4.2c-0.8,1.3-1.8,2.5-3,3.5c-1.2,1-2.5,1.9-3.9,2.6l-0.7-2.1c1.2-0.6,2.2-1.4,3.2-2.3
		s1.7-1.9,2.4-3c0.7-1.1,1.2-2.3,1.6-3.5c0.4-1.2,0.5-2.5,0.5-3.8s-0.2-2.6-0.5-3.8c-0.4-1.2-0.9-2.4-1.5-3.5s-1.4-2.1-2.4-2.9
		C757.2,898.1,756.2,897.3,755.1,896.7z"/>
	<path d="M780.6,917.1c0,1.8-1.2,4-3.7,6.6l-1.2-1c0.7-0.6,1.2-1.3,1.6-2s0.6-1.3,0.6-1.7c0-0.2-0.1-0.4-0.3-0.6s-0.4-0.4-0.6-0.6
		s-0.4-0.4-0.6-0.6c-0.2-0.2-0.3-0.5-0.3-0.8c0-0.6,0.2-1.1,0.6-1.5c0.4-0.4,0.9-0.6,1.5-0.6c0.6,0,1.2,0.3,1.6,0.8
		C780.3,915.6,780.6,916.3,780.6,917.1z M779.7,903.6c0.4,0.4,0.6,0.9,0.6,1.4s-0.2,1-0.6,1.4c-0.4,0.4-0.9,0.6-1.5,0.6
		c-0.5,0-1-0.2-1.4-0.6c-0.4-0.4-0.6-0.9-0.6-1.4c0-0.6,0.2-1,0.6-1.4c0.4-0.4,0.9-0.6,1.4-0.6C778.7,903,779.2,903.2,779.7,903.6z"
		/>
</g>
<g>
	<circle cx="482.7" cy="217.9" r="5"/>
	<g>
		<path d="M426.5,178.7l-0.4,0c-0.1,0-0.2,0-0.3,0.1c-2.1,1.2-3.7,2.9-4.8,5c-1.1,2.1-1.7,4.5-1.7,7.1c0,1.3,0.2,2.6,0.5,3.9
			c0.3,1.3,0.9,2.5,1.5,3.6c0.7,1.2,1.5,2.2,2.4,3.2s2,1.8,3.2,2.5l-1.1,1.9c-1.4-0.7-2.6-1.6-3.7-2.7c-1.1-1.1-2-2.2-2.8-3.6
			c-0.8-1.3-1.3-2.7-1.8-4.2c-0.4-1.5-0.6-3.1-0.6-4.6s0.2-3.1,0.6-4.6c0.4-1.5,1-2.8,1.8-4.1c0.8-1.2,1.7-2.4,2.8-3.3
			c1.1-1,2.3-1.7,3.7-2.3l1,2.1C426.6,178.7,426.5,178.7,426.5,178.7z"/>
		<path d="M442.2,183.8h2.6l-5.2,7.8l5.9,8.2h-2.9l-4.4-6.2l-4.2,6.2h-2.9l5.6-8.1l-5.5-7.9h2.8l4.2,5.9L442.2,183.8z"/>
		<path d="M457.5,178v21.8H455V181l-4.4,1.3l-0.6-1.4l5.7-3H457.5z"/>
		<path d="M475.2,199.1c0,1.8-1.2,4-3.7,6.6l-1.2-1c0.7-0.6,1.2-1.3,1.6-2c0.4-0.7,0.6-1.3,0.6-1.7c0-0.2-0.1-0.4-0.3-0.6
			c-0.2-0.2-0.4-0.4-0.6-0.6c-0.2-0.2-0.4-0.4-0.6-0.6c-0.2-0.2-0.3-0.5-0.3-0.8c0-0.6,0.2-1.1,0.6-1.5c0.4-0.4,0.9-0.6,1.5-0.6
			c0.6,0,1.2,0.3,1.6,0.8C475,197.6,475.2,198.3,475.2,199.1z"/>
		<path d="M501.6,185l-0.5-1.1h3c0,0.2,0,0.3-0.1,0.5c0,0.1-0.1,0.3-0.1,0.4c0,0.1,0,0.2,0.1,0.2l4.8,11.8l3-8.6
			c0.3-0.8,0.5-1.6,0.7-2.3c0.2-0.7,0.3-1.4,0.5-1.9h2.6c-0.2,0.6-0.4,1.3-0.7,2.1s-0.5,1.6-0.9,2.6l-4.3,11.4l-0.7,1.8
			c-0.6,1.6-1.3,2.7-2.2,3.3c-0.9,0.6-1.9,1-3,1c-1.5,0-2.7-0.5-3.7-1.4l1.3-2.2c0.1,0.1,0.1,0.2,0.2,0.3c0,0.2,0.1,0.3,0.1,0.3
			c0.2,0.2,0.4,0.4,0.5,0.5c0.2,0.1,0.3,0.2,0.6,0.3c0.2,0.1,0.5,0.1,0.8,0.1c0.7,0,1.3-0.2,1.8-0.6c0.5-0.4,1-1.2,1.6-2.3l0.5-1.2
			L501.6,185z"/>
		<path d="M527.5,178v21.8H525V181l-4.4,1.3l-0.6-1.4l5.7-3H527.5z"/>
		<path d="M537.2,178.7l0.7-2.2c1.4,0.7,2.7,1.5,3.9,2.5c1.2,1,2.2,2.2,3,3.4c0.8,1.3,1.4,2.6,1.9,4.1c0.4,1.5,0.7,3,0.7,4.5
			c0,1.6-0.2,3.1-0.7,4.6c-0.5,1.5-1.1,2.9-1.9,4.2s-1.8,2.5-3,3.5c-1.2,1-2.5,1.9-3.9,2.6l-0.7-2.1c1.2-0.6,2.2-1.4,3.2-2.3
			c0.9-0.9,1.7-1.9,2.4-3c0.7-1.1,1.2-2.3,1.6-3.5c0.4-1.2,0.5-2.5,0.5-3.8c0-1.3-0.2-2.6-0.5-3.8c-0.4-1.2-0.9-2.4-1.5-3.5
			c-0.6-1.1-1.4-2.1-2.4-2.9C539.4,180.1,538.3,179.3,537.2,178.7z"/>
	</g>
	<circle cx="755.6" cy="691.1" r="5"/>
	<g>
		<path d="M747.5,718.5l-0.4,0c-0.1,0-0.2,0-0.3,0.1c-2.1,1.2-3.7,2.9-4.8,5c-1.1,2.1-1.7,4.5-1.7,7.1c0,1.3,0.2,2.6,0.5,3.9
			c0.3,1.3,0.9,2.5,1.5,3.6c0.7,1.2,1.5,2.2,2.4,3.2c0.9,1,2,1.8,3.2,2.5l-1.1,1.9c-1.4-0.7-2.6-1.6-3.7-2.7s-2-2.2-2.8-3.6
			c-0.8-1.3-1.3-2.7-1.8-4.2c-0.4-1.5-0.6-3.1-0.6-4.6s0.2-3.1,0.6-4.6c0.4-1.5,1-2.8,1.8-4.1c0.8-1.2,1.7-2.3,2.8-3.3
			s2.3-1.7,3.7-2.3l1,2.1C747.6,718.4,747.5,718.5,747.5,718.5z"/>
		<path d="M763.1,723.6h2.6l-5.2,7.8l5.9,8.2h-2.9l-4.4-6.2l-4.2,6.2h-2.9l5.6-8.1l-5.5-7.9h2.8l4.2,5.9L763.1,723.6z"/>
		<path d="M782.3,723.2c0,1.1-0.3,2-0.9,2.9c-0.6,0.9-1.4,1.5-2.4,1.9c1.1,0.4,2,1.1,2.7,2.1c0.7,1,1,2.2,1,3.5
			c0,0.9-0.2,1.7-0.5,2.4c-0.3,0.8-0.8,1.4-1.4,2c-0.6,0.6-1.3,1-2.2,1.4c-0.9,0.3-1.8,0.5-2.9,0.5c-2.1,0-4-0.8-5.5-2.5l1.9-2.2
			c0.1,0.1,0.2,0.2,0.2,0.5c0,0.2,0.1,0.4,0.2,0.5l0.5,0.4c0.2,0.2,0.6,0.4,1.1,0.6c0.6,0.2,1.2,0.3,1.8,0.3c0.6,0,1.2-0.1,1.8-0.3
			c0.5-0.2,1-0.5,1.4-0.9c0.4-0.4,0.7-0.9,0.9-1.4c0.2-0.5,0.3-1.1,0.3-1.7c0-1.2-0.5-2.2-1.4-2.9c-0.9-0.7-2.2-1.1-3.7-1.1
			c-0.2,0-0.4,0-0.5,0c-0.2,0-0.4,0-0.5,0.1v-2c1.1,0,2-0.1,2.7-0.3c0.7-0.2,1.3-0.5,1.8-0.9c0.5-0.4,0.8-0.8,1-1.3
			c0.2-0.5,0.3-1,0.3-1.6c0-0.4-0.1-0.8-0.3-1.2c-0.2-0.4-0.4-0.7-0.8-1c-0.3-0.3-0.7-0.5-1.2-0.7s-1-0.3-1.5-0.3
			c-1.5,0-2.7,0.6-3.7,1.7l-1.4-1.5c1.4-1.6,3.2-2.3,5.2-2.3c0.8,0,1.6,0.1,2.4,0.4s1.4,0.7,1.9,1.2s1,1.1,1.3,1.8
			S782.3,722.5,782.3,723.2z"/>
		<path d="M796.2,738.9c0,1.8-1.2,4-3.7,6.6l-1.2-1c0.7-0.6,1.2-1.3,1.6-2c0.4-0.7,0.6-1.3,0.6-1.7c0-0.2-0.1-0.4-0.3-0.6
			c-0.2-0.2-0.4-0.4-0.6-0.6c-0.2-0.2-0.4-0.4-0.6-0.6c-0.2-0.2-0.3-0.5-0.3-0.8c0-0.6,0.2-1.1,0.6-1.5c0.4-0.4,0.9-0.6,1.5-0.6
			c0.6,0,1.2,0.3,1.6,0.8C795.9,737.3,796.2,738,796.2,738.9z"/>
		<path d="M822.5,724.7l-0.5-1.1h3c0,0.2,0,0.3-0.1,0.5s-0.1,0.3-0.1,0.4c0,0.1,0,0.2,0.1,0.2l4.8,11.8l3-8.6
			c0.3-0.8,0.5-1.6,0.7-2.3c0.2-0.7,0.3-1.4,0.5-1.9h2.6c-0.2,0.6-0.4,1.3-0.7,2.1c-0.2,0.8-0.5,1.6-0.9,2.6l-4.3,11.4l-0.7,1.8
			c-0.6,1.6-1.3,2.7-2.2,3.3s-1.9,1-3,1c-1.5,0-2.7-0.5-3.7-1.4l1.3-2.2c0.1,0.1,0.1,0.2,0.2,0.3c0,0.2,0.1,0.3,0.1,0.3
			c0.2,0.2,0.4,0.4,0.5,0.5c0.2,0.1,0.3,0.2,0.6,0.3c0.2,0.1,0.5,0.1,0.8,0.1c0.7,0,1.3-0.2,1.8-0.6s1-1.2,1.6-2.3l0.5-1.2
			L822.5,724.7z"/>
		<path d="M852.3,723.2c0,1.1-0.3,2-0.9,2.9c-0.6,0.9-1.4,1.5-2.4,1.9c1.1,0.4,2,1.1,2.7,2.1c0.7,1,1,2.2,1,3.5
			c0,0.9-0.2,1.7-0.5,2.4c-0.3,0.8-0.8,1.4-1.4,2c-0.6,0.6-1.3,1-2.2,1.4c-0.9,0.3-1.8,0.5-2.9,0.5c-2.1,0-4-0.8-5.5-2.5l1.9-2.2
			c0.1,0.1,0.2,0.2,0.2,0.5c0,0.2,0.1,0.4,0.2,0.5l0.5,0.4c0.2,0.2,0.6,0.4,1.1,0.6c0.6,0.2,1.2,0.3,1.8,0.3c0.6,0,1.2-0.1,1.8-0.3
			c0.5-0.2,1-0.5,1.4-0.9c0.4-0.4,0.7-0.9,0.9-1.4c0.2-0.5,0.3-1.1,0.3-1.7c0-1.2-0.5-2.2-1.4-2.9c-0.9-0.7-2.2-1.1-3.7-1.1
			c-0.2,0-0.4,0-0.5,0c-0.2,0-0.4,0-0.5,0.1v-2c1.1,0,2-0.1,2.7-0.3c0.7-0.2,1.3-0.5,1.8-0.9c0.5-0.4,0.8-0.8,1-1.3
			c0.2-0.5,0.3-1,0.3-1.6c0-0.4-0.1-0.8-0.3-1.2c-0.2-0.4-0.4-0.7-0.8-1c-0.3-0.3-0.7-0.5-1.2-0.7s-1-0.3-1.5-0.3
			c-1.5,0-2.7,0.6-3.7,1.7l-1.4-1.5c1.4-1.6,3.2-2.3,5.2-2.3c0.8,0,1.6,0.1,2.4,0.4s1.4,0.7,1.9,1.2s1,1.1,1.3,1.8
			S852.3,722.5,852.3,723.2z"/>
		<path d="M858.2,718.5l0.7-2.2c1.4,0.7,2.7,1.5,3.9,2.5c1.2,1,2.2,2.2,3,3.4c0.8,1.3,1.4,2.6,1.9,4.1c0.4,1.5,0.7,3,0.7,4.5
			c0,1.6-0.2,3.1-0.7,4.6s-1.1,2.9-1.9,4.2s-1.8,2.5-3,3.5c-1.2,1-2.5,1.9-3.9,2.6l-0.7-2.1c1.2-0.6,2.2-1.4,3.2-2.3
			c0.9-0.9,1.7-1.9,2.4-3s1.2-2.3,1.6-3.5c0.4-1.2,0.5-2.5,0.5-3.8c0-1.3-0.2-2.6-0.5-3.8s-0.9-2.4-1.5-3.5
			c-0.6-1.1-1.4-2.1-2.4-2.9C860.3,719.8,859.3,719.1,858.2,718.5z"/>
	</g>
	<circle cx="209.8" cy="690.8" r="5"/>
	<g>
		<path d="M149.1,712.9l-0.4,0c-0.1,0-0.2,0-0.3,0.1c-2.1,1.2-3.7,2.9-4.8,5c-1.1,2.1-1.7,4.5-1.7,7.1c0,1.3,0.2,2.6,0.5,3.9
			c0.3,1.3,0.9,2.5,1.5,3.6c0.7,1.2,1.5,2.2,2.4,3.2c0.9,1,2,1.8,3.2,2.5l-1.1,1.9c-1.4-0.7-2.6-1.6-3.7-2.7c-1.1-1.1-2-2.2-2.8-3.6
			c-0.8-1.3-1.3-2.7-1.8-4.2c-0.4-1.5-0.6-3-0.6-4.6s0.2-3.1,0.6-4.6c0.4-1.5,1-2.8,1.8-4.1s1.7-2.4,2.8-3.3c1.1-1,2.3-1.7,3.7-2.3
			l1,2.1C149.3,712.9,149.2,712.9,149.1,712.9z"/>
		<path d="M164.8,718h2.6l-5.2,7.8l5.9,8.2h-2.9l-4.4-6.2l-4.2,6.2h-2.9l5.6-8.1l-5.5-7.9h2.8l4.2,5.9L164.8,718z"/>
		<path d="M172.4,715.6c0.6-1.1,1.5-2,2.6-2.6c1.1-0.6,2.3-0.9,3.5-0.9c0.9,0,1.7,0.2,2.5,0.5c0.8,0.3,1.4,0.8,2,1.3
			c0.6,0.6,1,1.2,1.4,2c0.3,0.7,0.5,1.5,0.5,2.4c0,0.7-0.1,1.3-0.3,1.9s-0.5,1.2-0.8,1.7c-0.3,0.5-0.7,1.1-1.1,1.6
			c-0.4,0.5-0.9,1-1.3,1.4l-2.1,2c-0.3,0.3-0.6,0.6-1,1c-0.4,0.4-0.7,0.8-1.1,1.2c-0.4,0.4-0.7,0.9-1.1,1.4c-0.3,0.5-0.7,1-0.9,1.5
			h9.1c0.1,0,0.2-0.1,0.4-0.2c0.1-0.1,0.3-0.2,0.4-0.2h0.1v2.5h-12.8v-1.5c0.9-1.7,1.8-3.2,2.8-4.4c1-1.2,2-2.3,2.9-3.1l1.7-1.5
			c0.6-0.5,1.1-1,1.4-1.5c0.4-0.5,0.6-0.9,0.9-1.3c0.2-0.4,0.4-0.8,0.4-1.2c0.1-0.4,0.1-0.8,0.1-1.2c0-0.5-0.1-1-0.3-1.5
			c-0.2-0.5-0.5-0.9-0.9-1.3c-0.4-0.4-0.8-0.7-1.3-0.9c-0.5-0.2-1-0.3-1.5-0.3c-0.6,0-1.1,0.1-1.6,0.3c-0.5,0.2-0.9,0.4-1.3,0.6
			s-0.6,0.5-0.9,0.8c-0.2,0.3-0.3,0.5-0.4,0.7c0,0.2-0.1,0.3-0.1,0.4L172.4,715.6z"/>
		<path d="M197.8,733.3c0,1.8-1.2,4-3.7,6.6l-1.2-1c0.7-0.6,1.2-1.3,1.6-2s0.6-1.3,0.6-1.7c0-0.2-0.1-0.4-0.3-0.6
			c-0.2-0.2-0.4-0.4-0.6-0.6c-0.2-0.2-0.4-0.4-0.6-0.6c-0.2-0.2-0.3-0.5-0.3-0.8c0-0.6,0.2-1.1,0.6-1.5c0.4-0.4,0.9-0.6,1.5-0.6
			c0.6,0,1.2,0.3,1.6,0.8C197.6,731.8,197.8,732.5,197.8,733.3z"/>
		<path d="M224.2,719.2l-0.5-1.1h3c0,0.2,0,0.3-0.1,0.5c0,0.1-0.1,0.3-0.1,0.4c0,0.1,0,0.2,0.1,0.2l4.8,11.8l3-8.6
			c0.3-0.8,0.5-1.6,0.7-2.3c0.2-0.7,0.3-1.4,0.5-1.9h2.6c-0.2,0.6-0.4,1.3-0.7,2.1c-0.2,0.8-0.5,1.6-0.9,2.6l-4.3,11.4l-0.7,1.8
			c-0.6,1.6-1.3,2.7-2.2,3.3c-0.9,0.6-1.9,1-3,1c-1.5,0-2.7-0.5-3.7-1.4l1.3-2.2c0.1,0.1,0.1,0.2,0.2,0.3c0,0.2,0.1,0.3,0.1,0.3
			c0.2,0.2,0.4,0.4,0.5,0.5c0.2,0.1,0.3,0.2,0.6,0.3c0.2,0.1,0.5,0.1,0.8,0.1c0.7,0,1.3-0.2,1.8-0.6c0.5-0.4,1-1.2,1.6-2.3l0.5-1.2
			L224.2,719.2z"/>
		<path d="M242.4,715.6c0.6-1.1,1.5-2,2.6-2.6c1.1-0.6,2.3-0.9,3.5-0.9c0.9,0,1.7,0.2,2.5,0.5c0.8,0.3,1.4,0.8,2,1.3
			c0.6,0.6,1,1.2,1.4,2c0.3,0.7,0.5,1.5,0.5,2.4c0,0.7-0.1,1.3-0.3,1.9s-0.5,1.2-0.8,1.7c-0.3,0.5-0.7,1.1-1.1,1.6
			c-0.4,0.5-0.9,1-1.3,1.4l-2.1,2c-0.3,0.3-0.6,0.6-1,1c-0.4,0.4-0.7,0.8-1.1,1.2c-0.4,0.4-0.7,0.9-1.1,1.4c-0.3,0.5-0.7,1-0.9,1.5
			h9.1c0.1,0,0.2-0.1,0.4-0.2c0.1-0.1,0.3-0.2,0.4-0.2h0.1v2.5h-12.8v-1.5c0.9-1.7,1.8-3.2,2.8-4.4c1-1.2,2-2.3,2.9-3.1l1.7-1.5
			c0.6-0.5,1.1-1,1.4-1.5c0.4-0.5,0.6-0.9,0.9-1.3c0.2-0.4,0.4-0.8,0.4-1.2c0.1-0.4,0.1-0.8,0.1-1.2c0-0.5-0.1-1-0.3-1.5
			c-0.2-0.5-0.5-0.9-0.9-1.3c-0.4-0.4-0.8-0.7-1.3-0.9c-0.5-0.2-1-0.3-1.5-0.3c-0.6,0-1.1,0.1-1.6,0.3c-0.5,0.2-0.9,0.4-1.3,0.6
			s-0.6,0.5-0.9,0.8c-0.2,0.3-0.3,0.5-0.4,0.7c0,0.2-0.1,0.3-0.1,0.4L242.4,715.6z"/>
		<path d="M259.9,712.9l0.7-2.2c1.4,0.7,2.7,1.5,3.9,2.5c1.2,1,2.2,2.2,3,3.4c0.8,1.3,1.4,2.6,1.9,4.1c0.4,1.5,0.7,3,0.7,4.5
			c0,1.6-0.2,3.1-0.7,4.6c-0.5,1.5-1.1,2.9-1.9,4.2s-1.8,2.5-3,3.5c-1.2,1-2.5,1.9-3.9,2.6l-0.7-2.1c1.2-0.6,2.2-1.4,3.2-2.3
			c0.9-0.9,1.7-1.9,2.4-3c0.7-1.1,1.2-2.3,1.6-3.5c0.4-1.2,0.5-2.5,0.5-3.8s-0.2-2.6-0.5-3.8c-0.4-1.2-0.9-2.4-1.5-3.5
			c-0.6-1.1-1.4-2.1-2.4-2.9C262,714.3,261,713.5,259.9,712.9z"/>
	</g>
	<polygon class="st8" points="209.5,690.9 482.6,218 755.6,690.9 	"/>
</g>
</svg>
